G04 PROTEUS GERBER X2 FILE*
%TF.GenerationSoftware,Labcenter,Proteus,8.7-SP3-Build25561*%
%TF.CreationDate,2018-09-19T21:32:30+00:00*%
%TF.FileFunction,Legend,Top*%
%TF.FilePolarity,Positive*%
%TF.Part,Single*%
%TF.SameCoordinates,{e3305a46-ce47-47b3-9e58-762d23285141}*%
%FSLAX45Y45*%
%MOMM*%
G01*
%TA.AperFunction,Profile*%
%ADD23C,0.203200*%
%TA.AperFunction,Material*%
%ADD27C,0.203200*%
%TA.AperFunction,NonMaterial*%
%ADD28C,0.063500*%
%TA.AperFunction,Material*%
%ADD29C,0.762000*%
%TD.AperFunction*%
D23*
X+0Y-20000D02*
X+13561600Y-20000D01*
X+13561600Y+10438000D01*
X+0Y+10438000D01*
X+0Y-20000D01*
D27*
X+4217000Y+3642000D02*
X+4211920Y+3693752D01*
X+4197315Y+3741695D01*
X+4174138Y+3784875D01*
X+4143340Y+3822340D01*
X+4105875Y+3853138D01*
X+4062695Y+3876315D01*
X+4014752Y+3890920D01*
X+3963000Y+3896000D01*
X+4217000Y+3642000D02*
X+4211920Y+3589518D01*
X+4197315Y+3541233D01*
X+4174138Y+3498009D01*
X+4143340Y+3460708D01*
X+4105875Y+3430193D01*
X+4062695Y+3407328D01*
X+4014752Y+3392976D01*
X+3963000Y+3388000D01*
X+3963000Y+3896000D02*
X+3963000Y+4277000D01*
X+9043000Y+4277000D02*
X+9043000Y+3007000D01*
X+3963000Y+3007000D02*
X+3963000Y+3388000D01*
X+3963000Y+4277000D02*
X+9043000Y+4277000D01*
X+3963000Y+3007000D02*
X+9043000Y+3007000D01*
X+3830920Y+3515000D02*
X+3907120Y+3515000D01*
X+3922360Y+3530875D01*
X+3922360Y+3594375D01*
X+3907120Y+3610250D01*
X+3830920Y+3610250D01*
X+3861400Y+3673750D02*
X+3830920Y+3705500D01*
X+3922360Y+3705500D01*
X+5195560Y+1820420D02*
X+7481560Y+1820420D01*
X+7481560Y+2455420D01*
X+5195560Y+2455420D01*
X+5195560Y+1820420D01*
X+5195560Y+2328420D02*
X+7481560Y+2328420D01*
X+6663680Y+1497840D02*
X+6663680Y+1482600D01*
X+6679555Y+1467360D01*
X+6743055Y+1467360D01*
X+6758930Y+1482600D01*
X+6758930Y+1558800D01*
X+6806555Y+1558800D02*
X+6885930Y+1558800D01*
X+6885930Y+1543560D01*
X+6806555Y+1467360D01*
X+5414000Y+1363920D02*
X+5414000Y+1236920D01*
X+5350500Y+728920D02*
X+5477500Y+728920D01*
X+5477500Y+1236920D01*
X+5350500Y+1236920D01*
X+5350500Y+728920D01*
X+5414000Y+728920D02*
X+5414000Y+601920D01*
X+5609580Y+792420D02*
X+5518140Y+792420D01*
X+5518140Y+871795D01*
X+5533380Y+887670D01*
X+5548620Y+887670D01*
X+5563860Y+871795D01*
X+5563860Y+792420D01*
X+5563860Y+871795D02*
X+5579100Y+887670D01*
X+5609580Y+887670D01*
X+5548620Y+951170D02*
X+5518140Y+982920D01*
X+5609580Y+982920D01*
X+5533380Y+1062295D02*
X+5518140Y+1078170D01*
X+5518140Y+1125795D01*
X+5533380Y+1141670D01*
X+5548620Y+1141670D01*
X+5563860Y+1125795D01*
X+5563860Y+1078170D01*
X+5579100Y+1062295D01*
X+5609580Y+1062295D01*
X+5609580Y+1141670D01*
X+5704000Y+1363920D02*
X+5704000Y+1236920D01*
X+5640500Y+728920D02*
X+5767500Y+728920D01*
X+5767500Y+1236920D01*
X+5640500Y+1236920D01*
X+5640500Y+728920D01*
X+5704000Y+728920D02*
X+5704000Y+601920D01*
X+5899580Y+792420D02*
X+5808140Y+792420D01*
X+5808140Y+871795D01*
X+5823380Y+887670D01*
X+5838620Y+887670D01*
X+5853860Y+871795D01*
X+5853860Y+792420D01*
X+5853860Y+871795D02*
X+5869100Y+887670D01*
X+5899580Y+887670D01*
X+5838620Y+951170D02*
X+5808140Y+982920D01*
X+5899580Y+982920D01*
X+5823380Y+1062295D02*
X+5808140Y+1078170D01*
X+5808140Y+1125795D01*
X+5823380Y+1141670D01*
X+5838620Y+1141670D01*
X+5853860Y+1125795D01*
X+5869100Y+1141670D01*
X+5884340Y+1141670D01*
X+5899580Y+1125795D01*
X+5899580Y+1078170D01*
X+5884340Y+1062295D01*
X+5853860Y+1094045D02*
X+5853860Y+1125795D01*
X+6014000Y+1363920D02*
X+6014000Y+1236920D01*
X+5950500Y+728920D02*
X+6077500Y+728920D01*
X+6077500Y+1236920D01*
X+5950500Y+1236920D01*
X+5950500Y+728920D01*
X+6014000Y+728920D02*
X+6014000Y+601920D01*
X+6209580Y+792420D02*
X+6118140Y+792420D01*
X+6118140Y+871795D01*
X+6133380Y+887670D01*
X+6148620Y+887670D01*
X+6163860Y+871795D01*
X+6163860Y+792420D01*
X+6163860Y+871795D02*
X+6179100Y+887670D01*
X+6209580Y+887670D01*
X+6148620Y+951170D02*
X+6118140Y+982920D01*
X+6209580Y+982920D01*
X+6179100Y+1141670D02*
X+6179100Y+1046420D01*
X+6118140Y+1109920D01*
X+6209580Y+1109920D01*
X+6304000Y+1363920D02*
X+6304000Y+1236920D01*
X+6240500Y+728920D02*
X+6367500Y+728920D01*
X+6367500Y+1236920D01*
X+6240500Y+1236920D01*
X+6240500Y+728920D01*
X+6304000Y+728920D02*
X+6304000Y+601920D01*
X+6499580Y+792420D02*
X+6408140Y+792420D01*
X+6408140Y+871795D01*
X+6423380Y+887670D01*
X+6438620Y+887670D01*
X+6453860Y+871795D01*
X+6453860Y+792420D01*
X+6453860Y+871795D02*
X+6469100Y+887670D01*
X+6499580Y+887670D01*
X+6438620Y+951170D02*
X+6408140Y+982920D01*
X+6499580Y+982920D01*
X+6408140Y+1141670D02*
X+6408140Y+1062295D01*
X+6438620Y+1062295D01*
X+6438620Y+1125795D01*
X+6453860Y+1141670D01*
X+6484340Y+1141670D01*
X+6499580Y+1125795D01*
X+6499580Y+1078170D01*
X+6484340Y+1062295D01*
X+4603580Y+1645900D02*
X+4603580Y+1772900D01*
X+4540080Y+1772900D02*
X+4667080Y+1772900D01*
X+4667080Y+2280900D01*
X+4540080Y+2280900D01*
X+4540080Y+1772900D01*
X+4603580Y+2280900D02*
X+4603580Y+2407900D01*
X+4499440Y+1899900D02*
X+4408000Y+1899900D01*
X+4408000Y+1979275D01*
X+4423240Y+1995150D01*
X+4438480Y+1995150D01*
X+4453720Y+1979275D01*
X+4453720Y+1899900D01*
X+4453720Y+1979275D02*
X+4468960Y+1995150D01*
X+4499440Y+1995150D01*
X+4423240Y+2122150D02*
X+4408000Y+2106275D01*
X+4408000Y+2058650D01*
X+4423240Y+2042775D01*
X+4484200Y+2042775D01*
X+4499440Y+2058650D01*
X+4499440Y+2106275D01*
X+4484200Y+2122150D01*
X+4468960Y+2122150D01*
X+4453720Y+2106275D01*
X+4453720Y+2042775D01*
X+4079460Y+2407900D02*
X+4079460Y+2280900D01*
X+4015960Y+1772900D02*
X+4142960Y+1772900D01*
X+4142960Y+2280900D01*
X+4015960Y+2280900D01*
X+4015960Y+1772900D01*
X+4079460Y+1772900D02*
X+4079460Y+1645900D01*
X+3919440Y+1587480D02*
X+3828000Y+1587480D01*
X+3828000Y+1666855D01*
X+3843240Y+1682730D01*
X+3858480Y+1682730D01*
X+3873720Y+1666855D01*
X+3873720Y+1587480D01*
X+3873720Y+1666855D02*
X+3888960Y+1682730D01*
X+3919440Y+1682730D01*
X+3858480Y+1746230D02*
X+3828000Y+1777980D01*
X+3919440Y+1777980D01*
X+9238700Y+2314720D02*
X+9237873Y+2335203D01*
X+9231155Y+2376170D01*
X+9217137Y+2417137D01*
X+9194359Y+2458104D01*
X+9159559Y+2498949D01*
X+9118592Y+2530565D01*
X+9077625Y+2551112D01*
X+9036658Y+2563349D01*
X+8995691Y+2568482D01*
X+8984700Y+2568720D01*
X+8730700Y+2314720D02*
X+8731527Y+2335203D01*
X+8738245Y+2376170D01*
X+8752263Y+2417137D01*
X+8775041Y+2458104D01*
X+8809841Y+2498949D01*
X+8850808Y+2530565D01*
X+8891775Y+2551112D01*
X+8932742Y+2563349D01*
X+8973709Y+2568482D01*
X+8984700Y+2568720D01*
X+8730700Y+2314720D02*
X+8731527Y+2294237D01*
X+8738245Y+2253270D01*
X+8752263Y+2212303D01*
X+8775041Y+2171336D01*
X+8809841Y+2130491D01*
X+8850808Y+2098875D01*
X+8891775Y+2078328D01*
X+8932742Y+2066091D01*
X+8973709Y+2060958D01*
X+8984700Y+2060720D01*
X+9238700Y+2314720D02*
X+9237873Y+2294237D01*
X+9231155Y+2253270D01*
X+9217137Y+2212303D01*
X+9194359Y+2171336D01*
X+9159559Y+2130491D01*
X+9118592Y+2098875D01*
X+9077625Y+2078328D01*
X+9036658Y+2066091D01*
X+8995691Y+2060958D01*
X+8984700Y+2060720D01*
X+8794200Y+2441720D02*
X+8921200Y+2441720D01*
X+8857700Y+2505220D02*
X+8857700Y+2378220D01*
X+9275530Y+2517920D02*
X+9259655Y+2502680D01*
X+9212030Y+2502680D01*
X+9180280Y+2533160D01*
X+9180280Y+2563640D01*
X+9212030Y+2594120D01*
X+9259655Y+2594120D01*
X+9275530Y+2578880D01*
X+9339030Y+2563640D02*
X+9370780Y+2594120D01*
X+9370780Y+2502680D01*
X+3126140Y+5060940D02*
X+7200300Y+5060940D01*
X+7200300Y+5594940D01*
X+3126140Y+5594940D01*
X+3126140Y+5060940D01*
X+6946300Y+5070940D02*
X+6946300Y+5584940D01*
X+7193300Y+5484940D02*
X+3133300Y+5484940D01*
X+5203300Y+5559700D02*
X+5203300Y+5513980D01*
X+5155675Y+5513980D01*
X+5146150Y+5521600D01*
X+5146150Y+5529220D01*
X+5155675Y+5536840D01*
X+5146150Y+5544460D01*
X+5146150Y+5552080D01*
X+5155675Y+5559700D01*
X+5203300Y+5559700D01*
X+5203300Y+5536840D02*
X+5155675Y+5536840D01*
X+5127100Y+5559700D02*
X+5127100Y+5529220D01*
X+5108050Y+5513980D01*
X+5089000Y+5513980D01*
X+5069950Y+5529220D01*
X+5069950Y+5559700D01*
X+5127100Y+5544460D02*
X+5069950Y+5544460D01*
X+4993750Y+5552080D02*
X+5003275Y+5559700D01*
X+5031850Y+5559700D01*
X+5050900Y+5544460D01*
X+5050900Y+5529220D01*
X+5031850Y+5513980D01*
X+5003275Y+5513980D01*
X+4993750Y+5521600D01*
X+4974700Y+5513980D02*
X+4974700Y+5559700D01*
X+4917550Y+5513980D02*
X+4946125Y+5536840D01*
X+4917550Y+5559700D01*
X+4974700Y+5536840D02*
X+4946125Y+5536840D01*
X+4909220Y+5020300D02*
X+4909220Y+4928860D01*
X+5004470Y+4928860D01*
X+5131470Y+4944100D02*
X+5115595Y+4928860D01*
X+5067970Y+4928860D01*
X+5036220Y+4959340D01*
X+5036220Y+4989820D01*
X+5067970Y+5020300D01*
X+5115595Y+5020300D01*
X+5131470Y+5005060D01*
X+5163220Y+4928860D02*
X+5163220Y+5020300D01*
X+5226720Y+5020300D01*
X+5258470Y+4989820D01*
X+5258470Y+4959340D01*
X+5226720Y+4928860D01*
X+5163220Y+4928860D01*
X+5321970Y+4989820D02*
X+5353720Y+5020300D01*
X+5353720Y+4928860D01*
X+7408760Y+4738520D02*
X+8170760Y+4738520D01*
X+8170760Y+5119520D01*
X+7408760Y+5119520D01*
X+7408760Y+4738520D01*
X+7662760Y+5500520D02*
X+7916760Y+5500520D01*
X+7539760Y+5119020D02*
X+8029760Y+5119020D01*
X+8029760Y+5679020D01*
X+7539760Y+5679020D01*
X+7539760Y+5119020D01*
X+7599260Y+5719660D02*
X+7599260Y+5811100D01*
X+7678635Y+5811100D01*
X+7694510Y+5795860D01*
X+7694510Y+5780620D01*
X+7678635Y+5765380D01*
X+7599260Y+5765380D01*
X+7678635Y+5765380D02*
X+7694510Y+5750140D01*
X+7694510Y+5719660D01*
X+7726260Y+5811100D02*
X+7726260Y+5765380D01*
X+7773885Y+5719660D01*
X+7821510Y+5765380D01*
X+7821510Y+5811100D01*
X+7885010Y+5780620D02*
X+7916760Y+5811100D01*
X+7916760Y+5719660D01*
X+7049140Y+3653500D02*
X+7811140Y+3653500D01*
X+7938140Y+3526500D01*
X+7938140Y+3272500D01*
X+7811140Y+3145500D01*
X+7049140Y+3145500D01*
X+6922140Y+3272500D01*
X+6922140Y+3526500D01*
X+7049140Y+3653500D01*
X+7303140Y+3785580D02*
X+7398390Y+3694140D01*
X+7303140Y+3694140D02*
X+7398390Y+3785580D01*
X+7461890Y+3755100D02*
X+7493640Y+3785580D01*
X+7493640Y+3694140D01*
X+7691760Y+2642000D02*
X+7717636Y+2634484D01*
X+7741608Y+2612830D01*
X+7763198Y+2578376D01*
X+7781930Y+2532462D01*
X+7797329Y+2476429D01*
X+7808918Y+2411614D01*
X+7816220Y+2339358D01*
X+7818760Y+2261000D01*
X+7691760Y+1880000D02*
X+7717636Y+1887620D01*
X+7741608Y+1909528D01*
X+7763198Y+1944294D01*
X+7781930Y+1990490D01*
X+7797329Y+2046688D01*
X+7808918Y+2111458D01*
X+7816220Y+2183371D01*
X+7818760Y+2261000D01*
X+7691760Y+1880000D02*
X+7665884Y+1887620D01*
X+7641912Y+1909528D01*
X+7620322Y+1944294D01*
X+7601590Y+1990490D01*
X+7586191Y+2046688D01*
X+7574602Y+2111458D01*
X+7567300Y+2183371D01*
X+7564760Y+2261000D01*
X+7691760Y+2642000D02*
X+7665884Y+2634484D01*
X+7641912Y+2612830D01*
X+7620322Y+2578376D01*
X+7601590Y+2532462D01*
X+7586191Y+2476429D01*
X+7574602Y+2411614D01*
X+7567300Y+2339358D01*
X+7564760Y+2261000D01*
X+7665092Y+1671317D02*
X+7680332Y+1655442D01*
X+7680332Y+1607817D01*
X+7649852Y+1576067D01*
X+7619372Y+1576067D01*
X+7588892Y+1607817D01*
X+7588892Y+1655442D01*
X+7604132Y+1671317D01*
X+7604132Y+1718942D02*
X+7588892Y+1734817D01*
X+7588892Y+1782442D01*
X+7604132Y+1798317D01*
X+7619372Y+1798317D01*
X+7634612Y+1782442D01*
X+7634612Y+1734817D01*
X+7649852Y+1718942D01*
X+7680332Y+1718942D01*
X+7680332Y+1798317D01*
X+7972520Y+2642000D02*
X+7998396Y+2634484D01*
X+8022368Y+2612830D01*
X+8043958Y+2578376D01*
X+8062690Y+2532462D01*
X+8078089Y+2476429D01*
X+8089678Y+2411614D01*
X+8096980Y+2339358D01*
X+8099520Y+2261000D01*
X+7972520Y+1880000D02*
X+7998396Y+1887620D01*
X+8022368Y+1909528D01*
X+8043958Y+1944294D01*
X+8062690Y+1990490D01*
X+8078089Y+2046688D01*
X+8089678Y+2111458D01*
X+8096980Y+2183371D01*
X+8099520Y+2261000D01*
X+7972520Y+1880000D02*
X+7946644Y+1887620D01*
X+7922672Y+1909528D01*
X+7901082Y+1944294D01*
X+7882350Y+1990490D01*
X+7866951Y+2046688D01*
X+7855362Y+2111458D01*
X+7848060Y+2183371D01*
X+7845520Y+2261000D01*
X+7972520Y+2642000D02*
X+7946644Y+2634484D01*
X+7922672Y+2612830D01*
X+7901082Y+2578376D01*
X+7882350Y+2532462D01*
X+7866951Y+2476429D01*
X+7855362Y+2411614D01*
X+7848060Y+2339358D01*
X+7845520Y+2261000D01*
X+8216360Y+2229250D02*
X+8231600Y+2213375D01*
X+8231600Y+2165750D01*
X+8201120Y+2134000D01*
X+8170640Y+2134000D01*
X+8140160Y+2165750D01*
X+8140160Y+2213375D01*
X+8155400Y+2229250D01*
X+8155400Y+2276875D02*
X+8140160Y+2292750D01*
X+8140160Y+2340375D01*
X+8155400Y+2356250D01*
X+8170640Y+2356250D01*
X+8185880Y+2340375D01*
X+8201120Y+2356250D01*
X+8216360Y+2356250D01*
X+8231600Y+2340375D01*
X+8231600Y+2292750D01*
X+8216360Y+2276875D01*
X+8185880Y+2308625D02*
X+8185880Y+2340375D01*
X+782540Y+10057680D02*
X+782540Y+9041680D01*
X+1798540Y+10057680D02*
X+1798540Y+9041680D01*
X+782540Y+9041680D02*
X+1798540Y+9041680D01*
X+782540Y+10057680D02*
X+1798540Y+10057680D01*
X+1933540Y+9498800D02*
X+1933540Y+9483560D01*
X+1949415Y+9468320D01*
X+2012915Y+9468320D01*
X+2028790Y+9483560D01*
X+2028790Y+9559760D01*
X+2155790Y+9498800D02*
X+2060540Y+9498800D01*
X+2124040Y+9559760D01*
X+2124040Y+9468320D01*
X+8252175Y+5841420D02*
X+8379175Y+5841420D01*
X+8379175Y+5777920D02*
X+8887175Y+5777920D01*
X+8887175Y+5904920D01*
X+8379175Y+5904920D01*
X+8379175Y+5777920D01*
X+8887175Y+5841420D02*
X+9014175Y+5841420D01*
X+8506175Y+5945560D02*
X+8506175Y+6037000D01*
X+8585550Y+6037000D01*
X+8601425Y+6021760D01*
X+8601425Y+6006520D01*
X+8585550Y+5991280D01*
X+8506175Y+5991280D01*
X+8585550Y+5991280D02*
X+8601425Y+5976040D01*
X+8601425Y+5945560D01*
X+8728425Y+5976040D02*
X+8633175Y+5976040D01*
X+8696675Y+6037000D01*
X+8696675Y+5945560D01*
D28*
X+3838100Y+9823660D02*
X+3858420Y+9823660D01*
X+3802540Y+9828740D02*
X+3904140Y+9828740D01*
X+3797460Y+9833820D02*
X+3822860Y+9833820D01*
X+3883820Y+9833820D02*
X+3909220Y+9833820D01*
X+3787300Y+9838900D02*
X+3817780Y+9838900D01*
X+3888900Y+9838900D02*
X+3919380Y+9838900D01*
X+3787300Y+9843980D02*
X+3817780Y+9843980D01*
X+3888900Y+9843980D02*
X+3929540Y+9843980D01*
X+3797460Y+9849060D02*
X+3817780Y+9849060D01*
X+3888900Y+9849060D02*
X+3934620Y+9849060D01*
X+3797460Y+9854140D02*
X+3817780Y+9854140D01*
X+3888900Y+9854140D02*
X+3934620Y+9854140D01*
X+3477420Y+9859220D02*
X+3533300Y+9859220D01*
X+3594260Y+9859220D02*
X+3639980Y+9859220D01*
X+3695860Y+9859220D02*
X+3741580Y+9859220D01*
X+3797460Y+9859220D02*
X+3934620Y+9859220D01*
X+3980340Y+9859220D02*
X+4036220Y+9859220D01*
X+4117500Y+9859220D02*
X+4147980Y+9859220D01*
X+4310540Y+9859220D02*
X+4351180Y+9859220D01*
X+4462940Y+9859220D02*
X+4483260Y+9859220D01*
X+4539140Y+9859220D02*
X+4559460Y+9859220D01*
X+4615340Y+9859220D02*
X+4671220Y+9859220D01*
X+4884580Y+9859220D02*
X+4930300Y+9859220D01*
X+5036980Y+9859220D02*
X+5082700Y+9859220D01*
X+5153820Y+9859220D02*
X+5169060Y+9859220D01*
X+5230020Y+9859220D02*
X+5245260Y+9859220D01*
X+5321460Y+9859220D02*
X+5336700Y+9859220D01*
X+5600860Y+9859220D02*
X+5616100Y+9859220D01*
X+5702460Y+9859220D02*
X+5732940Y+9859220D01*
X+5844700Y+9859220D02*
X+5859940Y+9859220D01*
X+5920900Y+9859220D02*
X+5936140Y+9859220D01*
X+6022500Y+9859220D02*
X+6037740Y+9859220D01*
X+6098700Y+9859220D02*
X+6113940Y+9859220D01*
X+3472340Y+9864300D02*
X+3543460Y+9864300D01*
X+3594260Y+9864300D02*
X+3645060Y+9864300D01*
X+3695860Y+9864300D02*
X+3746660Y+9864300D01*
X+3797460Y+9864300D02*
X+3934620Y+9864300D01*
X+3970180Y+9864300D02*
X+4036220Y+9864300D01*
X+4112420Y+9864300D02*
X+4153060Y+9864300D01*
X+4305460Y+9864300D02*
X+4361340Y+9864300D01*
X+4457860Y+9864300D02*
X+4488340Y+9864300D01*
X+4534060Y+9864300D02*
X+4564540Y+9864300D01*
X+4610260Y+9864300D02*
X+4676300Y+9864300D01*
X+4879500Y+9864300D02*
X+4935380Y+9864300D01*
X+5031900Y+9864300D02*
X+5087780Y+9864300D01*
X+5148740Y+9864300D02*
X+5174140Y+9864300D01*
X+5224940Y+9864300D02*
X+5255420Y+9864300D01*
X+5311300Y+9864300D02*
X+5341780Y+9864300D01*
X+5595780Y+9864300D02*
X+5621180Y+9864300D01*
X+5697380Y+9864300D02*
X+5738020Y+9864300D01*
X+5839620Y+9864300D02*
X+5865020Y+9864300D01*
X+5915820Y+9864300D02*
X+5941220Y+9864300D01*
X+6017420Y+9864300D02*
X+6042820Y+9864300D01*
X+6093620Y+9864300D02*
X+6124100Y+9864300D01*
X+1892460Y+9869380D02*
X+2923700Y+9869380D01*
X+3472340Y+9869380D02*
X+3558700Y+9869380D01*
X+3594260Y+9869380D02*
X+3650140Y+9869380D01*
X+3695860Y+9869380D02*
X+3751740Y+9869380D01*
X+3797460Y+9869380D02*
X+3838100Y+9869380D01*
X+3868580Y+9869380D02*
X+3929540Y+9869380D01*
X+3970180Y+9869380D02*
X+4036220Y+9869380D01*
X+4092100Y+9869380D02*
X+4188620Y+9869380D01*
X+4280060Y+9869380D02*
X+4320700Y+9869380D01*
X+4351180Y+9869380D02*
X+4381660Y+9869380D01*
X+4437540Y+9869380D02*
X+4488340Y+9869380D01*
X+4503580Y+9869380D02*
X+4569620Y+9869380D01*
X+4610260Y+9869380D02*
X+4681380Y+9869380D01*
X+4859180Y+9869380D02*
X+4955700Y+9869380D01*
X+5016660Y+9869380D02*
X+5087780Y+9869380D01*
X+5128420Y+9869380D02*
X+5179220Y+9869380D01*
X+5194460Y+9869380D02*
X+5260500Y+9869380D01*
X+5306220Y+9869380D02*
X+5351940Y+9869380D01*
X+5489100Y+9869380D02*
X+5575460Y+9869380D01*
X+5590700Y+9869380D02*
X+5631340Y+9869380D01*
X+5687220Y+9869380D02*
X+5758340Y+9869380D01*
X+5829460Y+9869380D02*
X+5961540Y+9869380D01*
X+5997100Y+9869380D02*
X+6047900Y+9869380D01*
X+6063140Y+9869380D02*
X+6129180Y+9869380D01*
X+1882300Y+9874460D02*
X+2959260Y+9874460D01*
X+3477420Y+9874460D02*
X+3548540Y+9874460D01*
X+3594260Y+9874460D02*
X+3650140Y+9874460D01*
X+3695860Y+9874460D02*
X+3751740Y+9874460D01*
X+3787300Y+9874460D02*
X+3827940Y+9874460D01*
X+3873660Y+9874460D02*
X+3919380Y+9874460D01*
X+3975260Y+9874460D02*
X+4036220Y+9874460D01*
X+4081940Y+9874460D02*
X+4198780Y+9874460D01*
X+4259740Y+9874460D02*
X+4315620Y+9874460D01*
X+4361340Y+9874460D02*
X+4391820Y+9874460D01*
X+4437540Y+9874460D02*
X+4483260Y+9874460D01*
X+4513740Y+9874460D02*
X+4569620Y+9874460D01*
X+4615340Y+9874460D02*
X+4671220Y+9874460D01*
X+4833780Y+9874460D02*
X+4981100Y+9874460D01*
X+5026820Y+9874460D02*
X+5082700Y+9874460D01*
X+5128420Y+9874460D02*
X+5169060Y+9874460D01*
X+5204620Y+9874460D02*
X+5260500Y+9874460D01*
X+5306220Y+9874460D02*
X+5351940Y+9874460D01*
X+5499260Y+9874460D02*
X+5565300Y+9874460D01*
X+5600860Y+9874460D02*
X+5631340Y+9874460D01*
X+5687220Y+9874460D02*
X+5773580Y+9874460D01*
X+5819300Y+9874460D02*
X+5961540Y+9874460D01*
X+5997100Y+9874460D02*
X+6037740Y+9874460D01*
X+6073300Y+9874460D02*
X+6129180Y+9874460D01*
X+1882300Y+9879540D02*
X+2969420Y+9879540D01*
X+3477420Y+9879540D02*
X+3538380Y+9879540D01*
X+3604420Y+9879540D02*
X+3650140Y+9879540D01*
X+3695860Y+9879540D02*
X+3751740Y+9879540D01*
X+3797460Y+9879540D02*
X+3817780Y+9879540D01*
X+3975260Y+9879540D02*
X+4020980Y+9879540D01*
X+4076860Y+9879540D02*
X+4127660Y+9879540D01*
X+4168300Y+9879540D02*
X+4208940Y+9879540D01*
X+4259740Y+9879540D02*
X+4305460Y+9879540D01*
X+4361340Y+9879540D02*
X+4391820Y+9879540D01*
X+4437540Y+9879540D02*
X+4483260Y+9879540D01*
X+4513740Y+9879540D02*
X+4569620Y+9879540D01*
X+4625500Y+9879540D02*
X+4671220Y+9879540D01*
X+4833780Y+9879540D02*
X+4981100Y+9879540D01*
X+5036980Y+9879540D02*
X+5082700Y+9879540D01*
X+5128420Y+9879540D02*
X+5158900Y+9879540D01*
X+5204620Y+9879540D02*
X+5250340Y+9879540D01*
X+5306220Y+9879540D02*
X+5351940Y+9879540D01*
X+5499260Y+9879540D02*
X+5555140Y+9879540D01*
X+5611020Y+9879540D02*
X+5636420Y+9879540D01*
X+5682140Y+9879540D02*
X+5732940Y+9879540D01*
X+5809140Y+9879540D02*
X+5865020Y+9879540D01*
X+5905660Y+9879540D02*
X+5951380Y+9879540D01*
X+5997100Y+9879540D02*
X+6027580Y+9879540D01*
X+6073300Y+9879540D02*
X+6119020Y+9879540D01*
X+1882300Y+9884620D02*
X+2227740Y+9884620D01*
X+2832260Y+9884620D02*
X+2989740Y+9884620D01*
X+3487580Y+9884620D02*
X+3538380Y+9884620D01*
X+3604420Y+9884620D02*
X+3650140Y+9884620D01*
X+3700940Y+9884620D02*
X+3751740Y+9884620D01*
X+3797460Y+9884620D02*
X+3817780Y+9884620D01*
X+3975260Y+9884620D02*
X+4020980Y+9884620D01*
X+4076860Y+9884620D02*
X+4122580Y+9884620D01*
X+4168300Y+9884620D02*
X+4214020Y+9884620D01*
X+4259740Y+9884620D02*
X+4300380Y+9884620D01*
X+4361340Y+9884620D02*
X+4391820Y+9884620D01*
X+4437540Y+9884620D02*
X+4483260Y+9884620D01*
X+4513740Y+9884620D02*
X+4564540Y+9884620D01*
X+4630580Y+9884620D02*
X+4671220Y+9884620D01*
X+4828700Y+9884620D02*
X+4909980Y+9884620D01*
X+4965860Y+9884620D02*
X+4981100Y+9884620D01*
X+5036980Y+9884620D02*
X+5082700Y+9884620D01*
X+5128420Y+9884620D02*
X+5158900Y+9884620D01*
X+5204620Y+9884620D02*
X+5250340Y+9884620D01*
X+5306220Y+9884620D02*
X+5341780Y+9884620D01*
X+5499260Y+9884620D02*
X+5550060Y+9884620D01*
X+5621180Y+9884620D02*
X+5646580Y+9884620D01*
X+5677060Y+9884620D02*
X+5732940Y+9884620D01*
X+5804060Y+9884620D02*
X+5854860Y+9884620D01*
X+5905660Y+9884620D02*
X+5951380Y+9884620D01*
X+5997100Y+9884620D02*
X+6027580Y+9884620D01*
X+6073300Y+9884620D02*
X+6119020Y+9884620D01*
X+1882300Y+9889700D02*
X+2217580Y+9889700D01*
X+2842420Y+9889700D02*
X+3015140Y+9889700D01*
X+3492660Y+9889700D02*
X+3538380Y+9889700D01*
X+3604420Y+9889700D02*
X+3650140Y+9889700D01*
X+3711100Y+9889700D02*
X+3751740Y+9889700D01*
X+3797460Y+9889700D02*
X+3827940Y+9889700D01*
X+3975260Y+9889700D02*
X+4020980Y+9889700D01*
X+4066700Y+9889700D02*
X+4122580Y+9889700D01*
X+4168300Y+9889700D02*
X+4214020Y+9889700D01*
X+4259740Y+9889700D02*
X+4300380Y+9889700D01*
X+4361340Y+9889700D02*
X+4407060Y+9889700D01*
X+4437540Y+9889700D02*
X+4483260Y+9889700D01*
X+4513740Y+9889700D02*
X+4559460Y+9889700D01*
X+4630580Y+9889700D02*
X+4671220Y+9889700D01*
X+4818540Y+9889700D02*
X+4904900Y+9889700D01*
X+4976020Y+9889700D02*
X+4991260Y+9889700D01*
X+5036980Y+9889700D02*
X+5082700Y+9889700D01*
X+5128420Y+9889700D02*
X+5158900Y+9889700D01*
X+5204620Y+9889700D02*
X+5250340Y+9889700D01*
X+5306220Y+9889700D02*
X+5336700Y+9889700D01*
X+5499260Y+9889700D02*
X+5539900Y+9889700D01*
X+5626260Y+9889700D02*
X+5641500Y+9889700D01*
X+5677060Y+9889700D02*
X+5732940Y+9889700D01*
X+5804060Y+9889700D02*
X+5849780Y+9889700D01*
X+5905660Y+9889700D02*
X+5951380Y+9889700D01*
X+5997100Y+9889700D02*
X+6027580Y+9889700D01*
X+6073300Y+9889700D02*
X+6119020Y+9889700D01*
X+1892460Y+9894780D02*
X+2207420Y+9894780D01*
X+2842420Y+9894780D02*
X+3020220Y+9894780D01*
X+3492660Y+9894780D02*
X+3538380Y+9894780D01*
X+3604420Y+9894780D02*
X+3650140Y+9894780D01*
X+3711100Y+9894780D02*
X+3751740Y+9894780D01*
X+3807620Y+9894780D02*
X+3838100Y+9894780D01*
X+3975260Y+9894780D02*
X+4020980Y+9894780D01*
X+4066700Y+9894780D02*
X+4122580Y+9894780D01*
X+4168300Y+9894780D02*
X+4214020Y+9894780D01*
X+4259740Y+9894780D02*
X+4300380Y+9894780D01*
X+4361340Y+9894780D02*
X+4407060Y+9894780D01*
X+4447700Y+9894780D02*
X+4483260Y+9894780D01*
X+4513740Y+9894780D02*
X+4559460Y+9894780D01*
X+4630580Y+9894780D02*
X+4671220Y+9894780D01*
X+4813460Y+9894780D02*
X+4889660Y+9894780D01*
X+5036980Y+9894780D02*
X+5082700Y+9894780D01*
X+5138580Y+9894780D02*
X+5169060Y+9894780D01*
X+5204620Y+9894780D02*
X+5250340Y+9894780D01*
X+5499260Y+9894780D02*
X+5539900Y+9894780D01*
X+5626260Y+9894780D02*
X+5631340Y+9894780D01*
X+5677060Y+9894780D02*
X+5732940Y+9894780D01*
X+5804060Y+9894780D02*
X+5849780Y+9894780D01*
X+5905660Y+9894780D02*
X+5951380Y+9894780D01*
X+6007260Y+9894780D02*
X+6037740Y+9894780D01*
X+6073300Y+9894780D02*
X+6119020Y+9894780D01*
X+1892460Y+9899860D02*
X+2197260Y+9899860D01*
X+2847500Y+9899860D02*
X+3025300Y+9899860D01*
X+3492660Y+9899860D02*
X+3538380Y+9899860D01*
X+3604420Y+9899860D02*
X+3650140Y+9899860D01*
X+3711100Y+9899860D02*
X+3746660Y+9899860D01*
X+3807620Y+9899860D02*
X+3833020Y+9899860D01*
X+3868580Y+9899860D02*
X+3883820Y+9899860D01*
X+3975260Y+9899860D02*
X+4020980Y+9899860D01*
X+4066700Y+9899860D02*
X+4117500Y+9899860D01*
X+4168300Y+9899860D02*
X+4214020Y+9899860D01*
X+4259740Y+9899860D02*
X+4300380Y+9899860D01*
X+4361340Y+9899860D02*
X+4407060Y+9899860D01*
X+4473100Y+9899860D02*
X+4483260Y+9899860D01*
X+4513740Y+9899860D02*
X+4559460Y+9899860D01*
X+4630580Y+9899860D02*
X+4671220Y+9899860D01*
X+4808380Y+9899860D02*
X+4884580Y+9899860D01*
X+5036980Y+9899860D02*
X+5082700Y+9899860D01*
X+5158900Y+9899860D02*
X+5174140Y+9899860D01*
X+5199540Y+9899860D02*
X+5250340Y+9899860D01*
X+5499260Y+9899860D02*
X+5539900Y+9899860D01*
X+5677060Y+9899860D02*
X+5732940Y+9899860D01*
X+5804060Y+9899860D02*
X+5849780Y+9899860D01*
X+5905660Y+9899860D02*
X+5951380Y+9899860D01*
X+6017420Y+9899860D02*
X+6042820Y+9899860D01*
X+6068220Y+9899860D02*
X+6119020Y+9899860D01*
X+1892460Y+9904940D02*
X+2197260Y+9904940D01*
X+2852580Y+9904940D02*
X+3040540Y+9904940D01*
X+3492660Y+9904940D02*
X+3538380Y+9904940D01*
X+3604420Y+9904940D02*
X+3650140Y+9904940D01*
X+3706020Y+9904940D02*
X+3741580Y+9904940D01*
X+3797460Y+9904940D02*
X+3827940Y+9904940D01*
X+3873660Y+9904940D02*
X+3909220Y+9904940D01*
X+3975260Y+9904940D02*
X+4020980Y+9904940D01*
X+4066700Y+9904940D02*
X+4112420Y+9904940D01*
X+4168300Y+9904940D02*
X+4214020Y+9904940D01*
X+4259740Y+9904940D02*
X+4300380Y+9904940D01*
X+4361340Y+9904940D02*
X+4407060Y+9904940D01*
X+4478180Y+9904940D02*
X+4559460Y+9904940D01*
X+4630580Y+9904940D02*
X+4671220Y+9904940D01*
X+4808380Y+9904940D02*
X+4874420Y+9904940D01*
X+5036980Y+9904940D02*
X+5082700Y+9904940D01*
X+5163980Y+9904940D02*
X+5250340Y+9904940D01*
X+5499260Y+9904940D02*
X+5539900Y+9904940D01*
X+5677060Y+9904940D02*
X+5732940Y+9904940D01*
X+5804060Y+9904940D02*
X+5849780Y+9904940D01*
X+5905660Y+9904940D02*
X+5951380Y+9904940D01*
X+6022500Y+9904940D02*
X+6119020Y+9904940D01*
X+1892460Y+9910020D02*
X+2197260Y+9910020D01*
X+2862740Y+9910020D02*
X+3050700Y+9910020D01*
X+3492660Y+9910020D02*
X+3538380Y+9910020D01*
X+3604420Y+9910020D02*
X+3650140Y+9910020D01*
X+3700940Y+9910020D02*
X+3741580Y+9910020D01*
X+3787300Y+9910020D02*
X+3827940Y+9910020D01*
X+3888900Y+9910020D02*
X+3919380Y+9910020D01*
X+3975260Y+9910020D02*
X+4020980Y+9910020D01*
X+4066700Y+9910020D02*
X+4112420Y+9910020D01*
X+4168300Y+9910020D02*
X+4214020Y+9910020D01*
X+4259740Y+9910020D02*
X+4300380Y+9910020D01*
X+4361340Y+9910020D02*
X+4407060Y+9910020D01*
X+4513740Y+9910020D02*
X+4559460Y+9910020D01*
X+4630580Y+9910020D02*
X+4671220Y+9910020D01*
X+4808380Y+9910020D02*
X+4864260Y+9910020D01*
X+5036980Y+9910020D02*
X+5082700Y+9910020D01*
X+5204620Y+9910020D02*
X+5250340Y+9910020D01*
X+5499260Y+9910020D02*
X+5539900Y+9910020D01*
X+5677060Y+9910020D02*
X+5732940Y+9910020D01*
X+5804060Y+9910020D02*
X+5849780Y+9910020D01*
X+5905660Y+9910020D02*
X+5951380Y+9910020D01*
X+6073300Y+9910020D02*
X+6119020Y+9910020D01*
X+1892460Y+9915100D02*
X+2197260Y+9915100D01*
X+2867820Y+9915100D02*
X+3055780Y+9915100D01*
X+3492660Y+9915100D02*
X+3538380Y+9915100D01*
X+3604420Y+9915100D02*
X+3650140Y+9915100D01*
X+3695860Y+9915100D02*
X+3741580Y+9915100D01*
X+3787300Y+9915100D02*
X+3827940Y+9915100D01*
X+3888900Y+9915100D02*
X+3919380Y+9915100D01*
X+3975260Y+9915100D02*
X+4020980Y+9915100D01*
X+4076860Y+9915100D02*
X+4112420Y+9915100D01*
X+4168300Y+9915100D02*
X+4214020Y+9915100D01*
X+4259740Y+9915100D02*
X+4305460Y+9915100D01*
X+4356260Y+9915100D02*
X+4407060Y+9915100D01*
X+4513740Y+9915100D02*
X+4559460Y+9915100D01*
X+4630580Y+9915100D02*
X+4671220Y+9915100D01*
X+4808380Y+9915100D02*
X+4864260Y+9915100D01*
X+5036980Y+9915100D02*
X+5082700Y+9915100D01*
X+5204620Y+9915100D02*
X+5250340Y+9915100D01*
X+5499260Y+9915100D02*
X+5539900Y+9915100D01*
X+5677060Y+9915100D02*
X+5732940Y+9915100D01*
X+5804060Y+9915100D02*
X+5849780Y+9915100D01*
X+5905660Y+9915100D02*
X+5951380Y+9915100D01*
X+6073300Y+9915100D02*
X+6119020Y+9915100D01*
X+1897540Y+9920180D02*
X+2197260Y+9920180D01*
X+2867820Y+9920180D02*
X+3065940Y+9920180D01*
X+3492660Y+9920180D02*
X+3538380Y+9920180D01*
X+3594260Y+9920180D02*
X+3650140Y+9920180D01*
X+3695860Y+9920180D02*
X+3741580Y+9920180D01*
X+3787300Y+9920180D02*
X+3827940Y+9920180D01*
X+3888900Y+9920180D02*
X+3919380Y+9920180D01*
X+3975260Y+9920180D02*
X+4020980Y+9920180D01*
X+4076860Y+9920180D02*
X+4112420Y+9920180D01*
X+4168300Y+9920180D02*
X+4214020Y+9920180D01*
X+4259740Y+9920180D02*
X+4315620Y+9920180D01*
X+4346100Y+9920180D02*
X+4407060Y+9920180D01*
X+4513740Y+9920180D02*
X+4559460Y+9920180D01*
X+4630580Y+9920180D02*
X+4671220Y+9920180D01*
X+4808380Y+9920180D02*
X+4864260Y+9920180D01*
X+5036980Y+9920180D02*
X+5082700Y+9920180D01*
X+5204620Y+9920180D02*
X+5250340Y+9920180D01*
X+5499260Y+9920180D02*
X+5539900Y+9920180D01*
X+5677060Y+9920180D02*
X+5732940Y+9920180D01*
X+5804060Y+9920180D02*
X+5849780Y+9920180D01*
X+5905660Y+9920180D02*
X+5951380Y+9920180D01*
X+6073300Y+9920180D02*
X+6119020Y+9920180D01*
X+1907700Y+9925260D02*
X+2207420Y+9925260D01*
X+2877980Y+9925260D02*
X+3065940Y+9925260D01*
X+3492660Y+9925260D02*
X+3538380Y+9925260D01*
X+3594260Y+9925260D02*
X+3741580Y+9925260D01*
X+3797460Y+9925260D02*
X+3827940Y+9925260D01*
X+3878740Y+9925260D02*
X+3919380Y+9925260D01*
X+3975260Y+9925260D02*
X+4020980Y+9925260D01*
X+4076860Y+9925260D02*
X+4122580Y+9925260D01*
X+4158140Y+9925260D02*
X+4214020Y+9925260D01*
X+4259740Y+9925260D02*
X+4407060Y+9925260D01*
X+4452780Y+9925260D02*
X+4468020Y+9925260D01*
X+4513740Y+9925260D02*
X+4559460Y+9925260D01*
X+4630580Y+9925260D02*
X+4671220Y+9925260D01*
X+4808380Y+9925260D02*
X+4864260Y+9925260D01*
X+5026820Y+9925260D02*
X+5082700Y+9925260D01*
X+5128420Y+9925260D02*
X+5158900Y+9925260D01*
X+5204620Y+9925260D02*
X+5250340Y+9925260D01*
X+5499260Y+9925260D02*
X+5539900Y+9925260D01*
X+5677060Y+9925260D02*
X+5732940Y+9925260D01*
X+5804060Y+9925260D02*
X+5859940Y+9925260D01*
X+5905660Y+9925260D02*
X+5951380Y+9925260D01*
X+5997100Y+9925260D02*
X+6027580Y+9925260D01*
X+6073300Y+9925260D02*
X+6119020Y+9925260D01*
X+1907700Y+9930340D02*
X+2207420Y+9930340D01*
X+2888140Y+9930340D02*
X+3065940Y+9930340D01*
X+3492660Y+9930340D02*
X+3538380Y+9930340D01*
X+3594260Y+9930340D02*
X+3741580Y+9930340D01*
X+3797460Y+9930340D02*
X+3827940Y+9930340D01*
X+3873660Y+9930340D02*
X+3919380Y+9930340D01*
X+3975260Y+9930340D02*
X+4020980Y+9930340D01*
X+4087020Y+9930340D02*
X+4127660Y+9930340D01*
X+4153060Y+9930340D02*
X+4203860Y+9930340D01*
X+4259740Y+9930340D02*
X+4396900Y+9930340D01*
X+4447700Y+9930340D02*
X+4473100Y+9930340D01*
X+4513740Y+9930340D02*
X+4559460Y+9930340D01*
X+4630580Y+9930340D02*
X+4671220Y+9930340D01*
X+4808380Y+9930340D02*
X+4864260Y+9930340D01*
X+5026820Y+9930340D02*
X+5082700Y+9930340D01*
X+5138580Y+9930340D02*
X+5158900Y+9930340D01*
X+5204620Y+9930340D02*
X+5250340Y+9930340D01*
X+5499260Y+9930340D02*
X+5539900Y+9930340D01*
X+5671980Y+9930340D02*
X+5732940Y+9930340D01*
X+5814220Y+9930340D02*
X+5865020Y+9930340D01*
X+5900580Y+9930340D02*
X+5951380Y+9930340D01*
X+6007260Y+9930340D02*
X+6027580Y+9930340D01*
X+6073300Y+9930340D02*
X+6119020Y+9930340D01*
X+1907700Y+9935420D02*
X+2207420Y+9935420D01*
X+2893220Y+9935420D02*
X+3076100Y+9935420D01*
X+3492660Y+9935420D02*
X+3538380Y+9935420D01*
X+3594260Y+9935420D02*
X+3736500Y+9935420D01*
X+3802540Y+9935420D02*
X+3833020Y+9935420D01*
X+3873660Y+9935420D02*
X+3919380Y+9935420D01*
X+3975260Y+9935420D02*
X+4020980Y+9935420D01*
X+4097180Y+9935420D02*
X+4198780Y+9935420D01*
X+4259740Y+9935420D02*
X+4391820Y+9935420D01*
X+4452780Y+9935420D02*
X+4483260Y+9935420D01*
X+4513740Y+9935420D02*
X+4554380Y+9935420D01*
X+4630580Y+9935420D02*
X+4671220Y+9935420D01*
X+4808380Y+9935420D02*
X+4864260Y+9935420D01*
X+4970940Y+9935420D02*
X+4981100Y+9935420D01*
X+5026820Y+9935420D02*
X+5082700Y+9935420D01*
X+5143660Y+9935420D02*
X+5158900Y+9935420D01*
X+5204620Y+9935420D02*
X+5245260Y+9935420D01*
X+5499260Y+9935420D02*
X+5539900Y+9935420D01*
X+5661820Y+9935420D02*
X+5732940Y+9935420D01*
X+5819300Y+9935420D02*
X+5951380Y+9935420D01*
X+6012340Y+9935420D02*
X+6027580Y+9935420D01*
X+6073300Y+9935420D02*
X+6113940Y+9935420D01*
X+1917860Y+9940500D02*
X+2217580Y+9940500D01*
X+2903380Y+9940500D02*
X+3086260Y+9940500D01*
X+3492660Y+9940500D02*
X+3538380Y+9940500D01*
X+3619660Y+9940500D02*
X+3650140Y+9940500D01*
X+3680620Y+9940500D02*
X+3726340Y+9940500D01*
X+3822860Y+9940500D02*
X+3929540Y+9940500D01*
X+3975260Y+9940500D02*
X+4020980Y+9940500D01*
X+4102260Y+9940500D02*
X+4188620Y+9940500D01*
X+4259740Y+9940500D02*
X+4305460Y+9940500D01*
X+4335940Y+9940500D02*
X+4391820Y+9940500D01*
X+4462940Y+9940500D02*
X+4544220Y+9940500D01*
X+4630580Y+9940500D02*
X+4671220Y+9940500D01*
X+4808380Y+9940500D02*
X+4864260Y+9940500D01*
X+4960780Y+9940500D02*
X+4991260Y+9940500D01*
X+5036980Y+9940500D02*
X+5082700Y+9940500D01*
X+5153820Y+9940500D02*
X+5235100Y+9940500D01*
X+5499260Y+9940500D02*
X+5539900Y+9940500D01*
X+5651660Y+9940500D02*
X+5768500Y+9940500D01*
X+5829460Y+9940500D02*
X+5951380Y+9940500D01*
X+6022500Y+9940500D02*
X+6103780Y+9940500D01*
X+1917860Y+9945580D02*
X+2222660Y+9945580D01*
X+2903380Y+9945580D02*
X+3091340Y+9945580D01*
X+3492660Y+9945580D02*
X+3538380Y+9945580D01*
X+3924460Y+9945580D02*
X+3934620Y+9945580D01*
X+3975260Y+9945580D02*
X+4020980Y+9945580D01*
X+4259740Y+9945580D02*
X+4300380Y+9945580D01*
X+4630580Y+9945580D02*
X+4671220Y+9945580D01*
X+4818540Y+9945580D02*
X+4864260Y+9945580D01*
X+4955700Y+9945580D02*
X+4991260Y+9945580D01*
X+5499260Y+9945580D02*
X+5539900Y+9945580D01*
X+5661820Y+9945580D02*
X+5738020Y+9945580D01*
X+5905660Y+9945580D02*
X+5951380Y+9945580D01*
X+1922940Y+9950660D02*
X+2232820Y+9950660D01*
X+2908460Y+9950660D02*
X+3091340Y+9950660D01*
X+3492660Y+9950660D02*
X+3538380Y+9950660D01*
X+3975260Y+9950660D02*
X+4020980Y+9950660D01*
X+4259740Y+9950660D02*
X+4300380Y+9950660D01*
X+4625500Y+9950660D02*
X+4671220Y+9950660D01*
X+4818540Y+9950660D02*
X+4864260Y+9950660D01*
X+4945540Y+9950660D02*
X+4991260Y+9950660D01*
X+5499260Y+9950660D02*
X+5539900Y+9950660D01*
X+5682140Y+9950660D02*
X+5732940Y+9950660D01*
X+5905660Y+9950660D02*
X+5951380Y+9950660D01*
X+1933100Y+9955740D02*
X+2232820Y+9955740D01*
X+2918620Y+9955740D02*
X+3101500Y+9955740D01*
X+3477420Y+9955740D02*
X+3538380Y+9955740D01*
X+3975260Y+9955740D02*
X+4020980Y+9955740D01*
X+4259740Y+9955740D02*
X+4300380Y+9955740D01*
X+4615340Y+9955740D02*
X+4671220Y+9955740D01*
X+4818540Y+9955740D02*
X+4864260Y+9955740D01*
X+4945540Y+9955740D02*
X+4991260Y+9955740D01*
X+5499260Y+9955740D02*
X+5539900Y+9955740D01*
X+5687220Y+9955740D02*
X+5732940Y+9955740D01*
X+5905660Y+9955740D02*
X+5951380Y+9955740D01*
X+1943260Y+9960820D02*
X+2237900Y+9960820D01*
X+2928780Y+9960820D02*
X+3106580Y+9960820D01*
X+3477420Y+9960820D02*
X+3538380Y+9960820D01*
X+3970180Y+9960820D02*
X+4020980Y+9960820D01*
X+4254660Y+9960820D02*
X+4300380Y+9960820D01*
X+4610260Y+9960820D02*
X+4671220Y+9960820D01*
X+4833780Y+9960820D02*
X+4869340Y+9960820D01*
X+4940460Y+9960820D02*
X+4991260Y+9960820D01*
X+5499260Y+9960820D02*
X+5550060Y+9960820D01*
X+5702460Y+9960820D02*
X+5732940Y+9960820D01*
X+5900580Y+9960820D02*
X+5951380Y+9960820D01*
X+1953420Y+9965900D02*
X+2248060Y+9965900D01*
X+2928780Y+9965900D02*
X+3116740Y+9965900D01*
X+3477420Y+9965900D02*
X+3538380Y+9965900D01*
X+3965100Y+9965900D02*
X+4020980Y+9965900D01*
X+4244500Y+9965900D02*
X+4300380Y+9965900D01*
X+4605180Y+9965900D02*
X+4671220Y+9965900D01*
X+4838860Y+9965900D02*
X+4879500Y+9965900D01*
X+4920140Y+9965900D02*
X+4986180Y+9965900D01*
X+5494180Y+9965900D02*
X+5555140Y+9965900D01*
X+5895500Y+9965900D02*
X+5951380Y+9965900D01*
X+1958500Y+9970980D02*
X+2258220Y+9970980D01*
X+2928780Y+9970980D02*
X+3116740Y+9970980D01*
X+3467260Y+9970980D02*
X+3548540Y+9970980D01*
X+3965100Y+9970980D02*
X+4020980Y+9970980D01*
X+4244500Y+9970980D02*
X+4300380Y+9970980D01*
X+4605180Y+9970980D02*
X+4671220Y+9970980D01*
X+4843940Y+9970980D02*
X+4981100Y+9970980D01*
X+5036980Y+9970980D02*
X+5067460Y+9970980D01*
X+5473860Y+9970980D02*
X+5565300Y+9970980D01*
X+5895500Y+9970980D02*
X+5951380Y+9970980D01*
X+1983900Y+9976060D02*
X+2258220Y+9976060D01*
X+2938940Y+9976060D02*
X+3121820Y+9976060D01*
X+3467260Y+9976060D02*
X+3558700Y+9976060D01*
X+3990500Y+9976060D02*
X+4031140Y+9976060D01*
X+4269900Y+9976060D02*
X+4300380Y+9976060D01*
X+4625500Y+9976060D02*
X+4671220Y+9976060D01*
X+4859180Y+9976060D02*
X+4940460Y+9976060D01*
X+5036980Y+9976060D02*
X+5077620Y+9976060D01*
X+5473860Y+9976060D02*
X+5565300Y+9976060D01*
X+5905660Y+9976060D02*
X+5951380Y+9976060D01*
X+2949100Y+9981140D02*
X+3131980Y+9981140D01*
X+5047140Y+9981140D02*
X+5082700Y+9981140D01*
X+2954180Y+9986220D02*
X+3142140Y+9986220D01*
X+5052220Y+9986220D02*
X+5082700Y+9986220D01*
X+2954180Y+9991300D02*
X+3142140Y+9991300D01*
X+2964340Y+9996380D02*
X+3142140Y+9996380D01*
X+2969420Y+10001460D02*
X+3152300Y+10001460D01*
X+2979580Y+10006540D02*
X+3162460Y+10006540D01*
X+2979580Y+10011620D02*
X+3167540Y+10011620D01*
X+2984660Y+10016700D02*
X+3177700Y+10016700D01*
X+2994820Y+10021780D02*
X+3177700Y+10021780D01*
X+3004980Y+10026860D02*
X+3182780Y+10026860D01*
X+3010060Y+10031940D02*
X+3192940Y+10031940D01*
X+3020220Y+10037020D02*
X+3203100Y+10037020D01*
X+3020220Y+10042100D02*
X+3203100Y+10042100D01*
X+3025300Y+10047180D02*
X+3203100Y+10047180D01*
X+3030380Y+10052260D02*
X+3218340Y+10052260D01*
X+3040540Y+10057340D02*
X+3223420Y+10057340D01*
X+3045620Y+10062420D02*
X+3233580Y+10062420D01*
X+3045620Y+10067500D02*
X+3243740Y+10067500D01*
X+3055780Y+10072580D02*
X+3243740Y+10072580D01*
X+3065940Y+10077660D02*
X+3243740Y+10077660D01*
X+3360580Y+10077660D02*
X+3370740Y+10077660D01*
X+4142900Y+10077660D02*
X+4153060Y+10077660D01*
X+3071020Y+10082740D02*
X+3253900Y+10082740D01*
X+3365660Y+10082740D02*
X+4188620Y+10082740D01*
X+3071020Y+10087820D02*
X+3264060Y+10087820D01*
X+3375820Y+10087820D02*
X+4198780Y+10087820D01*
X+3081180Y+10092900D02*
X+3269140Y+10092900D01*
X+3909220Y+10092900D02*
X+4198780Y+10092900D01*
X+3086260Y+10097980D02*
X+3279300Y+10097980D01*
X+3914300Y+10097980D02*
X+4198780Y+10097980D01*
X+3096420Y+10103060D02*
X+3279300Y+10103060D01*
X+3939700Y+10103060D02*
X+4214020Y+10103060D01*
X+3106580Y+10108140D02*
X+3284380Y+10108140D01*
X+3960020Y+10108140D02*
X+4219100Y+10108140D01*
X+3106580Y+10113220D02*
X+3294540Y+10113220D01*
X+3965100Y+10113220D02*
X+4229260Y+10113220D01*
X+3106580Y+10118300D02*
X+3304700Y+10118300D01*
X+3965100Y+10118300D02*
X+4239420Y+10118300D01*
X+3116740Y+10123380D02*
X+3304700Y+10123380D01*
X+3975260Y+10123380D02*
X+4239420Y+10123380D01*
X+3126900Y+10128460D02*
X+3309780Y+10128460D01*
X+3980340Y+10128460D02*
X+4239420Y+10128460D01*
X+3131980Y+10133540D02*
X+3319940Y+10133540D01*
X+3990500Y+10133540D02*
X+4249580Y+10133540D01*
X+3131980Y+10138620D02*
X+3325020Y+10138620D01*
X+3990500Y+10138620D02*
X+4259740Y+10138620D01*
X+3142140Y+10143700D02*
X+3335180Y+10143700D01*
X+3995580Y+10143700D02*
X+4264820Y+10143700D01*
X+3147220Y+10148780D02*
X+3345340Y+10148780D01*
X+4000660Y+10148780D02*
X+4274980Y+10148780D01*
X+3157380Y+10153860D02*
X+3345340Y+10153860D01*
X+4015900Y+10153860D02*
X+4274980Y+10153860D01*
X+3157380Y+10158940D02*
X+3345340Y+10158940D01*
X+4015900Y+10158940D02*
X+4280060Y+10158940D01*
X+3162460Y+10164020D02*
X+3355500Y+10164020D01*
X+4015900Y+10164020D02*
X+4290220Y+10164020D01*
X+3172620Y+10169100D02*
X+3365660Y+10169100D01*
X+4026060Y+10169100D02*
X+4300380Y+10169100D01*
X+3182780Y+10174180D02*
X+3370740Y+10174180D01*
X+4026060Y+10174180D02*
X+4305460Y+10174180D01*
X+3187860Y+10179260D02*
X+3380900Y+10179260D01*
X+4031140Y+10179260D02*
X+4315620Y+10179260D01*
X+3198020Y+10184340D02*
X+3380900Y+10184340D01*
X+4041300Y+10184340D02*
X+4315620Y+10184340D01*
X+3198020Y+10189420D02*
X+3385980Y+10189420D01*
X+4051460Y+10189420D02*
X+4320700Y+10189420D01*
X+3198020Y+10194500D02*
X+3396140Y+10194500D01*
X+4051460Y+10194500D02*
X+4330860Y+10194500D01*
X+3208180Y+10199580D02*
X+3406300Y+10199580D01*
X+4051460Y+10199580D02*
X+4341020Y+10199580D01*
X+3223420Y+10204660D02*
X+3411380Y+10204660D01*
X+4066700Y+10204660D02*
X+4346100Y+10204660D01*
X+3228500Y+10209740D02*
X+3421540Y+10209740D01*
X+4071780Y+10209740D02*
X+4356260Y+10209740D01*
X+3233580Y+10214820D02*
X+3421540Y+10214820D01*
X+4076860Y+10214820D02*
X+4356260Y+10214820D01*
X+3258980Y+10219900D02*
X+3426620Y+10219900D01*
X+4076860Y+10219900D02*
X+4361340Y+10219900D01*
X+3269140Y+10224980D02*
X+3436780Y+10224980D01*
X+4087020Y+10224980D02*
X+4366420Y+10224980D01*
X+3274220Y+10230060D02*
X+3446940Y+10230060D01*
X+4092100Y+10230060D02*
X+4381660Y+10230060D01*
X+3284380Y+10235140D02*
X+3452020Y+10235140D01*
X+4092100Y+10235140D02*
X+4386740Y+10235140D01*
X+3294540Y+10240220D02*
X+3462180Y+10240220D01*
X+4092100Y+10240220D02*
X+4391820Y+10240220D01*
X+3299620Y+10245300D02*
X+3487580Y+10245300D01*
X+4092100Y+10245300D02*
X+4391820Y+10245300D01*
X+3325020Y+10250380D02*
X+3507900Y+10250380D01*
X+4092100Y+10250380D02*
X+4401980Y+10250380D01*
X+3345340Y+10255460D02*
X+3512980Y+10255460D01*
X+4087020Y+10255460D02*
X+4396900Y+10255460D01*
X+3350420Y+10260540D02*
X+3563780Y+10260540D01*
X+3761900Y+10260540D02*
X+4391820Y+10260540D01*
X+3375820Y+10265620D02*
X+3634900Y+10265620D01*
X+3761900Y+10265620D02*
X+4381660Y+10265620D01*
X+3411380Y+10270700D02*
X+3639980Y+10270700D01*
X+3782220Y+10270700D02*
X+4346100Y+10270700D01*
X+3416460Y+10275780D02*
X+3650140Y+10275780D01*
X+3787300Y+10275780D02*
X+4341020Y+10275780D01*
X+3528220Y+10280860D02*
X+3538380Y+10280860D01*
D29*
X+603120Y+7560360D02*
X+2810760Y+7560360D01*
X+2810760Y+8604300D01*
X+603120Y+8604300D01*
X+603120Y+7560360D01*
D27*
X+1404600Y+8353320D02*
X+1385550Y+8335540D01*
X+1328400Y+8335540D01*
X+1290300Y+8371100D01*
X+1290300Y+8406660D01*
X+1328400Y+8442220D01*
X+1385550Y+8442220D01*
X+1404600Y+8424440D01*
X+1442700Y+8335540D02*
X+1442700Y+8406660D01*
X+1480800Y+8442220D01*
X+1518900Y+8442220D01*
X+1557000Y+8406660D01*
X+1557000Y+8335540D01*
X+1442700Y+8371100D02*
X+1557000Y+8371100D01*
X+1595100Y+8335540D02*
X+1595100Y+8442220D01*
X+1690350Y+8442220D01*
X+1709400Y+8424440D01*
X+1709400Y+8406660D01*
X+1690350Y+8388880D01*
X+1709400Y+8371100D01*
X+1709400Y+8353320D01*
X+1690350Y+8335540D01*
X+1595100Y+8335540D01*
X+1595100Y+8388880D02*
X+1690350Y+8388880D01*
X+1766550Y+8442220D02*
X+1842750Y+8442220D01*
X+1804650Y+8442220D02*
X+1804650Y+8335540D01*
X+1766550Y+8335540D02*
X+1842750Y+8335540D01*
X+1899900Y+8335540D02*
X+1899900Y+8442220D01*
X+2014200Y+8335540D01*
X+2014200Y+8442220D01*
X+2052300Y+8335540D02*
X+2052300Y+8406660D01*
X+2090400Y+8442220D01*
X+2128500Y+8442220D01*
X+2166600Y+8406660D01*
X+2166600Y+8335540D01*
X+2052300Y+8371100D02*
X+2166600Y+8371100D01*
X+743500Y+8065500D02*
X+743500Y+8172180D01*
X+857800Y+8172180D01*
X+743500Y+8118840D02*
X+819700Y+8118840D01*
X+895900Y+8172180D02*
X+895900Y+8065500D01*
X+1010200Y+8065500D01*
X+1048300Y+8172180D02*
X+1048300Y+8083280D01*
X+1067350Y+8065500D01*
X+1143550Y+8065500D01*
X+1162600Y+8083280D01*
X+1162600Y+8172180D01*
X+1200700Y+8101060D02*
X+1200700Y+8083280D01*
X+1219750Y+8065500D01*
X+1295950Y+8065500D01*
X+1315000Y+8083280D01*
X+1315000Y+8172180D01*
X+1353100Y+8136620D02*
X+1391200Y+8172180D01*
X+1429300Y+8172180D01*
X+1467400Y+8136620D01*
X+1467400Y+8101060D01*
X+1429300Y+8065500D01*
X+1391200Y+8065500D01*
X+1353100Y+8101060D01*
X+1353100Y+8136620D01*
X+1657900Y+8172180D02*
X+1657900Y+8065500D01*
X+1772200Y+8065500D01*
X+1810300Y+8065500D02*
X+1810300Y+8136620D01*
X+1848400Y+8172180D01*
X+1886500Y+8172180D01*
X+1924600Y+8136620D01*
X+1924600Y+8065500D01*
X+1810300Y+8101060D02*
X+1924600Y+8101060D01*
X+1962700Y+8065500D02*
X+1962700Y+8172180D01*
X+2019850Y+8118840D01*
X+2077000Y+8172180D01*
X+2077000Y+8065500D01*
X+2134150Y+8172180D02*
X+2210350Y+8172180D01*
X+2172250Y+8172180D02*
X+2172250Y+8065500D01*
X+2134150Y+8065500D02*
X+2210350Y+8065500D01*
X+2267500Y+8065500D02*
X+2267500Y+8172180D01*
X+2381800Y+8065500D01*
X+2381800Y+8172180D01*
X+2419900Y+8065500D02*
X+2419900Y+8136620D01*
X+2458000Y+8172180D01*
X+2496100Y+8172180D01*
X+2534200Y+8136620D01*
X+2534200Y+8065500D01*
X+2419900Y+8101060D02*
X+2534200Y+8101060D01*
X+2572300Y+8065500D02*
X+2572300Y+8172180D01*
X+2667550Y+8172180D01*
X+2686600Y+8154400D01*
X+2686600Y+8136620D01*
X+2667550Y+8118840D01*
X+2572300Y+8118840D01*
X+2667550Y+8118840D02*
X+2686600Y+8101060D01*
X+2686600Y+8065500D01*
X+1341585Y+7831980D02*
X+1363810Y+7852300D01*
X+1430485Y+7852300D01*
X+1452710Y+7831980D01*
X+1452710Y+7811660D01*
X+1430485Y+7791340D01*
X+1363810Y+7791340D01*
X+1341585Y+7771020D01*
X+1341585Y+7730380D01*
X+1452710Y+7730380D01*
X+1497160Y+7750700D02*
X+1497160Y+7831980D01*
X+1519385Y+7852300D01*
X+1608285Y+7852300D01*
X+1630510Y+7831980D01*
X+1630510Y+7750700D01*
X+1608285Y+7730380D01*
X+1519385Y+7730380D01*
X+1497160Y+7750700D01*
X+1497160Y+7730380D02*
X+1630510Y+7852300D01*
X+1719410Y+7811660D02*
X+1763860Y+7852300D01*
X+1763860Y+7730380D01*
X+1897210Y+7791340D02*
X+1874985Y+7811660D01*
X+1874985Y+7831980D01*
X+1897210Y+7852300D01*
X+1963885Y+7852300D01*
X+1986110Y+7831980D01*
X+1986110Y+7811660D01*
X+1963885Y+7791340D01*
X+1897210Y+7791340D01*
X+1874985Y+7771020D01*
X+1874985Y+7750700D01*
X+1897210Y+7730380D01*
X+1963885Y+7730380D01*
X+1986110Y+7750700D01*
X+1986110Y+7771020D01*
X+1963885Y+7791340D01*
X+3649180Y+4325020D02*
X+3648353Y+4345503D01*
X+3641635Y+4386470D01*
X+3627617Y+4427437D01*
X+3604839Y+4468404D01*
X+3570039Y+4509249D01*
X+3529072Y+4540865D01*
X+3488105Y+4561412D01*
X+3447138Y+4573649D01*
X+3406171Y+4578782D01*
X+3395180Y+4579020D01*
X+3141180Y+4325020D02*
X+3142007Y+4345503D01*
X+3148725Y+4386470D01*
X+3162743Y+4427437D01*
X+3185521Y+4468404D01*
X+3220321Y+4509249D01*
X+3261288Y+4540865D01*
X+3302255Y+4561412D01*
X+3343222Y+4573649D01*
X+3384189Y+4578782D01*
X+3395180Y+4579020D01*
X+3141180Y+4325020D02*
X+3142007Y+4304537D01*
X+3148725Y+4263570D01*
X+3162743Y+4222603D01*
X+3185521Y+4181636D01*
X+3220321Y+4140791D01*
X+3261288Y+4109175D01*
X+3302255Y+4088628D01*
X+3343222Y+4076391D01*
X+3384189Y+4071258D01*
X+3395180Y+4071020D01*
X+3649180Y+4325020D02*
X+3648353Y+4304537D01*
X+3641635Y+4263570D01*
X+3627617Y+4222603D01*
X+3604839Y+4181636D01*
X+3570039Y+4140791D01*
X+3529072Y+4109175D01*
X+3488105Y+4088628D01*
X+3447138Y+4076391D01*
X+3406171Y+4071258D01*
X+3395180Y+4071020D01*
X+3585680Y+4198020D02*
X+3458680Y+4198020D01*
X+3522180Y+4134520D02*
X+3522180Y+4261520D01*
X+3363430Y+3954180D02*
X+3347555Y+3938940D01*
X+3299930Y+3938940D01*
X+3268180Y+3969420D01*
X+3268180Y+3999900D01*
X+3299930Y+4030380D01*
X+3347555Y+4030380D01*
X+3363430Y+4015140D01*
X+3490430Y+4015140D02*
X+3474555Y+4030380D01*
X+3426930Y+4030380D01*
X+3411055Y+4015140D01*
X+3411055Y+3954180D01*
X+3426930Y+3938940D01*
X+3474555Y+3938940D01*
X+3490430Y+3954180D01*
X+3490430Y+3969420D01*
X+3474555Y+3984660D01*
X+3411055Y+3984660D01*
X+534700Y+6676100D02*
X+473740Y+6676100D01*
X+443260Y+6644350D01*
X+443260Y+6612600D01*
X+473740Y+6580850D01*
X+534700Y+6580850D01*
X+504220Y+6676100D02*
X+504220Y+6580850D01*
X+519460Y+6453850D02*
X+534700Y+6469725D01*
X+534700Y+6517350D01*
X+504220Y+6549100D01*
X+473740Y+6549100D01*
X+443260Y+6517350D01*
X+443260Y+6469725D01*
X+458500Y+6453850D01*
X+2624700Y+6676100D02*
X+2563740Y+6676100D01*
X+2533260Y+6644350D01*
X+2533260Y+6612600D01*
X+2563740Y+6580850D01*
X+2624700Y+6580850D01*
X+2594220Y+6676100D02*
X+2594220Y+6580850D01*
X+2609460Y+6453850D02*
X+2624700Y+6469725D01*
X+2624700Y+6517350D01*
X+2594220Y+6549100D01*
X+2563740Y+6549100D01*
X+2533260Y+6517350D01*
X+2533260Y+6469725D01*
X+2548500Y+6453850D01*
X+1243260Y+2886100D02*
X+1288980Y+2886100D01*
X+1334700Y+2838475D01*
X+1288980Y+2790850D01*
X+1243260Y+2790850D01*
X+1288980Y+2759100D02*
X+1273740Y+2743225D01*
X+1273740Y+2679725D01*
X+1288980Y+2663850D01*
X+1319460Y+2663850D01*
X+1334700Y+2679725D01*
X+1334700Y+2743225D01*
X+1319460Y+2759100D01*
X+1288980Y+2759100D01*
X+1288980Y+2632100D02*
X+1288980Y+2536850D01*
X+1258500Y+2584475D02*
X+1319460Y+2584475D01*
X+413260Y+2876100D02*
X+458980Y+2876100D01*
X+504700Y+2828475D01*
X+458980Y+2780850D01*
X+413260Y+2780850D01*
X+458980Y+2749100D02*
X+443740Y+2733225D01*
X+443740Y+2669725D01*
X+458980Y+2653850D01*
X+489460Y+2653850D01*
X+504700Y+2669725D01*
X+504700Y+2733225D01*
X+489460Y+2749100D01*
X+458980Y+2749100D01*
X+458980Y+2606225D02*
X+458980Y+2526850D01*
X+172760Y+1959360D02*
X+2892760Y+1959360D01*
X+2892760Y+7199360D01*
X+172760Y+7199360D01*
X+172760Y+1959360D01*
X+302260Y+7390000D02*
X+302260Y+7481440D01*
X+381635Y+7481440D01*
X+397510Y+7466200D01*
X+397510Y+7450960D01*
X+381635Y+7435720D01*
X+302260Y+7435720D01*
X+429260Y+7481440D02*
X+429260Y+7390000D01*
X+476885Y+7435720D01*
X+524510Y+7390000D01*
X+524510Y+7481440D01*
X+572135Y+7466200D02*
X+588010Y+7481440D01*
X+635635Y+7481440D01*
X+651510Y+7466200D01*
X+651510Y+7450960D01*
X+635635Y+7435720D01*
X+588010Y+7435720D01*
X+572135Y+7420480D01*
X+572135Y+7390000D01*
X+651510Y+7390000D01*
X+4380230Y+3628320D02*
X+4364355Y+3613080D01*
X+4316730Y+3613080D01*
X+4284980Y+3643560D01*
X+4284980Y+3674040D01*
X+4316730Y+3704520D01*
X+4364355Y+3704520D01*
X+4380230Y+3689280D01*
X+4411980Y+3613080D02*
X+4411980Y+3704520D01*
X+4507230Y+3704520D01*
X+4411980Y+3658800D02*
X+4475480Y+3658800D01*
X+4538980Y+3704520D02*
X+4538980Y+3613080D01*
X+4634230Y+3613080D01*
X+4888230Y+3628320D02*
X+4872355Y+3613080D01*
X+4824730Y+3613080D01*
X+4792980Y+3643560D01*
X+4792980Y+3674040D01*
X+4824730Y+3704520D01*
X+4872355Y+3704520D01*
X+4888230Y+3689280D01*
X+4919980Y+3674040D02*
X+4951730Y+3704520D01*
X+4983480Y+3704520D01*
X+5015230Y+3674040D01*
X+5015230Y+3643560D01*
X+4983480Y+3613080D01*
X+4951730Y+3613080D01*
X+4919980Y+3643560D01*
X+4919980Y+3674040D01*
X+5046980Y+3613080D02*
X+5046980Y+3704520D01*
X+5142230Y+3613080D01*
X+5142230Y+3704520D01*
X+5173980Y+3704520D02*
X+5269230Y+3704520D01*
X+5221605Y+3704520D02*
X+5221605Y+3613080D01*
X+5300980Y+3613080D02*
X+5300980Y+3704520D01*
X+5380355Y+3704520D01*
X+5396230Y+3689280D01*
X+5396230Y+3674040D01*
X+5380355Y+3658800D01*
X+5300980Y+3658800D01*
X+5380355Y+3658800D02*
X+5396230Y+3643560D01*
X+5396230Y+3613080D01*
X+5427980Y+3674040D02*
X+5459730Y+3704520D01*
X+5491480Y+3704520D01*
X+5523230Y+3674040D01*
X+5523230Y+3643560D01*
X+5491480Y+3613080D01*
X+5459730Y+3613080D01*
X+5427980Y+3643560D01*
X+5427980Y+3674040D01*
X+5554980Y+3704520D02*
X+5554980Y+3613080D01*
X+5650230Y+3613080D01*
X+5681980Y+3704520D02*
X+5681980Y+3613080D01*
X+5777230Y+3613080D01*
X+5904230Y+3613080D02*
X+5808980Y+3613080D01*
X+5808980Y+3704520D01*
X+5904230Y+3704520D01*
X+5808980Y+3658800D02*
X+5872480Y+3658800D01*
X+5935980Y+3613080D02*
X+5935980Y+3704520D01*
X+6015355Y+3704520D01*
X+6031230Y+3689280D01*
X+6031230Y+3674040D01*
X+6015355Y+3658800D01*
X+5935980Y+3658800D01*
X+6015355Y+3658800D02*
X+6031230Y+3643560D01*
X+6031230Y+3613080D01*
X+5867400Y+1676950D02*
X+5867400Y+1768390D01*
X+5946775Y+1768390D01*
X+5962650Y+1753150D01*
X+5962650Y+1737910D01*
X+5946775Y+1722670D01*
X+5962650Y+1707430D01*
X+5962650Y+1692190D01*
X+5946775Y+1676950D01*
X+5867400Y+1676950D01*
X+5867400Y+1722670D02*
X+5946775Y+1722670D01*
X+5994400Y+1737910D02*
X+6026150Y+1768390D01*
X+6057900Y+1768390D01*
X+6089650Y+1737910D01*
X+6089650Y+1707430D01*
X+6057900Y+1676950D01*
X+6026150Y+1676950D01*
X+5994400Y+1707430D01*
X+5994400Y+1737910D01*
X+6121400Y+1768390D02*
X+6216650Y+1768390D01*
X+6169025Y+1768390D02*
X+6169025Y+1676950D01*
X+6248400Y+1737910D02*
X+6280150Y+1768390D01*
X+6311900Y+1768390D01*
X+6343650Y+1737910D01*
X+6343650Y+1707430D01*
X+6311900Y+1676950D01*
X+6280150Y+1676950D01*
X+6248400Y+1707430D01*
X+6248400Y+1737910D01*
X+6375400Y+1676950D02*
X+6375400Y+1768390D01*
X+6470650Y+1676950D01*
X+6470650Y+1768390D01*
X+6597650Y+1676950D02*
X+6502400Y+1676950D01*
X+6502400Y+1768390D01*
X+6597650Y+1768390D01*
X+6502400Y+1722670D02*
X+6565900Y+1722670D01*
X+6629400Y+1692190D02*
X+6645275Y+1676950D01*
X+6708775Y+1676950D01*
X+6724650Y+1692190D01*
X+6724650Y+1707430D01*
X+6708775Y+1722670D01*
X+6645275Y+1722670D01*
X+6629400Y+1737910D01*
X+6629400Y+1753150D01*
X+6645275Y+1768390D01*
X+6708775Y+1768390D01*
X+6724650Y+1753150D01*
X+5368960Y+2616600D02*
X+5368960Y+2540400D01*
X+5384835Y+2525160D01*
X+5448335Y+2525160D01*
X+5464210Y+2540400D01*
X+5464210Y+2616600D01*
X+5622960Y+2525160D02*
X+5622960Y+2616600D01*
X+5686460Y+2616600D01*
X+5718210Y+2586120D01*
X+5718210Y+2555640D01*
X+5686460Y+2525160D01*
X+5622960Y+2525160D01*
X+5876960Y+2525160D02*
X+5876960Y+2616600D01*
X+5956335Y+2616600D01*
X+5972210Y+2601360D01*
X+5972210Y+2586120D01*
X+5956335Y+2570880D01*
X+5876960Y+2570880D01*
X+5956335Y+2570880D02*
X+5972210Y+2555640D01*
X+5972210Y+2525160D01*
X+6130960Y+2616600D02*
X+6130960Y+2525160D01*
X+6226210Y+2525160D01*
X+6400835Y+2570880D02*
X+6480210Y+2570880D01*
X+6654835Y+2570880D02*
X+6734210Y+2570880D01*
X+6908835Y+2570880D02*
X+6988210Y+2570880D01*
X+7162835Y+2570880D02*
X+7242210Y+2570880D01*
X+1452880Y+1370260D02*
X+1452880Y+1461700D01*
X+1532255Y+1461700D01*
X+1548130Y+1446460D01*
X+1548130Y+1431220D01*
X+1532255Y+1415980D01*
X+1452880Y+1415980D01*
X+1579880Y+1370260D02*
X+1579880Y+1461700D01*
X+1659255Y+1461700D01*
X+1675130Y+1446460D01*
X+1675130Y+1431220D01*
X+1659255Y+1415980D01*
X+1579880Y+1415980D01*
X+1659255Y+1415980D02*
X+1675130Y+1400740D01*
X+1675130Y+1370260D01*
X+1802130Y+1370260D02*
X+1706880Y+1370260D01*
X+1706880Y+1461700D01*
X+1802130Y+1461700D01*
X+1706880Y+1415980D02*
X+1770380Y+1415980D01*
X+1833880Y+1385500D02*
X+1849755Y+1370260D01*
X+1913255Y+1370260D01*
X+1929130Y+1385500D01*
X+1929130Y+1400740D01*
X+1913255Y+1415980D01*
X+1849755Y+1415980D01*
X+1833880Y+1431220D01*
X+1833880Y+1446460D01*
X+1849755Y+1461700D01*
X+1913255Y+1461700D01*
X+1929130Y+1446460D01*
X+1976755Y+1461700D02*
X+2040255Y+1461700D01*
X+2008505Y+1461700D02*
X+2008505Y+1370260D01*
X+1976755Y+1370260D02*
X+2040255Y+1370260D01*
X+2087880Y+1431220D02*
X+2119630Y+1461700D01*
X+2151380Y+1461700D01*
X+2183130Y+1431220D01*
X+2183130Y+1400740D01*
X+2151380Y+1370260D01*
X+2119630Y+1370260D01*
X+2087880Y+1400740D01*
X+2087880Y+1431220D01*
X+2214880Y+1370260D02*
X+2214880Y+1461700D01*
X+2310130Y+1370260D01*
X+2310130Y+1461700D01*
X+1513840Y+1078160D02*
X+1513840Y+1169600D01*
X+1609090Y+1169600D01*
X+1513840Y+1123880D02*
X+1577340Y+1123880D01*
X+1656715Y+1169600D02*
X+1720215Y+1169600D01*
X+1688465Y+1169600D02*
X+1688465Y+1078160D01*
X+1656715Y+1078160D02*
X+1720215Y+1078160D01*
X+1767840Y+1169600D02*
X+1767840Y+1078160D01*
X+1863090Y+1078160D01*
X+1894840Y+1169600D02*
X+1990090Y+1169600D01*
X+1942465Y+1169600D02*
X+1942465Y+1078160D01*
X+2021840Y+1078160D02*
X+2021840Y+1169600D01*
X+2101215Y+1169600D01*
X+2117090Y+1154360D01*
X+2117090Y+1139120D01*
X+2101215Y+1123880D01*
X+2021840Y+1123880D01*
X+2101215Y+1123880D02*
X+2117090Y+1108640D01*
X+2117090Y+1078160D01*
X+2148840Y+1139120D02*
X+2180590Y+1169600D01*
X+2212340Y+1169600D01*
X+2244090Y+1139120D01*
X+2244090Y+1108640D01*
X+2212340Y+1078160D01*
X+2180590Y+1078160D01*
X+2148840Y+1108640D01*
X+2148840Y+1139120D01*
X+7029450Y+4855140D02*
X+7061200Y+4885620D01*
X+7061200Y+4794180D01*
X+3244850Y+4855140D02*
X+3276600Y+4885620D01*
X+3276600Y+4794180D01*
X+3435350Y+4870380D02*
X+3419475Y+4885620D01*
X+3371850Y+4885620D01*
X+3355975Y+4870380D01*
X+3355975Y+4809420D01*
X+3371850Y+4794180D01*
X+3419475Y+4794180D01*
X+3435350Y+4809420D01*
X+3435350Y+4824660D01*
X+3419475Y+4839900D01*
X+3355975Y+4839900D01*
X+6299650Y+4622580D02*
X+6283775Y+4607340D01*
X+6236150Y+4607340D01*
X+6204400Y+4637820D01*
X+6204400Y+4668300D01*
X+6236150Y+4698780D01*
X+6283775Y+4698780D01*
X+6299650Y+4683540D01*
X+6331400Y+4668300D02*
X+6363150Y+4698780D01*
X+6394900Y+4698780D01*
X+6426650Y+4668300D01*
X+6426650Y+4637820D01*
X+6394900Y+4607340D01*
X+6363150Y+4607340D01*
X+6331400Y+4637820D01*
X+6331400Y+4668300D01*
X+6458400Y+4607340D02*
X+6458400Y+4698780D01*
X+6553650Y+4607340D01*
X+6553650Y+4698780D01*
X+6585400Y+4698780D02*
X+6680650Y+4698780D01*
X+6633025Y+4698780D02*
X+6633025Y+4607340D01*
X+6712400Y+4607340D02*
X+6712400Y+4698780D01*
X+6791775Y+4698780D01*
X+6807650Y+4683540D01*
X+6807650Y+4668300D01*
X+6791775Y+4653060D01*
X+6712400Y+4653060D01*
X+6791775Y+4653060D02*
X+6807650Y+4637820D01*
X+6807650Y+4607340D01*
X+6839400Y+4607340D02*
X+6839400Y+4668300D01*
X+6871150Y+4698780D01*
X+6902900Y+4698780D01*
X+6934650Y+4668300D01*
X+6934650Y+4607340D01*
X+6839400Y+4637820D02*
X+6934650Y+4637820D01*
X+6966400Y+4622580D02*
X+6982275Y+4607340D01*
X+7045775Y+4607340D01*
X+7061650Y+4622580D01*
X+7061650Y+4637820D01*
X+7045775Y+4653060D01*
X+6982275Y+4653060D01*
X+6966400Y+4668300D01*
X+6966400Y+4683540D01*
X+6982275Y+4698780D01*
X+7045775Y+4698780D01*
X+7061650Y+4683540D01*
X+7093400Y+4698780D02*
X+7188650Y+4698780D01*
X+7141025Y+4698780D02*
X+7141025Y+4607340D01*
X+7315650Y+4607340D02*
X+7220400Y+4607340D01*
X+7220400Y+4698780D01*
X+7315650Y+4698780D01*
X+7220400Y+4653060D02*
X+7283900Y+4653060D01*
X+890000Y+8861920D02*
X+890000Y+8770480D01*
X+985250Y+8770480D01*
X+1398000Y+8770480D02*
X+1398000Y+8861920D01*
X+1493250Y+8770480D01*
X+1493250Y+8861920D01*
X+11992340Y+9111520D02*
X+12083780Y+9111520D01*
X+11992340Y+9016270D01*
X+12083780Y+9016270D01*
X+12083780Y+8730520D02*
X+12038060Y+8730520D01*
X+11992340Y+8682895D01*
X+12038060Y+8635270D01*
X+12083780Y+8635270D01*
X+11992340Y+8508270D02*
X+11992340Y+8603520D01*
X+12083780Y+8603520D01*
X+12083780Y+8508270D01*
X+12038060Y+8603520D02*
X+12038060Y+8540020D01*
X+12083780Y+8476520D02*
X+11992340Y+8476520D01*
X+11992340Y+8381270D01*
X+12068540Y+8333645D02*
X+12083780Y+8317770D01*
X+12083780Y+8270145D01*
X+12068540Y+8254270D01*
X+12053300Y+8254270D01*
X+12038060Y+8270145D01*
X+12038060Y+8317770D01*
X+12022820Y+8333645D01*
X+11992340Y+8333645D01*
X+11992340Y+8254270D01*
X+12083780Y+8095520D02*
X+12038060Y+8095520D01*
X+11992340Y+8047895D01*
X+12038060Y+8000270D01*
X+12083780Y+8000270D01*
X+11992340Y+7873270D02*
X+11992340Y+7968520D01*
X+12083780Y+7968520D01*
X+12083780Y+7873270D01*
X+12038060Y+7968520D02*
X+12038060Y+7905020D01*
X+12083780Y+7841520D02*
X+11992340Y+7841520D01*
X+11992340Y+7746270D01*
X+12053300Y+7682770D02*
X+12083780Y+7651020D01*
X+11992340Y+7651020D01*
X+8696960Y+1883340D02*
X+8696960Y+1375340D01*
X+8862060Y+1959540D02*
X+8823762Y+1954778D01*
X+8784272Y+1940490D01*
X+8742402Y+1916678D01*
X+8696960Y+1883340D01*
X+8862060Y+1959540D02*
X+8926978Y+1956909D01*
X+8987013Y+1940428D01*
X+9041002Y+1911501D01*
X+9087782Y+1871533D01*
X+9126191Y+1821928D01*
X+9155065Y+1764091D01*
X+9173242Y+1699427D01*
X+9179560Y+1629340D01*
X+8862060Y+1299140D02*
X+8823762Y+1303902D01*
X+8784272Y+1318190D01*
X+8742402Y+1342002D01*
X+8696960Y+1375340D01*
X+8862060Y+1299140D02*
X+8926978Y+1301771D01*
X+8987013Y+1318252D01*
X+9041002Y+1347179D01*
X+9087782Y+1387147D01*
X+9126191Y+1436752D01*
X+9155065Y+1494589D01*
X+9173242Y+1559253D01*
X+9179560Y+1629340D01*
X+8562340Y+1271200D02*
X+8531860Y+1302950D01*
X+8531860Y+1334700D01*
X+8562340Y+1366450D01*
X+8592820Y+1366450D01*
X+8623300Y+1334700D01*
X+8623300Y+1302950D01*
X+8592820Y+1271200D01*
X+8562340Y+1271200D01*
X+8592820Y+1334700D02*
X+8623300Y+1366450D01*
X+8562340Y+1429950D02*
X+8531860Y+1461700D01*
X+8623300Y+1461700D01*
X+8544560Y+2381060D02*
X+8544560Y+2254060D01*
X+8481060Y+1746060D02*
X+8608060Y+1746060D01*
X+8608060Y+2254060D01*
X+8481060Y+2254060D01*
X+8481060Y+1746060D01*
X+8544560Y+1746060D02*
X+8544560Y+1619060D01*
X+8425180Y+1885760D02*
X+8333740Y+1885760D01*
X+8333740Y+1965135D01*
X+8348980Y+1981010D01*
X+8364220Y+1981010D01*
X+8379460Y+1965135D01*
X+8379460Y+1885760D01*
X+8379460Y+1965135D02*
X+8394700Y+1981010D01*
X+8425180Y+1981010D01*
X+8364220Y+2108010D02*
X+8379460Y+2092135D01*
X+8379460Y+2044510D01*
X+8364220Y+2028635D01*
X+8348980Y+2028635D01*
X+8333740Y+2044510D01*
X+8333740Y+2092135D01*
X+8348980Y+2108010D01*
X+8409940Y+2108010D01*
X+8425180Y+2092135D01*
X+8425180Y+2044510D01*
X+3720780Y+2418880D02*
X+3719953Y+2439363D01*
X+3713235Y+2480330D01*
X+3699217Y+2521297D01*
X+3676439Y+2562264D01*
X+3641639Y+2603109D01*
X+3600672Y+2634725D01*
X+3559705Y+2655272D01*
X+3518738Y+2667509D01*
X+3477771Y+2672642D01*
X+3466780Y+2672880D01*
X+3212780Y+2418880D02*
X+3213607Y+2439363D01*
X+3220325Y+2480330D01*
X+3234343Y+2521297D01*
X+3257121Y+2562264D01*
X+3291921Y+2603109D01*
X+3332888Y+2634725D01*
X+3373855Y+2655272D01*
X+3414822Y+2667509D01*
X+3455789Y+2672642D01*
X+3466780Y+2672880D01*
X+3212780Y+2418880D02*
X+3213607Y+2398397D01*
X+3220325Y+2357430D01*
X+3234343Y+2316463D01*
X+3257121Y+2275496D01*
X+3291921Y+2234651D01*
X+3332888Y+2203035D01*
X+3373855Y+2182488D01*
X+3414822Y+2170251D01*
X+3455789Y+2165118D01*
X+3466780Y+2164880D01*
X+3720780Y+2418880D02*
X+3719953Y+2398397D01*
X+3713235Y+2357430D01*
X+3699217Y+2316463D01*
X+3676439Y+2275496D01*
X+3641639Y+2234651D01*
X+3600672Y+2203035D01*
X+3559705Y+2182488D01*
X+3518738Y+2170251D01*
X+3477771Y+2165118D01*
X+3466780Y+2164880D01*
X+3149280Y+2672880D02*
X+3276280Y+2672880D01*
X+3212780Y+2736380D02*
X+3212780Y+2609380D01*
X+3366450Y+2741460D02*
X+3366450Y+2832900D01*
X+3429950Y+2832900D01*
X+3461700Y+2802420D01*
X+3461700Y+2771940D01*
X+3429950Y+2741460D01*
X+3366450Y+2741460D01*
X+3525200Y+2802420D02*
X+3556950Y+2832900D01*
X+3556950Y+2741460D01*
X+5932175Y+5910000D02*
X+6059175Y+5910000D01*
X+6059175Y+5846500D02*
X+6567175Y+5846500D01*
X+6567175Y+5973500D01*
X+6059175Y+5973500D01*
X+6059175Y+5846500D01*
X+6567175Y+5910000D02*
X+6694175Y+5910000D01*
X+6052675Y+5684140D02*
X+6052675Y+5775580D01*
X+6132050Y+5775580D01*
X+6147925Y+5760340D01*
X+6147925Y+5745100D01*
X+6132050Y+5729860D01*
X+6052675Y+5729860D01*
X+6132050Y+5729860D02*
X+6147925Y+5714620D01*
X+6147925Y+5684140D01*
X+6211425Y+5745100D02*
X+6243175Y+5775580D01*
X+6243175Y+5684140D01*
X+6338425Y+5745100D02*
X+6370175Y+5775580D01*
X+6370175Y+5684140D01*
X+12302000Y+7630000D02*
X+13318000Y+7630000D01*
X+12302000Y+9154000D02*
X+13318000Y+9154000D01*
X+13318000Y+7630000D02*
X+13318000Y+9154000D01*
X+12302000Y+9154000D02*
X+12302000Y+7630000D01*
X+13270880Y+9245000D02*
X+13286120Y+9245000D01*
X+13301360Y+9260875D01*
X+13301360Y+9324375D01*
X+13286120Y+9340250D01*
X+13209920Y+9340250D01*
X+13225160Y+9387875D02*
X+13209920Y+9403750D01*
X+13209920Y+9451375D01*
X+13225160Y+9467250D01*
X+13240400Y+9467250D01*
X+13255640Y+9451375D01*
X+13270880Y+9467250D01*
X+13286120Y+9467250D01*
X+13301360Y+9451375D01*
X+13301360Y+9403750D01*
X+13286120Y+9387875D01*
X+13255640Y+9419625D02*
X+13255640Y+9451375D01*
X+3091649Y+122780D02*
X+2984969Y+122780D01*
X+2984969Y+198980D01*
X+3020529Y+237080D01*
X+3056089Y+237080D01*
X+3091649Y+198980D01*
X+3091649Y+122780D01*
X+2984969Y+294230D02*
X+2984969Y+370430D01*
X+2984969Y+332330D02*
X+3091649Y+332330D01*
X+3091649Y+294230D02*
X+3091649Y+370430D01*
X+3091649Y+541880D02*
X+3091649Y+427580D01*
X+2984969Y+427580D01*
X+2984969Y+541880D01*
X+3038309Y+427580D02*
X+3038309Y+503780D01*
X+2984969Y+579980D02*
X+3091649Y+579980D01*
X+3091649Y+694280D01*
X+3091649Y+846680D02*
X+3091649Y+732380D01*
X+2984969Y+732380D01*
X+2984969Y+846680D01*
X+3038309Y+732380D02*
X+3038309Y+808580D01*
X+3073869Y+999080D02*
X+3091649Y+980030D01*
X+3091649Y+922880D01*
X+3056089Y+884780D01*
X+3020529Y+884780D01*
X+2984969Y+922880D01*
X+2984969Y+980030D01*
X+3002749Y+999080D01*
X+3038309Y+1056230D02*
X+3038309Y+1151480D01*
X+3073869Y+1303880D02*
X+3091649Y+1284830D01*
X+3091649Y+1227680D01*
X+3056089Y+1189580D01*
X+3020529Y+1189580D01*
X+2984969Y+1227680D01*
X+2984969Y+1284830D01*
X+3002749Y+1303880D01*
X+3091649Y+1341980D02*
X+2984969Y+1341980D01*
X+2984969Y+1456280D01*
X+3038309Y+1341980D02*
X+3038309Y+1418180D01*
X+2984969Y+1494380D02*
X+3091649Y+1494380D01*
X+3091649Y+1608680D01*
X+3091649Y+1646780D02*
X+2984969Y+1646780D01*
X+2984969Y+1761080D02*
X+3091649Y+1761080D01*
X+3038309Y+1646780D02*
X+3038309Y+1761080D01*
X+3038309Y+1818230D02*
X+3038309Y+1913480D01*
X+2984969Y+1951580D02*
X+3038309Y+1951580D01*
X+3091649Y+2008730D01*
X+3038309Y+2065880D01*
X+2984969Y+2065880D01*
X+3073869Y+2103980D02*
X+3002749Y+2103980D01*
X+2984969Y+2123030D01*
X+2984969Y+2199230D01*
X+3002749Y+2218280D01*
X+3073869Y+2218280D01*
X+3091649Y+2199230D01*
X+3091649Y+2123030D01*
X+3073869Y+2103980D01*
X+3091649Y+2103980D02*
X+2984969Y+2218280D01*
X+3073869Y+2256380D02*
X+3002749Y+2256380D01*
X+2984969Y+2275430D01*
X+2984969Y+2351630D01*
X+3002749Y+2370680D01*
X+3073869Y+2370680D01*
X+3091649Y+2351630D01*
X+3091649Y+2275430D01*
X+3073869Y+2256380D01*
X+3091649Y+2256380D02*
X+2984969Y+2370680D01*
X+3020529Y+2446880D02*
X+2984969Y+2484980D01*
X+3091649Y+2484980D01*
X+3002749Y+2580230D02*
X+2984969Y+2599280D01*
X+2984969Y+2656430D01*
X+3002749Y+2675480D01*
X+3020529Y+2675480D01*
X+3038309Y+2656430D01*
X+3056089Y+2675480D01*
X+3073869Y+2675480D01*
X+3091649Y+2656430D01*
X+3091649Y+2599280D01*
X+3073869Y+2580230D01*
X+3038309Y+2618330D02*
X+3038309Y+2656430D01*
D28*
X+11468860Y+9305967D02*
X+12007340Y+9305967D01*
X+11468860Y+9311047D02*
X+12012420Y+9311047D01*
X+11463780Y+9316127D02*
X+12017500Y+9316127D01*
X+11463780Y+9321207D02*
X+12017500Y+9321207D01*
X+11453620Y+9326287D02*
X+12027660Y+9326287D01*
X+11377420Y+9331367D02*
X+12098780Y+9331367D01*
X+11372340Y+9336447D02*
X+12103860Y+9336447D01*
X+11372340Y+9341527D02*
X+12108940Y+9341527D01*
X+11372340Y+9346607D02*
X+12108940Y+9346607D01*
X+11362180Y+9351687D02*
X+12119100Y+9351687D01*
X+11352020Y+9356767D02*
X+12129260Y+9356767D01*
X+11346940Y+9361847D02*
X+12134340Y+9361847D01*
X+11341860Y+9366927D02*
X+12139420Y+9366927D01*
X+11341860Y+9372007D02*
X+12139420Y+9372007D01*
X+11336780Y+9377087D02*
X+12144500Y+9377087D01*
X+11326620Y+9382167D02*
X+12154660Y+9382167D01*
X+11316460Y+9387247D02*
X+12164820Y+9387247D01*
X+11311380Y+9392327D02*
X+12169900Y+9392327D01*
X+11311380Y+9397407D02*
X+12169900Y+9397407D01*
X+11311380Y+9402487D02*
X+12169900Y+9402487D01*
X+11311380Y+9407567D02*
X+12169900Y+9407567D01*
X+11311380Y+9412647D02*
X+12169900Y+9412647D01*
X+11311380Y+9417727D02*
X+12169900Y+9417727D01*
X+11311380Y+9422807D02*
X+12169900Y+9422807D01*
X+11311380Y+9427887D02*
X+12174980Y+9427887D01*
X+11311380Y+9432967D02*
X+12180060Y+9432967D01*
X+11311380Y+9438047D02*
X+12190220Y+9438047D01*
X+11311380Y+9443127D02*
X+12200380Y+9443127D01*
X+11311380Y+9448207D02*
X+12200380Y+9448207D01*
X+11306300Y+9453287D02*
X+12200380Y+9453287D01*
X+11301220Y+9458367D02*
X+12200380Y+9458367D01*
X+11291060Y+9463447D02*
X+12200380Y+9463447D01*
X+11285980Y+9468527D02*
X+12200380Y+9468527D01*
X+11280900Y+9473607D02*
X+12200380Y+9473607D01*
X+11280900Y+9478687D02*
X+12200380Y+9478687D01*
X+11280900Y+9483767D02*
X+12200380Y+9483767D01*
X+11280900Y+9488847D02*
X+12200380Y+9488847D01*
X+11280900Y+9493927D02*
X+12200380Y+9493927D01*
X+11280900Y+9499007D02*
X+12200380Y+9499007D01*
X+11280900Y+9504087D02*
X+12200380Y+9504087D01*
X+11280900Y+9509167D02*
X+12200380Y+9509167D01*
X+11280900Y+9514247D02*
X+12200380Y+9514247D01*
X+11280900Y+9519327D02*
X+12200380Y+9519327D01*
X+11280900Y+9524407D02*
X+12200380Y+9524407D01*
X+11280900Y+9529487D02*
X+12200380Y+9529487D01*
X+11280900Y+9534567D02*
X+11433300Y+9534567D01*
X+11580620Y+9534567D02*
X+11809220Y+9534567D01*
X+12012420Y+9534567D02*
X+12200380Y+9534567D01*
X+11280900Y+9539647D02*
X+11428220Y+9539647D01*
X+11585700Y+9539647D02*
X+11799060Y+9539647D01*
X+12022580Y+9539647D02*
X+12200380Y+9539647D01*
X+11280900Y+9544727D02*
X+11423140Y+9544727D01*
X+11590780Y+9544727D02*
X+11799060Y+9544727D01*
X+12027660Y+9544727D02*
X+12200380Y+9544727D01*
X+11280900Y+9549807D02*
X+11423140Y+9549807D01*
X+11590780Y+9549807D02*
X+11793980Y+9549807D01*
X+12027660Y+9549807D02*
X+12200380Y+9549807D01*
X+11280900Y+9554887D02*
X+11423140Y+9554887D01*
X+11595860Y+9554887D02*
X+11793980Y+9554887D01*
X+12027660Y+9554887D02*
X+12200380Y+9554887D01*
X+11280900Y+9559967D02*
X+11423140Y+9559967D01*
X+11666980Y+9559967D02*
X+11793980Y+9559967D01*
X+12027660Y+9559967D02*
X+12200380Y+9559967D01*
X+11280900Y+9565047D02*
X+11423140Y+9565047D01*
X+11677140Y+9565047D02*
X+11793980Y+9565047D01*
X+12027660Y+9565047D02*
X+12200380Y+9565047D01*
X+11280900Y+9570127D02*
X+11423140Y+9570127D01*
X+11682220Y+9570127D02*
X+11793980Y+9570127D01*
X+12027660Y+9570127D02*
X+12200380Y+9570127D01*
X+11280900Y+9575207D02*
X+11423140Y+9575207D01*
X+11687300Y+9575207D02*
X+11793980Y+9575207D01*
X+12027660Y+9575207D02*
X+12200380Y+9575207D01*
X+11280900Y+9580287D02*
X+11423140Y+9580287D01*
X+11687300Y+9580287D02*
X+11793980Y+9580287D01*
X+12027660Y+9580287D02*
X+12200380Y+9580287D01*
X+11280900Y+9585367D02*
X+11423140Y+9585367D01*
X+11692380Y+9585367D02*
X+11793980Y+9585367D01*
X+12027660Y+9585367D02*
X+12200380Y+9585367D01*
X+11280900Y+9590447D02*
X+11423140Y+9590447D01*
X+11707620Y+9590447D02*
X+11793980Y+9590447D01*
X+12022580Y+9590447D02*
X+12200380Y+9590447D01*
X+11280900Y+9595527D02*
X+11423140Y+9595527D01*
X+11712700Y+9595527D02*
X+11793980Y+9595527D01*
X+12017500Y+9595527D02*
X+12200380Y+9595527D01*
X+11280900Y+9600607D02*
X+11423140Y+9600607D01*
X+11473940Y+9600607D02*
X+11631420Y+9600607D01*
X+11712700Y+9600607D02*
X+11793980Y+9600607D01*
X+11849860Y+9600607D02*
X+12200380Y+9600607D01*
X+11280900Y+9605687D02*
X+11423140Y+9605687D01*
X+11468860Y+9605687D02*
X+11636500Y+9605687D01*
X+11717780Y+9605687D02*
X+11793980Y+9605687D01*
X+11839700Y+9605687D02*
X+12200380Y+9605687D01*
X+11280900Y+9610767D02*
X+11423140Y+9610767D01*
X+11468860Y+9610767D02*
X+11641580Y+9610767D01*
X+11717780Y+9610767D02*
X+11793980Y+9610767D01*
X+11839700Y+9610767D02*
X+12200380Y+9610767D01*
X+11280900Y+9615847D02*
X+11423140Y+9615847D01*
X+11468860Y+9615847D02*
X+11641580Y+9615847D01*
X+11717780Y+9615847D02*
X+11793980Y+9615847D01*
X+11839700Y+9615847D02*
X+12200380Y+9615847D01*
X+11280900Y+9620927D02*
X+11423140Y+9620927D01*
X+11468860Y+9620927D02*
X+11646660Y+9620927D01*
X+11717780Y+9620927D02*
X+11793980Y+9620927D01*
X+11839700Y+9620927D02*
X+12200380Y+9620927D01*
X+11280900Y+9626007D02*
X+11423140Y+9626007D01*
X+11468860Y+9626007D02*
X+11661900Y+9626007D01*
X+11717780Y+9626007D02*
X+11793980Y+9626007D01*
X+11839700Y+9626007D02*
X+12200380Y+9626007D01*
X+11280900Y+9631087D02*
X+11423140Y+9631087D01*
X+11468860Y+9631087D02*
X+11666980Y+9631087D01*
X+11717780Y+9631087D02*
X+11793980Y+9631087D01*
X+11839700Y+9631087D02*
X+12200380Y+9631087D01*
X+11280900Y+9636167D02*
X+11423140Y+9636167D01*
X+11468860Y+9636167D02*
X+11672060Y+9636167D01*
X+11717780Y+9636167D02*
X+11793980Y+9636167D01*
X+11839700Y+9636167D02*
X+12200380Y+9636167D01*
X+11280900Y+9641247D02*
X+11423140Y+9641247D01*
X+11468860Y+9641247D02*
X+11672060Y+9641247D01*
X+11733020Y+9641247D02*
X+11793980Y+9641247D01*
X+11839700Y+9641247D02*
X+12200380Y+9641247D01*
X+11280900Y+9646327D02*
X+11423140Y+9646327D01*
X+11468860Y+9646327D02*
X+11672060Y+9646327D01*
X+11738100Y+9646327D02*
X+11793980Y+9646327D01*
X+11839700Y+9646327D02*
X+12200380Y+9646327D01*
X+11280900Y+9651407D02*
X+11423140Y+9651407D01*
X+11468860Y+9651407D02*
X+11672060Y+9651407D01*
X+11743180Y+9651407D02*
X+11793980Y+9651407D01*
X+11839700Y+9651407D02*
X+12200380Y+9651407D01*
X+11280900Y+9656487D02*
X+11423140Y+9656487D01*
X+11468860Y+9656487D02*
X+11672060Y+9656487D01*
X+11748260Y+9656487D02*
X+11793980Y+9656487D01*
X+11839700Y+9656487D02*
X+12200380Y+9656487D01*
X+11280900Y+9661567D02*
X+11423140Y+9661567D01*
X+11468860Y+9661567D02*
X+11672060Y+9661567D01*
X+11748260Y+9661567D02*
X+11793980Y+9661567D01*
X+11839700Y+9661567D02*
X+12200380Y+9661567D01*
X+11280900Y+9666647D02*
X+11423140Y+9666647D01*
X+11468860Y+9666647D02*
X+11672060Y+9666647D01*
X+11748260Y+9666647D02*
X+11793980Y+9666647D01*
X+11839700Y+9666647D02*
X+12200380Y+9666647D01*
X+11280900Y+9671727D02*
X+11423140Y+9671727D01*
X+11468860Y+9671727D02*
X+11677140Y+9671727D01*
X+11748260Y+9671727D02*
X+11793980Y+9671727D01*
X+11839700Y+9671727D02*
X+12200380Y+9671727D01*
X+11280900Y+9676807D02*
X+11423140Y+9676807D01*
X+11468860Y+9676807D02*
X+11682220Y+9676807D01*
X+11748260Y+9676807D02*
X+11793980Y+9676807D01*
X+11839700Y+9676807D02*
X+12200380Y+9676807D01*
X+11280900Y+9681887D02*
X+11423140Y+9681887D01*
X+11468860Y+9681887D02*
X+11697460Y+9681887D01*
X+11748260Y+9681887D02*
X+11793980Y+9681887D01*
X+11839700Y+9681887D02*
X+12200380Y+9681887D01*
X+11280900Y+9686967D02*
X+11423140Y+9686967D01*
X+11468860Y+9686967D02*
X+11702540Y+9686967D01*
X+11748260Y+9686967D02*
X+11793980Y+9686967D01*
X+11839700Y+9686967D02*
X+12200380Y+9686967D01*
X+11280900Y+9692047D02*
X+11423140Y+9692047D01*
X+11468860Y+9692047D02*
X+11702540Y+9692047D01*
X+11748260Y+9692047D02*
X+11793980Y+9692047D01*
X+11844780Y+9692047D02*
X+12200380Y+9692047D01*
X+11280900Y+9697127D02*
X+11423140Y+9697127D01*
X+11468860Y+9697127D02*
X+11702540Y+9697127D01*
X+11748260Y+9697127D02*
X+11793980Y+9697127D01*
X+12017500Y+9697127D02*
X+12200380Y+9697127D01*
X+11280900Y+9702207D02*
X+11423140Y+9702207D01*
X+11468860Y+9702207D02*
X+11702540Y+9702207D01*
X+11748260Y+9702207D02*
X+11793980Y+9702207D01*
X+12022580Y+9702207D02*
X+12200380Y+9702207D01*
X+11280900Y+9707287D02*
X+11423140Y+9707287D01*
X+11468860Y+9707287D02*
X+11702540Y+9707287D01*
X+11748260Y+9707287D02*
X+11793980Y+9707287D01*
X+12027660Y+9707287D02*
X+12200380Y+9707287D01*
X+11280900Y+9712367D02*
X+11423140Y+9712367D01*
X+11468860Y+9712367D02*
X+11702540Y+9712367D01*
X+11748260Y+9712367D02*
X+11793980Y+9712367D01*
X+12027660Y+9712367D02*
X+12200380Y+9712367D01*
X+11280900Y+9717447D02*
X+11423140Y+9717447D01*
X+11468860Y+9717447D02*
X+11697460Y+9717447D01*
X+11748260Y+9717447D02*
X+11793980Y+9717447D01*
X+12027660Y+9717447D02*
X+12200380Y+9717447D01*
X+11280900Y+9722527D02*
X+11423140Y+9722527D01*
X+11468860Y+9722527D02*
X+11687300Y+9722527D01*
X+11748260Y+9722527D02*
X+11793980Y+9722527D01*
X+12022580Y+9722527D02*
X+12200380Y+9722527D01*
X+11280900Y+9727607D02*
X+11423140Y+9727607D01*
X+11468860Y+9727607D02*
X+11677140Y+9727607D01*
X+11748260Y+9727607D02*
X+11793980Y+9727607D01*
X+12022580Y+9727607D02*
X+12200380Y+9727607D01*
X+11280900Y+9732687D02*
X+11423140Y+9732687D01*
X+11468860Y+9732687D02*
X+11672060Y+9732687D01*
X+11748260Y+9732687D02*
X+11793980Y+9732687D01*
X+12012420Y+9732687D02*
X+12200380Y+9732687D01*
X+11280900Y+9737767D02*
X+11423140Y+9737767D01*
X+11468860Y+9737767D02*
X+11672060Y+9737767D01*
X+11748260Y+9737767D02*
X+11793980Y+9737767D01*
X+11844780Y+9737767D02*
X+12200380Y+9737767D01*
X+11280900Y+9742847D02*
X+11423140Y+9742847D01*
X+11468860Y+9742847D02*
X+11672060Y+9742847D01*
X+11748260Y+9742847D02*
X+11793980Y+9742847D01*
X+11839700Y+9742847D02*
X+12200380Y+9742847D01*
X+11280900Y+9747927D02*
X+11423140Y+9747927D01*
X+11468860Y+9747927D02*
X+11672060Y+9747927D01*
X+11743180Y+9747927D02*
X+11793980Y+9747927D01*
X+11839700Y+9747927D02*
X+12200380Y+9747927D01*
X+11280900Y+9753007D02*
X+11423140Y+9753007D01*
X+11468860Y+9753007D02*
X+11672060Y+9753007D01*
X+11743180Y+9753007D02*
X+11793980Y+9753007D01*
X+11839700Y+9753007D02*
X+12200380Y+9753007D01*
X+11280900Y+9758087D02*
X+11423140Y+9758087D01*
X+11468860Y+9758087D02*
X+11672060Y+9758087D01*
X+11733020Y+9758087D02*
X+11793980Y+9758087D01*
X+11839700Y+9758087D02*
X+12200380Y+9758087D01*
X+11280900Y+9763167D02*
X+11423140Y+9763167D01*
X+11468860Y+9763167D02*
X+11672060Y+9763167D01*
X+11722860Y+9763167D02*
X+11793980Y+9763167D01*
X+11839700Y+9763167D02*
X+12200380Y+9763167D01*
X+11280900Y+9768247D02*
X+11423140Y+9768247D01*
X+11468860Y+9768247D02*
X+11672060Y+9768247D01*
X+11717780Y+9768247D02*
X+11793980Y+9768247D01*
X+11839700Y+9768247D02*
X+12200380Y+9768247D01*
X+11280900Y+9773327D02*
X+11423140Y+9773327D01*
X+11468860Y+9773327D02*
X+11661900Y+9773327D01*
X+11717780Y+9773327D02*
X+11793980Y+9773327D01*
X+11839700Y+9773327D02*
X+12200380Y+9773327D01*
X+11280900Y+9778407D02*
X+11423140Y+9778407D01*
X+11468860Y+9778407D02*
X+11651740Y+9778407D01*
X+11717780Y+9778407D02*
X+11793980Y+9778407D01*
X+11839700Y+9778407D02*
X+12200380Y+9778407D01*
X+11280900Y+9783487D02*
X+11423140Y+9783487D01*
X+11468860Y+9783487D02*
X+11646660Y+9783487D01*
X+11717780Y+9783487D02*
X+11793980Y+9783487D01*
X+11839700Y+9783487D02*
X+12200380Y+9783487D01*
X+11280900Y+9788567D02*
X+11423140Y+9788567D01*
X+11468860Y+9788567D02*
X+11641580Y+9788567D01*
X+11717780Y+9788567D02*
X+11793980Y+9788567D01*
X+11839700Y+9788567D02*
X+12200380Y+9788567D01*
X+11280900Y+9793647D02*
X+11423140Y+9793647D01*
X+11468860Y+9793647D02*
X+11641580Y+9793647D01*
X+11717780Y+9793647D02*
X+11793980Y+9793647D01*
X+11839700Y+9793647D02*
X+12200380Y+9793647D01*
X+11280900Y+9798727D02*
X+11423140Y+9798727D01*
X+11468860Y+9798727D02*
X+11636500Y+9798727D01*
X+11717780Y+9798727D02*
X+11793980Y+9798727D01*
X+11839700Y+9798727D02*
X+12200380Y+9798727D01*
X+11280900Y+9803807D02*
X+11423140Y+9803807D01*
X+11468860Y+9803807D02*
X+11590780Y+9803807D01*
X+11712700Y+9803807D02*
X+11793980Y+9803807D01*
X+11839700Y+9803807D02*
X+12200380Y+9803807D01*
X+11280900Y+9808887D02*
X+11423140Y+9808887D01*
X+11468860Y+9808887D02*
X+11585700Y+9808887D01*
X+11707620Y+9808887D02*
X+11793980Y+9808887D01*
X+11839700Y+9808887D02*
X+12200380Y+9808887D01*
X+11280900Y+9813967D02*
X+11423140Y+9813967D01*
X+11468860Y+9813967D02*
X+11580620Y+9813967D01*
X+11697460Y+9813967D02*
X+11793980Y+9813967D01*
X+11839700Y+9813967D02*
X+12200380Y+9813967D01*
X+11280900Y+9819047D02*
X+11423140Y+9819047D01*
X+11468860Y+9819047D02*
X+11575540Y+9819047D01*
X+11687300Y+9819047D02*
X+11793980Y+9819047D01*
X+11839700Y+9819047D02*
X+12200380Y+9819047D01*
X+11280900Y+9824127D02*
X+11423140Y+9824127D01*
X+11468860Y+9824127D02*
X+11575540Y+9824127D01*
X+11687300Y+9824127D02*
X+11793980Y+9824127D01*
X+11844780Y+9824127D02*
X+12200380Y+9824127D01*
X+11280900Y+9829207D02*
X+11423140Y+9829207D01*
X+11682220Y+9829207D02*
X+11793980Y+9829207D01*
X+12007340Y+9829207D02*
X+12200380Y+9829207D01*
X+11280900Y+9834287D02*
X+11423140Y+9834287D01*
X+11677140Y+9834287D02*
X+11793980Y+9834287D01*
X+12017500Y+9834287D02*
X+12200380Y+9834287D01*
X+11280900Y+9839367D02*
X+11423140Y+9839367D01*
X+11672060Y+9839367D02*
X+11793980Y+9839367D01*
X+12022580Y+9839367D02*
X+12200380Y+9839367D01*
X+11280900Y+9844447D02*
X+11423140Y+9844447D01*
X+11626340Y+9844447D02*
X+11793980Y+9844447D01*
X+12027660Y+9844447D02*
X+12200380Y+9844447D01*
X+11280900Y+9849527D02*
X+11423140Y+9849527D01*
X+11621260Y+9849527D02*
X+11793980Y+9849527D01*
X+12027660Y+9849527D02*
X+12200380Y+9849527D01*
X+11280900Y+9854607D02*
X+11423140Y+9854607D01*
X+11621260Y+9854607D02*
X+11799060Y+9854607D01*
X+12027660Y+9854607D02*
X+12200380Y+9854607D01*
X+11280900Y+9859687D02*
X+11428220Y+9859687D01*
X+11616180Y+9859687D02*
X+11799060Y+9859687D01*
X+12022580Y+9859687D02*
X+12200380Y+9859687D01*
X+11280900Y+9864767D02*
X+11433300Y+9864767D01*
X+11611100Y+9864767D02*
X+11804140Y+9864767D01*
X+12017500Y+9864767D02*
X+12200380Y+9864767D01*
X+11280900Y+9869847D02*
X+12200380Y+9869847D01*
X+11280900Y+9874927D02*
X+12200380Y+9874927D01*
X+11280900Y+9880007D02*
X+12200380Y+9880007D01*
X+11280900Y+9885087D02*
X+12200380Y+9885087D01*
X+11280900Y+9890167D02*
X+12200380Y+9890167D01*
X+11280900Y+9895247D02*
X+12200380Y+9895247D01*
X+11280900Y+9900327D02*
X+12200380Y+9900327D01*
X+11280900Y+9905407D02*
X+12200380Y+9905407D01*
X+11280900Y+9910487D02*
X+12200380Y+9910487D01*
X+11280900Y+9915567D02*
X+12200380Y+9915567D01*
X+11280900Y+9920647D02*
X+12200380Y+9920647D01*
X+11280900Y+9925727D02*
X+12200380Y+9925727D01*
X+11280900Y+9930807D02*
X+12200380Y+9930807D01*
X+11280900Y+9935887D02*
X+12200380Y+9935887D01*
X+11280900Y+9940967D02*
X+12200380Y+9940967D01*
X+11280900Y+9946047D02*
X+12200380Y+9946047D01*
X+11280900Y+9951127D02*
X+12200380Y+9951127D01*
X+11280900Y+9956207D02*
X+12200380Y+9956207D01*
X+11285980Y+9961287D02*
X+12195300Y+9961287D01*
X+11296140Y+9966367D02*
X+12180060Y+9966367D01*
X+11306300Y+9971447D02*
X+12174980Y+9971447D01*
X+11311380Y+9976527D02*
X+12169900Y+9976527D01*
X+11311380Y+9981607D02*
X+12169900Y+9981607D01*
X+11311380Y+9986687D02*
X+12169900Y+9986687D01*
X+11311380Y+9991767D02*
X+12169900Y+9991767D01*
X+11311380Y+9996847D02*
X+12169900Y+9996847D01*
X+11311380Y+10001927D02*
X+12169900Y+10001927D01*
X+11311380Y+10007007D02*
X+12169900Y+10007007D01*
X+11311380Y+10012087D02*
X+12164820Y+10012087D01*
X+11321540Y+10017167D02*
X+12159740Y+10017167D01*
X+11331700Y+10022247D02*
X+12149580Y+10022247D01*
X+11336780Y+10027327D02*
X+12139420Y+10027327D01*
X+11341860Y+10032407D02*
X+12139420Y+10032407D01*
X+11341860Y+10037487D02*
X+12139420Y+10037487D01*
X+11346940Y+10042567D02*
X+12134340Y+10042567D01*
X+11362180Y+10047647D02*
X+12119100Y+10047647D01*
X+11367260Y+10052727D02*
X+12114020Y+10052727D01*
X+11372340Y+10057807D02*
X+12108940Y+10057807D01*
X+11372340Y+10062887D02*
X+12108940Y+10062887D01*
X+11377420Y+10067967D02*
X+12103860Y+10067967D01*
X+11418060Y+10073047D02*
X+12063220Y+10073047D01*
X+11428220Y+10078127D02*
X+12053060Y+10078127D01*
X+11433300Y+10083207D02*
X+12047980Y+10083207D01*
X+11438380Y+10088287D02*
X+12042900Y+10088287D01*
X+11438380Y+10093367D02*
X+12042900Y+10093367D01*
D27*
X+7557660Y+1302820D02*
X+7556833Y+1323303D01*
X+7550115Y+1364270D01*
X+7536097Y+1405237D01*
X+7513319Y+1446204D01*
X+7478519Y+1487049D01*
X+7437552Y+1518665D01*
X+7396585Y+1539212D01*
X+7355618Y+1551449D01*
X+7314651Y+1556582D01*
X+7303660Y+1556820D01*
X+7049660Y+1302820D02*
X+7050487Y+1323303D01*
X+7057205Y+1364270D01*
X+7071223Y+1405237D01*
X+7094001Y+1446204D01*
X+7128801Y+1487049D01*
X+7169768Y+1518665D01*
X+7210735Y+1539212D01*
X+7251702Y+1551449D01*
X+7292669Y+1556582D01*
X+7303660Y+1556820D01*
X+7049660Y+1302820D02*
X+7050487Y+1282337D01*
X+7057205Y+1241370D01*
X+7071223Y+1200403D01*
X+7094001Y+1159436D01*
X+7128801Y+1118591D01*
X+7169768Y+1086975D01*
X+7210735Y+1066428D01*
X+7251702Y+1054191D01*
X+7292669Y+1049058D01*
X+7303660Y+1048820D01*
X+7557660Y+1302820D02*
X+7556833Y+1282337D01*
X+7550115Y+1241370D01*
X+7536097Y+1200403D01*
X+7513319Y+1159436D01*
X+7478519Y+1118591D01*
X+7437552Y+1086975D01*
X+7396585Y+1066428D01*
X+7355618Y+1054191D01*
X+7314651Y+1049058D01*
X+7303660Y+1048820D01*
X+7113160Y+1429820D02*
X+7240160Y+1429820D01*
X+7176660Y+1493320D02*
X+7176660Y+1366320D01*
X+7271910Y+1612700D02*
X+7256035Y+1597460D01*
X+7208410Y+1597460D01*
X+7176660Y+1627940D01*
X+7176660Y+1658420D01*
X+7208410Y+1688900D01*
X+7256035Y+1688900D01*
X+7271910Y+1673660D01*
X+7319535Y+1688900D02*
X+7398910Y+1688900D01*
X+7398910Y+1673660D01*
X+7319535Y+1597460D01*
X+8331000Y+1570000D02*
X+8330173Y+1590483D01*
X+8323455Y+1631450D01*
X+8309437Y+1672417D01*
X+8286659Y+1713384D01*
X+8251859Y+1754229D01*
X+8210892Y+1785845D01*
X+8169925Y+1806392D01*
X+8128958Y+1818629D01*
X+8087991Y+1823762D01*
X+8077000Y+1824000D01*
X+7823000Y+1570000D02*
X+7823827Y+1590483D01*
X+7830545Y+1631450D01*
X+7844563Y+1672417D01*
X+7867341Y+1713384D01*
X+7902141Y+1754229D01*
X+7943108Y+1785845D01*
X+7984075Y+1806392D01*
X+8025042Y+1818629D01*
X+8066009Y+1823762D01*
X+8077000Y+1824000D01*
X+7823000Y+1570000D02*
X+7823827Y+1549517D01*
X+7830545Y+1508550D01*
X+7844563Y+1467583D01*
X+7867341Y+1426616D01*
X+7902141Y+1385771D01*
X+7943108Y+1354155D01*
X+7984075Y+1333608D01*
X+8025042Y+1321371D01*
X+8066009Y+1316238D01*
X+8077000Y+1316000D01*
X+8331000Y+1570000D02*
X+8330173Y+1549517D01*
X+8323455Y+1508550D01*
X+8309437Y+1467583D01*
X+8286659Y+1426616D01*
X+8251859Y+1385771D01*
X+8210892Y+1354155D01*
X+8169925Y+1333608D01*
X+8128958Y+1321371D01*
X+8087991Y+1316238D01*
X+8077000Y+1316000D01*
X+8267500Y+1443000D02*
X+8140500Y+1443000D01*
X+8204000Y+1379500D02*
X+8204000Y+1506500D01*
X+8245250Y+1879160D02*
X+8229375Y+1863920D01*
X+8181750Y+1863920D01*
X+8150000Y+1894400D01*
X+8150000Y+1924880D01*
X+8181750Y+1955360D01*
X+8229375Y+1955360D01*
X+8245250Y+1940120D01*
X+8308750Y+1909640D02*
X+8292875Y+1924880D01*
X+8292875Y+1940120D01*
X+8308750Y+1955360D01*
X+8356375Y+1955360D01*
X+8372250Y+1940120D01*
X+8372250Y+1924880D01*
X+8356375Y+1909640D01*
X+8308750Y+1909640D01*
X+8292875Y+1894400D01*
X+8292875Y+1879160D01*
X+8308750Y+1863920D01*
X+8356375Y+1863920D01*
X+8372250Y+1879160D01*
X+8372250Y+1894400D01*
X+8356375Y+1909640D01*
X+3754440Y+1230480D02*
X+3786190Y+1230480D01*
X+3786190Y+1200000D01*
X+3722690Y+1200000D01*
X+3690940Y+1230480D01*
X+3690940Y+1260960D01*
X+3722690Y+1291440D01*
X+3770315Y+1291440D01*
X+3786190Y+1276200D01*
X+3817940Y+1200000D02*
X+3817940Y+1291440D01*
X+3913190Y+1200000D01*
X+3913190Y+1291440D01*
X+3944940Y+1200000D02*
X+3944940Y+1291440D01*
X+4008440Y+1291440D01*
X+4040190Y+1260960D01*
X+4040190Y+1230480D01*
X+4008440Y+1200000D01*
X+3944940Y+1200000D01*
X+4198940Y+1200000D02*
X+4198940Y+1260960D01*
X+4230690Y+1291440D01*
X+4262440Y+1291440D01*
X+4294190Y+1260960D01*
X+4294190Y+1200000D01*
X+4198940Y+1230480D02*
X+4294190Y+1230480D01*
X+4357690Y+1260960D02*
X+4389440Y+1291440D01*
X+4389440Y+1200000D01*
X+4706745Y+969832D02*
X+4661025Y+969832D01*
X+4615305Y+922207D01*
X+4661025Y+874582D01*
X+4706745Y+874582D01*
X+4706745Y+826957D02*
X+4706745Y+763457D01*
X+4706745Y+795207D02*
X+4615305Y+795207D01*
X+4615305Y+826957D02*
X+4615305Y+763457D01*
X+4615305Y+715832D02*
X+4706745Y+715832D01*
X+4706745Y+652332D01*
X+4676265Y+620582D01*
X+4645785Y+620582D01*
X+4615305Y+652332D01*
X+4615305Y+715832D01*
X+4615305Y+588832D02*
X+4706745Y+588832D01*
X+4706745Y+509457D01*
X+4691505Y+493582D01*
X+4676265Y+493582D01*
X+4661025Y+509457D01*
X+4661025Y+588832D01*
X+4661025Y+509457D02*
X+4645785Y+493582D01*
X+4615305Y+493582D01*
X+4706745Y+445957D02*
X+4706745Y+382457D01*
X+4706745Y+414207D02*
X+4615305Y+414207D01*
X+4615305Y+445957D02*
X+4615305Y+382457D01*
X+4676265Y+334832D02*
X+4706745Y+303082D01*
X+4706745Y+271332D01*
X+4676265Y+239582D01*
X+4645785Y+239582D01*
X+4615305Y+271332D01*
X+4615305Y+303082D01*
X+4645785Y+334832D01*
X+4676265Y+334832D01*
X+4546600Y+91440D02*
X+4546600Y+1107440D01*
X+3530600Y+91440D02*
X+3530600Y+1107440D01*
X+4546600Y+1107440D02*
X+3530600Y+1107440D01*
X+4546600Y+91440D02*
X+3530600Y+91440D01*
X+4742180Y+154940D02*
X+4742180Y+139700D01*
X+4758055Y+124460D01*
X+4821555Y+124460D01*
X+4837430Y+139700D01*
X+4837430Y+215900D01*
X+4964430Y+215900D02*
X+4885055Y+215900D01*
X+4885055Y+185420D01*
X+4948555Y+185420D01*
X+4964430Y+170180D01*
X+4964430Y+139700D01*
X+4948555Y+124460D01*
X+4900930Y+124460D01*
X+4885055Y+139700D01*
X+8707556Y+645160D02*
X+8705722Y+692661D01*
X+8690849Y+787665D01*
X+8659937Y+882669D01*
X+8610125Y+977673D01*
X+8535093Y+1072677D01*
X+8440239Y+1153036D01*
X+8345235Y+1206575D01*
X+8250231Y+1240462D01*
X+8155227Y+1257965D01*
X+8091440Y+1261276D01*
X+7475324Y+645160D02*
X+7477158Y+692661D01*
X+7492031Y+787665D01*
X+7522943Y+882669D01*
X+7572755Y+977673D01*
X+7647787Y+1072677D01*
X+7742641Y+1153036D01*
X+7837645Y+1206575D01*
X+7932649Y+1240462D01*
X+8027653Y+1257965D01*
X+8091440Y+1261276D01*
X+7475324Y+645160D02*
X+7477158Y+597659D01*
X+7492031Y+502655D01*
X+7522943Y+407651D01*
X+7572755Y+312647D01*
X+7647787Y+217643D01*
X+7742641Y+137284D01*
X+7837645Y+83745D01*
X+7932649Y+49858D01*
X+8027653Y+32355D01*
X+8091440Y+29044D01*
X+8707556Y+645160D02*
X+8705722Y+597659D01*
X+8690849Y+502655D01*
X+8659937Y+407651D01*
X+8610125Y+312647D01*
X+8535093Y+217643D01*
X+8440239Y+137284D01*
X+8345235Y+83745D01*
X+8250231Y+49858D01*
X+8155227Y+32355D01*
X+8091440Y+29044D01*
X+8219502Y+645160D02*
X+8219071Y+655654D01*
X+8215572Y+676644D01*
X+8208258Y+697634D01*
X+8196335Y+718624D01*
X+8178093Y+739453D01*
X+8157103Y+755107D01*
X+8136113Y+765177D01*
X+8115123Y+771013D01*
X+8094133Y+773194D01*
X+8091440Y+773222D01*
X+7963378Y+645160D02*
X+7963809Y+655654D01*
X+7967308Y+676644D01*
X+7974622Y+697634D01*
X+7986545Y+718624D01*
X+8004787Y+739453D01*
X+8025777Y+755107D01*
X+8046767Y+765177D01*
X+8067757Y+771013D01*
X+8088747Y+773194D01*
X+8091440Y+773222D01*
X+7963378Y+645160D02*
X+7963809Y+634666D01*
X+7967308Y+613676D01*
X+7974622Y+592686D01*
X+7986545Y+571696D01*
X+8004787Y+550867D01*
X+8025777Y+535213D01*
X+8046767Y+525143D01*
X+8067757Y+519307D01*
X+8088747Y+517126D01*
X+8091440Y+517098D01*
X+8219502Y+645160D02*
X+8219071Y+634666D01*
X+8215572Y+613676D01*
X+8208258Y+592686D01*
X+8196335Y+571696D01*
X+8178093Y+550867D01*
X+8157103Y+535213D01*
X+8136113Y+525143D01*
X+8115123Y+519307D01*
X+8094133Y+517126D01*
X+8091440Y+517098D01*
X+7671440Y+1012160D02*
X+7842890Y+1012160D01*
X+7757165Y+1062960D02*
X+7757165Y+961360D01*
X+8815340Y+578016D02*
X+8815340Y+669456D01*
X+8894715Y+669456D01*
X+8910590Y+654216D01*
X+8910590Y+638976D01*
X+8894715Y+623736D01*
X+8910590Y+608496D01*
X+8910590Y+593256D01*
X+8894715Y+578016D01*
X+8815340Y+578016D01*
X+8815340Y+623736D02*
X+8894715Y+623736D01*
X+8942340Y+669456D02*
X+8942340Y+593256D01*
X+8958215Y+578016D01*
X+9021715Y+578016D01*
X+9037590Y+593256D01*
X+9037590Y+669456D01*
X+9069340Y+669456D02*
X+9164590Y+669456D01*
X+9069340Y+578016D01*
X+9164590Y+578016D01*
X+9228090Y+638976D02*
X+9259840Y+669456D01*
X+9259840Y+578016D01*
X+9468000Y+1664520D02*
X+9468000Y+1537520D01*
X+9404500Y+1029520D02*
X+9531500Y+1029520D01*
X+9531500Y+1537520D01*
X+9404500Y+1537520D01*
X+9404500Y+1029520D01*
X+9468000Y+1029520D02*
X+9468000Y+902520D01*
X+9663580Y+1156520D02*
X+9572140Y+1156520D01*
X+9572140Y+1235895D01*
X+9587380Y+1251770D01*
X+9602620Y+1251770D01*
X+9617860Y+1235895D01*
X+9617860Y+1156520D01*
X+9617860Y+1235895D02*
X+9633100Y+1251770D01*
X+9663580Y+1251770D01*
X+9587380Y+1299395D02*
X+9572140Y+1315270D01*
X+9572140Y+1362895D01*
X+9587380Y+1378770D01*
X+9602620Y+1378770D01*
X+9617860Y+1362895D01*
X+9617860Y+1315270D01*
X+9633100Y+1299395D01*
X+9663580Y+1299395D01*
X+9663580Y+1378770D01*
X+9981280Y+1671320D02*
X+10108280Y+1671320D01*
X+10235280Y+1544320D02*
X+10261156Y+1546756D01*
X+10285128Y+1553805D01*
X+10306718Y+1565082D01*
X+10325450Y+1580198D01*
X+10340849Y+1598766D01*
X+10352438Y+1620401D01*
X+10359740Y+1644714D01*
X+10362280Y+1671320D01*
X+10235280Y+1544320D02*
X+10208674Y+1546756D01*
X+10184361Y+1553805D01*
X+10162726Y+1565082D01*
X+10144158Y+1580198D01*
X+10129042Y+1598766D01*
X+10117765Y+1620401D01*
X+10110716Y+1644714D01*
X+10108280Y+1671320D01*
X+10362280Y+1671320D02*
X+10489280Y+1671320D01*
X+9981280Y+909320D02*
X+10489280Y+909320D01*
X+9981280Y+1671320D02*
X+9981280Y+909320D01*
X+10489280Y+1671320D02*
X+10489280Y+909320D01*
X+10108280Y+1803400D02*
X+10108280Y+1727200D01*
X+10124155Y+1711960D01*
X+10187655Y+1711960D01*
X+10203530Y+1727200D01*
X+10203530Y+1803400D01*
X+10251155Y+1788160D02*
X+10267030Y+1803400D01*
X+10314655Y+1803400D01*
X+10330530Y+1788160D01*
X+10330530Y+1772920D01*
X+10314655Y+1757680D01*
X+10267030Y+1757680D01*
X+10251155Y+1742440D01*
X+10251155Y+1711960D01*
X+10330530Y+1711960D01*
X+10067280Y+2124880D02*
X+10194280Y+2124880D01*
X+10194280Y+2061380D02*
X+10956280Y+2061380D01*
X+10956280Y+2188380D01*
X+10194280Y+2188380D01*
X+10194280Y+2061380D01*
X+10956280Y+2124880D02*
X+11083280Y+2124880D01*
X+10448280Y+2229020D02*
X+10448280Y+2320460D01*
X+10527655Y+2320460D01*
X+10543530Y+2305220D01*
X+10543530Y+2289980D01*
X+10527655Y+2274740D01*
X+10448280Y+2274740D01*
X+10527655Y+2274740D02*
X+10543530Y+2259500D01*
X+10543530Y+2229020D01*
X+10591155Y+2320460D02*
X+10670530Y+2320460D01*
X+10670530Y+2305220D01*
X+10591155Y+2229020D01*
X+10616280Y+518160D02*
X+10489280Y+518160D01*
X+9981280Y+454660D02*
X+10489280Y+454660D01*
X+10489280Y+581660D01*
X+9981280Y+581660D01*
X+9981280Y+454660D01*
X+9981280Y+518160D02*
X+9854280Y+518160D01*
X+10108280Y+322580D02*
X+10108280Y+414020D01*
X+10187655Y+414020D01*
X+10203530Y+398780D01*
X+10203530Y+383540D01*
X+10187655Y+368300D01*
X+10108280Y+368300D01*
X+10187655Y+368300D02*
X+10203530Y+353060D01*
X+10203530Y+322580D01*
X+10267030Y+368300D02*
X+10251155Y+383540D01*
X+10251155Y+398780D01*
X+10267030Y+414020D01*
X+10314655Y+414020D01*
X+10330530Y+398780D01*
X+10330530Y+383540D01*
X+10314655Y+368300D01*
X+10267030Y+368300D01*
X+10251155Y+353060D01*
X+10251155Y+337820D01*
X+10267030Y+322580D01*
X+10314655Y+322580D01*
X+10330530Y+337820D01*
X+10330530Y+353060D01*
X+10314655Y+368300D01*
X+11056480Y+947260D02*
X+11310480Y+947260D01*
X+11310480Y+1709260D01*
X+11056480Y+1709260D01*
X+11056480Y+947260D01*
X+10929480Y+947260D01*
X+10929480Y+1709260D01*
X+11056480Y+1709260D01*
X+11056480Y+947260D02*
X+10929480Y+1074260D01*
X+11056480Y+1074260D02*
X+10929480Y+1201260D01*
X+11056480Y+1201260D02*
X+10929480Y+1328260D01*
X+11056480Y+1328260D02*
X+10929480Y+1455260D01*
X+11056480Y+1455260D02*
X+10929480Y+1582260D01*
X+11056480Y+1582260D02*
X+10929480Y+1709260D01*
X+10797400Y+1201260D02*
X+10873600Y+1201260D01*
X+10888840Y+1217135D01*
X+10888840Y+1280635D01*
X+10873600Y+1296510D01*
X+10797400Y+1296510D01*
X+10812640Y+1344135D02*
X+10797400Y+1360010D01*
X+10797400Y+1407635D01*
X+10812640Y+1423510D01*
X+10827880Y+1423510D01*
X+10843120Y+1407635D01*
X+10858360Y+1423510D01*
X+10873600Y+1423510D01*
X+10888840Y+1407635D01*
X+10888840Y+1360010D01*
X+10873600Y+1344135D01*
X+10843120Y+1375885D02*
X+10843120Y+1407635D01*
X+11618350Y+1886900D02*
X+11618350Y+1759900D01*
X+11491350Y+743900D02*
X+11745350Y+743900D01*
X+11745350Y+1759900D01*
X+11491350Y+1759900D01*
X+11491350Y+743900D01*
X+11618350Y+743900D02*
X+11618350Y+616900D01*
X+11364350Y+449260D02*
X+11272910Y+449260D01*
X+11272910Y+528635D01*
X+11288150Y+544510D01*
X+11303390Y+544510D01*
X+11318630Y+528635D01*
X+11318630Y+449260D01*
X+11318630Y+528635D02*
X+11333870Y+544510D01*
X+11364350Y+544510D01*
X+11288150Y+592135D02*
X+11272910Y+608010D01*
X+11272910Y+655635D01*
X+11288150Y+671510D01*
X+11303390Y+671510D01*
X+11318630Y+655635D01*
X+11333870Y+671510D01*
X+11349110Y+671510D01*
X+11364350Y+655635D01*
X+11364350Y+608010D01*
X+11349110Y+592135D01*
X+11318630Y+623885D02*
X+11318630Y+655635D01*
X+11861680Y+484820D02*
X+12369680Y+484820D01*
X+12369680Y+2262820D01*
X+11861680Y+2262820D01*
X+11861680Y+484820D01*
X+11991220Y+155890D02*
X+12006460Y+140015D01*
X+12006460Y+92390D01*
X+11975980Y+60640D01*
X+11945500Y+60640D01*
X+11915020Y+92390D01*
X+11915020Y+140015D01*
X+11930260Y+155890D01*
X+11945500Y+219390D02*
X+11915020Y+251140D01*
X+12006460Y+251140D01*
X+11930260Y+330515D02*
X+11915020Y+346390D01*
X+11915020Y+394015D01*
X+11930260Y+409890D01*
X+11945500Y+409890D01*
X+11960740Y+394015D01*
X+11960740Y+346390D01*
X+11975980Y+330515D01*
X+12006460Y+330515D01*
X+12006460Y+409890D01*
X+9453760Y+2387980D02*
X+12383760Y+2387980D01*
X+12383760Y+3357980D01*
X+9453760Y+3357980D01*
X+9453760Y+2387980D01*
X+9543760Y+2587980D02*
X+12303760Y+2587980D01*
X+12303760Y+3187980D01*
X+9543760Y+3187980D01*
X+9543760Y+2587980D01*
X+10173760Y+2657980D02*
X+11763760Y+2657980D01*
X+11763760Y+3107980D01*
X+10173760Y+3107980D01*
X+10173760Y+2657980D01*
X+11773760Y+2667980D02*
X+12263760Y+2667980D01*
X+12263760Y+3097980D01*
X+11773760Y+3097980D01*
X+11773760Y+2667980D01*
X+9583760Y+2667980D02*
X+10173760Y+2667980D01*
X+10173760Y+3097980D01*
X+9583760Y+3097980D01*
X+9583760Y+2667980D01*
X+10791760Y+3398620D02*
X+10791760Y+3490060D01*
X+10887010Y+3490060D01*
X+10791760Y+3444340D02*
X+10855260Y+3444340D01*
X+10934635Y+3474820D02*
X+10950510Y+3490060D01*
X+10998135Y+3490060D01*
X+11014010Y+3474820D01*
X+11014010Y+3459580D01*
X+10998135Y+3444340D01*
X+11014010Y+3429100D01*
X+11014010Y+3413860D01*
X+10998135Y+3398620D01*
X+10950510Y+3398620D01*
X+10934635Y+3413860D01*
X+10966385Y+3444340D02*
X+10998135Y+3444340D01*
X+13518000Y+1994000D02*
X+12502000Y+1994000D01*
X+13518000Y+978000D02*
X+12502000Y+978000D01*
X+12502000Y+1994000D02*
X+12502000Y+978000D01*
X+13518000Y+1994000D02*
X+13518000Y+978000D01*
X+12549600Y+2099000D02*
X+12564840Y+2099000D01*
X+12580080Y+2114875D01*
X+12580080Y+2178375D01*
X+12564840Y+2194250D01*
X+12488640Y+2194250D01*
X+12519120Y+2257750D02*
X+12488640Y+2289500D01*
X+12580080Y+2289500D01*
X+9430000Y+4863000D02*
X+9430000Y+4736000D01*
X+9366500Y+4228000D02*
X+9493500Y+4228000D01*
X+9493500Y+4736000D01*
X+9366500Y+4736000D01*
X+9366500Y+4228000D01*
X+9430000Y+4228000D02*
X+9430000Y+4101000D01*
X+9625580Y+4291500D02*
X+9534140Y+4291500D01*
X+9534140Y+4370875D01*
X+9549380Y+4386750D01*
X+9564620Y+4386750D01*
X+9579860Y+4370875D01*
X+9579860Y+4291500D01*
X+9579860Y+4370875D02*
X+9595100Y+4386750D01*
X+9625580Y+4386750D01*
X+9549380Y+4434375D02*
X+9534140Y+4450250D01*
X+9534140Y+4497875D01*
X+9549380Y+4513750D01*
X+9564620Y+4513750D01*
X+9579860Y+4497875D01*
X+9579860Y+4450250D01*
X+9595100Y+4434375D01*
X+9625580Y+4434375D01*
X+9625580Y+4513750D01*
X+9534140Y+4640750D02*
X+9534140Y+4561375D01*
X+9564620Y+4561375D01*
X+9564620Y+4624875D01*
X+9579860Y+4640750D01*
X+9610340Y+4640750D01*
X+9625580Y+4624875D01*
X+9625580Y+4577250D01*
X+9610340Y+4561375D01*
X+9981280Y+4857000D02*
X+10108280Y+4857000D01*
X+10235280Y+4730000D02*
X+10261156Y+4732436D01*
X+10285128Y+4739485D01*
X+10306718Y+4750762D01*
X+10325450Y+4765878D01*
X+10340849Y+4784446D01*
X+10352438Y+4806081D01*
X+10359740Y+4830394D01*
X+10362280Y+4857000D01*
X+10235280Y+4730000D02*
X+10208674Y+4732436D01*
X+10184361Y+4739485D01*
X+10162726Y+4750762D01*
X+10144158Y+4765878D01*
X+10129042Y+4784446D01*
X+10117765Y+4806081D01*
X+10110716Y+4830394D01*
X+10108280Y+4857000D01*
X+10362280Y+4857000D02*
X+10489280Y+4857000D01*
X+9981280Y+4095000D02*
X+10489280Y+4095000D01*
X+9981280Y+4857000D02*
X+9981280Y+4095000D01*
X+10489280Y+4857000D02*
X+10489280Y+4095000D01*
X+10108280Y+4989080D02*
X+10108280Y+4912880D01*
X+10124155Y+4897640D01*
X+10187655Y+4897640D01*
X+10203530Y+4912880D01*
X+10203530Y+4989080D01*
X+10330530Y+4928120D02*
X+10235280Y+4928120D01*
X+10298780Y+4989080D01*
X+10298780Y+4897640D01*
X+9937280Y+5260000D02*
X+10064280Y+5260000D01*
X+10064280Y+5196500D02*
X+10826280Y+5196500D01*
X+10826280Y+5323500D01*
X+10064280Y+5323500D01*
X+10064280Y+5196500D01*
X+10826280Y+5260000D02*
X+10953280Y+5260000D01*
X+10254780Y+5364140D02*
X+10254780Y+5455580D01*
X+10334155Y+5455580D01*
X+10350030Y+5440340D01*
X+10350030Y+5425100D01*
X+10334155Y+5409860D01*
X+10254780Y+5409860D01*
X+10334155Y+5409860D02*
X+10350030Y+5394620D01*
X+10350030Y+5364140D01*
X+10397655Y+5440340D02*
X+10413530Y+5455580D01*
X+10461155Y+5455580D01*
X+10477030Y+5440340D01*
X+10477030Y+5425100D01*
X+10461155Y+5409860D01*
X+10413530Y+5409860D01*
X+10397655Y+5394620D01*
X+10397655Y+5364140D01*
X+10477030Y+5364140D01*
X+10524655Y+5455580D02*
X+10604030Y+5455580D01*
X+10604030Y+5440340D01*
X+10524655Y+5364140D01*
X+10616280Y+3750000D02*
X+10489280Y+3750000D01*
X+9981280Y+3686500D02*
X+10489280Y+3686500D01*
X+10489280Y+3813500D01*
X+9981280Y+3813500D01*
X+9981280Y+3686500D01*
X+9981280Y+3750000D02*
X+9854280Y+3750000D01*
X+10044780Y+3554420D02*
X+10044780Y+3645860D01*
X+10124155Y+3645860D01*
X+10140030Y+3630620D01*
X+10140030Y+3615380D01*
X+10124155Y+3600140D01*
X+10044780Y+3600140D01*
X+10124155Y+3600140D02*
X+10140030Y+3584900D01*
X+10140030Y+3554420D01*
X+10187655Y+3630620D02*
X+10203530Y+3645860D01*
X+10251155Y+3645860D01*
X+10267030Y+3630620D01*
X+10267030Y+3615380D01*
X+10251155Y+3600140D01*
X+10203530Y+3600140D01*
X+10187655Y+3584900D01*
X+10187655Y+3554420D01*
X+10267030Y+3554420D01*
X+10330530Y+3600140D02*
X+10314655Y+3615380D01*
X+10314655Y+3630620D01*
X+10330530Y+3645860D01*
X+10378155Y+3645860D01*
X+10394030Y+3630620D01*
X+10394030Y+3615380D01*
X+10378155Y+3600140D01*
X+10330530Y+3600140D01*
X+10314655Y+3584900D01*
X+10314655Y+3569660D01*
X+10330530Y+3554420D01*
X+10378155Y+3554420D01*
X+10394030Y+3569660D01*
X+10394030Y+3584900D01*
X+10378155Y+3600140D01*
X+11066480Y+4133000D02*
X+11320480Y+4133000D01*
X+11320480Y+4895000D01*
X+11066480Y+4895000D01*
X+11066480Y+4133000D01*
X+10939480Y+4133000D01*
X+10939480Y+4895000D01*
X+11066480Y+4895000D01*
X+11066480Y+4133000D02*
X+10939480Y+4260000D01*
X+11066480Y+4260000D02*
X+10939480Y+4387000D01*
X+11066480Y+4387000D02*
X+10939480Y+4514000D01*
X+11066480Y+4514000D02*
X+10939480Y+4641000D01*
X+11066480Y+4641000D02*
X+10939480Y+4768000D01*
X+11066480Y+4768000D02*
X+10939480Y+4895000D01*
X+10807400Y+4387000D02*
X+10883600Y+4387000D01*
X+10898840Y+4402875D01*
X+10898840Y+4466375D01*
X+10883600Y+4482250D01*
X+10807400Y+4482250D01*
X+10807400Y+4609250D02*
X+10807400Y+4529875D01*
X+10837880Y+4529875D01*
X+10837880Y+4593375D01*
X+10853120Y+4609250D01*
X+10883600Y+4609250D01*
X+10898840Y+4593375D01*
X+10898840Y+4545750D01*
X+10883600Y+4529875D01*
X+11638350Y+5113000D02*
X+11638350Y+4986000D01*
X+11511350Y+3970000D02*
X+11765350Y+3970000D01*
X+11765350Y+4986000D01*
X+11511350Y+4986000D01*
X+11511350Y+3970000D01*
X+11638350Y+3970000D02*
X+11638350Y+3843000D01*
X+11437430Y+3577500D02*
X+11345990Y+3577500D01*
X+11345990Y+3656875D01*
X+11361230Y+3672750D01*
X+11376470Y+3672750D01*
X+11391710Y+3656875D01*
X+11391710Y+3577500D01*
X+11391710Y+3656875D02*
X+11406950Y+3672750D01*
X+11437430Y+3672750D01*
X+11361230Y+3720375D02*
X+11345990Y+3736250D01*
X+11345990Y+3783875D01*
X+11361230Y+3799750D01*
X+11376470Y+3799750D01*
X+11391710Y+3783875D01*
X+11391710Y+3736250D01*
X+11406950Y+3720375D01*
X+11437430Y+3720375D01*
X+11437430Y+3799750D01*
X+11361230Y+3926750D02*
X+11345990Y+3910875D01*
X+11345990Y+3863250D01*
X+11361230Y+3847375D01*
X+11422190Y+3847375D01*
X+11437430Y+3863250D01*
X+11437430Y+3910875D01*
X+11422190Y+3926750D01*
X+11406950Y+3926750D01*
X+11391710Y+3910875D01*
X+11391710Y+3847375D01*
X+11871680Y+3563000D02*
X+12379680Y+3563000D01*
X+12379680Y+5341000D01*
X+11871680Y+5341000D01*
X+11871680Y+3563000D01*
X+12505800Y+5326750D02*
X+12521040Y+5310875D01*
X+12521040Y+5263250D01*
X+12490560Y+5231500D01*
X+12460080Y+5231500D01*
X+12429600Y+5263250D01*
X+12429600Y+5310875D01*
X+12444840Y+5326750D01*
X+12460080Y+5390250D02*
X+12429600Y+5422000D01*
X+12521040Y+5422000D01*
X+12444840Y+5501375D02*
X+12429600Y+5517250D01*
X+12429600Y+5564875D01*
X+12444840Y+5580750D01*
X+12460080Y+5580750D01*
X+12475320Y+5564875D01*
X+12490560Y+5580750D01*
X+12505800Y+5580750D01*
X+12521040Y+5564875D01*
X+12521040Y+5517250D01*
X+12505800Y+5501375D01*
X+12475320Y+5533125D02*
X+12475320Y+5564875D01*
X+9460000Y+5480000D02*
X+12390000Y+5480000D01*
X+12390000Y+6450000D01*
X+9460000Y+6450000D01*
X+9460000Y+5480000D01*
X+9550000Y+5680000D02*
X+12310000Y+5680000D01*
X+12310000Y+6280000D01*
X+9550000Y+6280000D01*
X+9550000Y+5680000D01*
X+10180000Y+5750000D02*
X+11770000Y+5750000D01*
X+11770000Y+6200000D01*
X+10180000Y+6200000D01*
X+10180000Y+5750000D01*
X+11780000Y+5760000D02*
X+12270000Y+5760000D01*
X+12270000Y+6190000D01*
X+11780000Y+6190000D01*
X+11780000Y+5760000D01*
X+9590000Y+5760000D02*
X+10180000Y+5760000D01*
X+10180000Y+6190000D01*
X+9590000Y+6190000D01*
X+9590000Y+5760000D01*
X+12558000Y+6050640D02*
X+12558000Y+6142080D01*
X+12653250Y+6142080D01*
X+12558000Y+6096360D02*
X+12621500Y+6096360D01*
X+12780250Y+6081120D02*
X+12685000Y+6081120D01*
X+12748500Y+6142080D01*
X+12748500Y+6050640D01*
X+12492000Y+3996000D02*
X+13508000Y+3996000D01*
X+12492000Y+5012000D02*
X+13508000Y+5012000D01*
X+13508000Y+3996000D02*
X+13508000Y+5012000D01*
X+12492000Y+3996000D02*
X+12492000Y+5012000D01*
X+12630880Y+5047000D02*
X+12646120Y+5047000D01*
X+12661360Y+5062875D01*
X+12661360Y+5126375D01*
X+12646120Y+5142250D01*
X+12569920Y+5142250D01*
X+12585160Y+5189875D02*
X+12569920Y+5205750D01*
X+12569920Y+5253375D01*
X+12585160Y+5269250D01*
X+12600400Y+5269250D01*
X+12615640Y+5253375D01*
X+12615640Y+5205750D01*
X+12630880Y+5189875D01*
X+12661360Y+5189875D01*
X+12661360Y+5269250D01*
X+8183000Y+6411000D02*
X+8183000Y+6538000D01*
X+8310000Y+6665000D02*
X+8307564Y+6690876D01*
X+8300515Y+6714848D01*
X+8289238Y+6736438D01*
X+8274122Y+6755170D01*
X+8255554Y+6770569D01*
X+8233919Y+6782158D01*
X+8209606Y+6789460D01*
X+8183000Y+6792000D01*
X+8310000Y+6665000D02*
X+8307564Y+6638394D01*
X+8300515Y+6614081D01*
X+8289238Y+6592446D01*
X+8274122Y+6573878D01*
X+8255554Y+6558762D01*
X+8233919Y+6547485D01*
X+8209606Y+6540436D01*
X+8183000Y+6538000D01*
X+8183000Y+6792000D02*
X+8183000Y+6919000D01*
X+8945000Y+6411000D02*
X+8945000Y+6919000D01*
X+8183000Y+6411000D02*
X+8945000Y+6411000D01*
X+8183000Y+6919000D02*
X+8945000Y+6919000D01*
X+8050920Y+6538000D02*
X+8127120Y+6538000D01*
X+8142360Y+6553875D01*
X+8142360Y+6617375D01*
X+8127120Y+6633250D01*
X+8050920Y+6633250D01*
X+8066160Y+6760250D02*
X+8050920Y+6744375D01*
X+8050920Y+6696750D01*
X+8066160Y+6680875D01*
X+8127120Y+6680875D01*
X+8142360Y+6696750D01*
X+8142360Y+6744375D01*
X+8127120Y+6760250D01*
X+8111880Y+6760250D01*
X+8096640Y+6744375D01*
X+8096640Y+6680875D01*
X+7790000Y+7173000D02*
X+7790000Y+7046000D01*
X+7726500Y+6284000D02*
X+7853500Y+6284000D01*
X+7853500Y+7046000D01*
X+7726500Y+7046000D01*
X+7726500Y+6284000D01*
X+7790000Y+6284000D02*
X+7790000Y+6157000D01*
X+7985580Y+6474500D02*
X+7894140Y+6474500D01*
X+7894140Y+6553875D01*
X+7909380Y+6569750D01*
X+7924620Y+6569750D01*
X+7939860Y+6553875D01*
X+7939860Y+6474500D01*
X+7939860Y+6553875D02*
X+7955100Y+6569750D01*
X+7985580Y+6569750D01*
X+7909380Y+6617375D02*
X+7894140Y+6633250D01*
X+7894140Y+6680875D01*
X+7909380Y+6696750D01*
X+7924620Y+6696750D01*
X+7939860Y+6680875D01*
X+7939860Y+6633250D01*
X+7955100Y+6617375D01*
X+7985580Y+6617375D01*
X+7985580Y+6696750D01*
X+7924620Y+6760250D02*
X+7894140Y+6792000D01*
X+7985580Y+6792000D01*
X+9180000Y+6284000D02*
X+9180000Y+6411000D01*
X+9116500Y+6411000D02*
X+9243500Y+6411000D01*
X+9243500Y+6919000D01*
X+9116500Y+6919000D01*
X+9116500Y+6411000D01*
X+9180000Y+6919000D02*
X+9180000Y+7046000D01*
X+9075860Y+6474500D02*
X+8984420Y+6474500D01*
X+8984420Y+6553875D01*
X+8999660Y+6569750D01*
X+9014900Y+6569750D01*
X+9030140Y+6553875D01*
X+9030140Y+6474500D01*
X+9030140Y+6553875D02*
X+9045380Y+6569750D01*
X+9075860Y+6569750D01*
X+8999660Y+6617375D02*
X+8984420Y+6633250D01*
X+8984420Y+6680875D01*
X+8999660Y+6696750D01*
X+9014900Y+6696750D01*
X+9030140Y+6680875D01*
X+9030140Y+6633250D01*
X+9045380Y+6617375D01*
X+9075860Y+6617375D01*
X+9075860Y+6696750D01*
X+8999660Y+6744375D02*
X+8984420Y+6760250D01*
X+8984420Y+6807875D01*
X+8999660Y+6823750D01*
X+9014900Y+6823750D01*
X+9030140Y+6807875D01*
X+9030140Y+6760250D01*
X+9045380Y+6744375D01*
X+9075860Y+6744375D01*
X+9075860Y+6823750D01*
X+9369000Y+8351500D02*
X+10131000Y+8351500D01*
X+10131000Y+8605500D01*
X+9369000Y+8605500D01*
X+9369000Y+8351500D01*
X+10131000Y+8351500D02*
X+10131000Y+8224500D01*
X+9369000Y+8224500D01*
X+9369000Y+8351500D01*
X+10131000Y+8351500D02*
X+10004000Y+8224500D01*
X+10004000Y+8351500D02*
X+9877000Y+8224500D01*
X+9877000Y+8351500D02*
X+9750000Y+8224500D01*
X+9750000Y+8351500D02*
X+9623000Y+8224500D01*
X+9623000Y+8351500D02*
X+9496000Y+8224500D01*
X+9496000Y+8351500D02*
X+9369000Y+8224500D01*
X+9623000Y+8183860D02*
X+9623000Y+8107660D01*
X+9638875Y+8092420D01*
X+9702375Y+8092420D01*
X+9718250Y+8107660D01*
X+9718250Y+8183860D01*
X+9765875Y+8183860D02*
X+9845250Y+8183860D01*
X+9845250Y+8168620D01*
X+9765875Y+8092420D01*
X+8000000Y+7565000D02*
X+11500000Y+7565000D01*
X+11500000Y+8805000D01*
X+8000000Y+8805000D01*
X+8000000Y+7565000D01*
X+9129220Y+9120000D02*
X+9256220Y+9120000D01*
X+9256220Y+8993000D02*
X+10272220Y+8993000D01*
X+10272220Y+9247000D01*
X+9256220Y+9247000D01*
X+9256220Y+8993000D01*
X+10272220Y+9120000D02*
X+10399220Y+9120000D01*
X+10697220Y+9027640D02*
X+10697220Y+9119080D01*
X+10776595Y+9119080D01*
X+10792470Y+9103840D01*
X+10792470Y+9088600D01*
X+10776595Y+9073360D01*
X+10697220Y+9073360D01*
X+10776595Y+9073360D02*
X+10792470Y+9058120D01*
X+10792470Y+9027640D01*
X+10919470Y+9119080D02*
X+10840095Y+9119080D01*
X+10840095Y+9088600D01*
X+10903595Y+9088600D01*
X+10919470Y+9073360D01*
X+10919470Y+9042880D01*
X+10903595Y+9027640D01*
X+10855970Y+9027640D01*
X+10840095Y+9042880D01*
X+8875220Y+9366000D02*
X+10653220Y+9366000D01*
X+10653220Y+9874000D01*
X+8875220Y+9874000D01*
X+8875220Y+9366000D01*
X+8578970Y+9419160D02*
X+8563095Y+9403920D01*
X+8515470Y+9403920D01*
X+8483720Y+9434400D01*
X+8483720Y+9464880D01*
X+8515470Y+9495360D01*
X+8563095Y+9495360D01*
X+8578970Y+9480120D01*
X+8642470Y+9464880D02*
X+8674220Y+9495360D01*
X+8674220Y+9403920D01*
X+8737720Y+9419160D02*
X+8737720Y+9480120D01*
X+8753595Y+9495360D01*
X+8817095Y+9495360D01*
X+8832970Y+9480120D01*
X+8832970Y+9419160D01*
X+8817095Y+9403920D01*
X+8753595Y+9403920D01*
X+8737720Y+9419160D01*
X+8737720Y+9403920D02*
X+8832970Y+9495360D01*
X+9460000Y+6540000D02*
X+12390000Y+6540000D01*
X+12390000Y+7510000D01*
X+9460000Y+7510000D01*
X+9460000Y+6540000D01*
X+9550000Y+6740000D02*
X+12310000Y+6740000D01*
X+12310000Y+7340000D01*
X+9550000Y+7340000D01*
X+9550000Y+6740000D01*
X+10180000Y+6810000D02*
X+11770000Y+6810000D01*
X+11770000Y+7260000D01*
X+10180000Y+7260000D01*
X+10180000Y+6810000D01*
X+11780000Y+6820000D02*
X+12270000Y+6820000D01*
X+12270000Y+7250000D01*
X+11780000Y+7250000D01*
X+11780000Y+6820000D01*
X+9590000Y+6820000D02*
X+10180000Y+6820000D01*
X+10180000Y+7250000D01*
X+9590000Y+7250000D01*
X+9590000Y+6820000D01*
X+12618000Y+6930640D02*
X+12618000Y+7022080D01*
X+12713250Y+7022080D01*
X+12618000Y+6976360D02*
X+12681500Y+6976360D01*
X+12776750Y+6991600D02*
X+12808500Y+7022080D01*
X+12808500Y+6930640D01*
X+5893000Y+6411000D02*
X+5893000Y+6538000D01*
X+6020000Y+6665000D02*
X+6017564Y+6690876D01*
X+6010515Y+6714848D01*
X+5999238Y+6736438D01*
X+5984122Y+6755170D01*
X+5965554Y+6770569D01*
X+5943919Y+6782158D01*
X+5919606Y+6789460D01*
X+5893000Y+6792000D01*
X+6020000Y+6665000D02*
X+6017564Y+6638394D01*
X+6010515Y+6614081D01*
X+5999238Y+6592446D01*
X+5984122Y+6573878D01*
X+5965554Y+6558762D01*
X+5943919Y+6547485D01*
X+5919606Y+6540436D01*
X+5893000Y+6538000D01*
X+5893000Y+6792000D02*
X+5893000Y+6919000D01*
X+6655000Y+6411000D02*
X+6655000Y+6919000D01*
X+5893000Y+6411000D02*
X+6655000Y+6411000D01*
X+5893000Y+6919000D02*
X+6655000Y+6919000D01*
X+5760920Y+6538000D02*
X+5837120Y+6538000D01*
X+5852360Y+6553875D01*
X+5852360Y+6617375D01*
X+5837120Y+6633250D01*
X+5760920Y+6633250D01*
X+5806640Y+6696750D02*
X+5791400Y+6680875D01*
X+5776160Y+6680875D01*
X+5760920Y+6696750D01*
X+5760920Y+6744375D01*
X+5776160Y+6760250D01*
X+5791400Y+6760250D01*
X+5806640Y+6744375D01*
X+5806640Y+6696750D01*
X+5821880Y+6680875D01*
X+5837120Y+6680875D01*
X+5852360Y+6696750D01*
X+5852360Y+6744375D01*
X+5837120Y+6760250D01*
X+5821880Y+6760250D01*
X+5806640Y+6744375D01*
X+5390000Y+6157000D02*
X+5390000Y+6284000D01*
X+5326500Y+6284000D02*
X+5453500Y+6284000D01*
X+5453500Y+7046000D01*
X+5326500Y+7046000D01*
X+5326500Y+6284000D01*
X+5390000Y+7046000D02*
X+5390000Y+7173000D01*
X+5285860Y+6474500D02*
X+5194420Y+6474500D01*
X+5194420Y+6553875D01*
X+5209660Y+6569750D01*
X+5224900Y+6569750D01*
X+5240140Y+6553875D01*
X+5240140Y+6474500D01*
X+5240140Y+6553875D02*
X+5255380Y+6569750D01*
X+5285860Y+6569750D01*
X+5209660Y+6617375D02*
X+5194420Y+6633250D01*
X+5194420Y+6680875D01*
X+5209660Y+6696750D01*
X+5224900Y+6696750D01*
X+5240140Y+6680875D01*
X+5240140Y+6633250D01*
X+5255380Y+6617375D01*
X+5285860Y+6617375D01*
X+5285860Y+6696750D01*
X+5209660Y+6744375D02*
X+5194420Y+6760250D01*
X+5194420Y+6807875D01*
X+5209660Y+6823750D01*
X+5224900Y+6823750D01*
X+5240140Y+6807875D01*
X+5255380Y+6823750D01*
X+5270620Y+6823750D01*
X+5285860Y+6807875D01*
X+5285860Y+6760250D01*
X+5270620Y+6744375D01*
X+5240140Y+6776125D02*
X+5240140Y+6807875D01*
X+7060000Y+7046000D02*
X+7060000Y+6919000D01*
X+6996500Y+6411000D02*
X+7123500Y+6411000D01*
X+7123500Y+6919000D01*
X+6996500Y+6919000D01*
X+6996500Y+6411000D01*
X+7060000Y+6411000D02*
X+7060000Y+6284000D01*
X+7255580Y+6474500D02*
X+7164140Y+6474500D01*
X+7164140Y+6553875D01*
X+7179380Y+6569750D01*
X+7194620Y+6569750D01*
X+7209860Y+6553875D01*
X+7209860Y+6474500D01*
X+7209860Y+6553875D02*
X+7225100Y+6569750D01*
X+7255580Y+6569750D01*
X+7179380Y+6617375D02*
X+7164140Y+6633250D01*
X+7164140Y+6680875D01*
X+7179380Y+6696750D01*
X+7194620Y+6696750D01*
X+7209860Y+6680875D01*
X+7209860Y+6633250D01*
X+7225100Y+6617375D01*
X+7255580Y+6617375D01*
X+7255580Y+6696750D01*
X+7225100Y+6823750D02*
X+7225100Y+6728500D01*
X+7164140Y+6792000D01*
X+7255580Y+6792000D01*
X+5779000Y+8361500D02*
X+6541000Y+8361500D01*
X+6541000Y+8615500D01*
X+5779000Y+8615500D01*
X+5779000Y+8361500D01*
X+6541000Y+8361500D02*
X+6541000Y+8234500D01*
X+5779000Y+8234500D01*
X+5779000Y+8361500D01*
X+6541000Y+8361500D02*
X+6414000Y+8234500D01*
X+6414000Y+8361500D02*
X+6287000Y+8234500D01*
X+6287000Y+8361500D02*
X+6160000Y+8234500D01*
X+6160000Y+8361500D02*
X+6033000Y+8234500D01*
X+6033000Y+8361500D02*
X+5906000Y+8234500D01*
X+5906000Y+8361500D02*
X+5779000Y+8234500D01*
X+6033000Y+8193860D02*
X+6033000Y+8117660D01*
X+6048875Y+8102420D01*
X+6112375Y+8102420D01*
X+6128250Y+8117660D01*
X+6128250Y+8193860D01*
X+6255250Y+8163380D02*
X+6239375Y+8148140D01*
X+6191750Y+8148140D01*
X+6175875Y+8163380D01*
X+6175875Y+8178620D01*
X+6191750Y+8193860D01*
X+6239375Y+8193860D01*
X+6255250Y+8178620D01*
X+6255250Y+8117660D01*
X+6239375Y+8102420D01*
X+6191750Y+8102420D01*
X+4400000Y+7565000D02*
X+7900000Y+7565000D01*
X+7900000Y+8805000D01*
X+4400000Y+8805000D01*
X+4400000Y+7565000D01*
X+5313000Y+9296000D02*
X+7091000Y+9296000D01*
X+7091000Y+9804000D01*
X+5313000Y+9804000D01*
X+5313000Y+9296000D01*
X+4976750Y+9369160D02*
X+4960875Y+9353920D01*
X+4913250Y+9353920D01*
X+4881500Y+9384400D01*
X+4881500Y+9414880D01*
X+4913250Y+9445360D01*
X+4960875Y+9445360D01*
X+4976750Y+9430120D01*
X+5040250Y+9414880D02*
X+5072000Y+9445360D01*
X+5072000Y+9353920D01*
X+5167250Y+9414880D02*
X+5199000Y+9445360D01*
X+5199000Y+9353920D01*
X+5567000Y+9100000D02*
X+5694000Y+9100000D01*
X+5694000Y+8973000D02*
X+6710000Y+8973000D01*
X+6710000Y+9227000D01*
X+5694000Y+9227000D01*
X+5694000Y+8973000D01*
X+6710000Y+9100000D02*
X+6837000Y+9100000D01*
X+7151500Y+9077640D02*
X+7151500Y+9169080D01*
X+7230875Y+9169080D01*
X+7246750Y+9153840D01*
X+7246750Y+9138600D01*
X+7230875Y+9123360D01*
X+7151500Y+9123360D01*
X+7230875Y+9123360D02*
X+7246750Y+9108120D01*
X+7246750Y+9077640D01*
X+7310250Y+9138600D02*
X+7342000Y+9169080D01*
X+7342000Y+9077640D01*
X+7500750Y+9153840D02*
X+7484875Y+9169080D01*
X+7437250Y+9169080D01*
X+7421375Y+9153840D01*
X+7421375Y+9092880D01*
X+7437250Y+9077640D01*
X+7484875Y+9077640D01*
X+7500750Y+9092880D01*
X+7500750Y+9108120D01*
X+7484875Y+9123360D01*
X+7421375Y+9123360D01*
X+3110000Y+6450000D02*
X+4080000Y+6450000D01*
X+4080000Y+9380000D01*
X+3110000Y+9380000D01*
X+3110000Y+6450000D01*
X+3280000Y+6540000D02*
X+3880000Y+6540000D01*
X+3880000Y+9300000D01*
X+3280000Y+9300000D01*
X+3280000Y+6540000D01*
X+3360000Y+7170000D02*
X+3810000Y+7170000D01*
X+3810000Y+8760000D01*
X+3360000Y+8760000D01*
X+3360000Y+7170000D01*
X+3370000Y+8770000D02*
X+3800000Y+8770000D01*
X+3800000Y+9260000D01*
X+3370000Y+9260000D01*
X+3370000Y+8770000D01*
X+3370000Y+6580000D02*
X+3800000Y+6580000D01*
X+3800000Y+7170000D01*
X+3370000Y+7170000D01*
X+3370000Y+6580000D01*
X+3069360Y+7788000D02*
X+2977920Y+7788000D01*
X+2977920Y+7883250D01*
X+3023640Y+7788000D02*
X+3023640Y+7851500D01*
X+2993160Y+7930875D02*
X+2977920Y+7946750D01*
X+2977920Y+7994375D01*
X+2993160Y+8010250D01*
X+3008400Y+8010250D01*
X+3023640Y+7994375D01*
X+3023640Y+7946750D01*
X+3038880Y+7930875D01*
X+3069360Y+7930875D01*
X+3069360Y+8010250D01*
X+4013000Y+3220000D02*
X+3886000Y+3220000D01*
X+3378000Y+3156500D02*
X+3886000Y+3156500D01*
X+3886000Y+3283500D01*
X+3378000Y+3283500D01*
X+3378000Y+3156500D01*
X+3378000Y+3220000D02*
X+3251000Y+3220000D01*
X+3441500Y+3024420D02*
X+3441500Y+3115860D01*
X+3520875Y+3115860D01*
X+3536750Y+3100620D01*
X+3536750Y+3085380D01*
X+3520875Y+3070140D01*
X+3441500Y+3070140D01*
X+3520875Y+3070140D02*
X+3536750Y+3054900D01*
X+3536750Y+3024420D01*
X+3600250Y+3085380D02*
X+3632000Y+3115860D01*
X+3632000Y+3024420D01*
X+3695500Y+3039660D02*
X+3695500Y+3100620D01*
X+3711375Y+3115860D01*
X+3774875Y+3115860D01*
X+3790750Y+3100620D01*
X+3790750Y+3039660D01*
X+3774875Y+3024420D01*
X+3711375Y+3024420D01*
X+3695500Y+3039660D01*
X+3695500Y+3024420D02*
X+3790750Y+3115860D01*
X+12634484Y+795305D02*
X+12634484Y+886745D01*
X+12729734Y+795305D01*
X+12729734Y+886745D01*
X+12856734Y+795305D02*
X+12761484Y+795305D01*
X+12761484Y+886745D01*
X+12856734Y+886745D01*
X+12761484Y+841025D02*
X+12824984Y+841025D01*
X+12888484Y+886745D02*
X+12888484Y+810545D01*
X+12904359Y+795305D01*
X+12967859Y+795305D01*
X+12983734Y+810545D01*
X+12983734Y+886745D01*
X+13015484Y+886745D02*
X+13110734Y+886745D01*
X+13063109Y+886745D02*
X+13063109Y+795305D01*
X+13142484Y+795305D02*
X+13142484Y+886745D01*
X+13221859Y+886745D01*
X+13237734Y+871505D01*
X+13237734Y+856265D01*
X+13221859Y+841025D01*
X+13142484Y+841025D01*
X+13221859Y+841025D02*
X+13237734Y+825785D01*
X+13237734Y+795305D01*
X+13269484Y+856265D02*
X+13301234Y+886745D01*
X+13332984Y+886745D01*
X+13364734Y+856265D01*
X+13364734Y+825785D01*
X+13332984Y+795305D01*
X+13301234Y+795305D01*
X+13269484Y+825785D01*
X+13269484Y+856265D01*
X+12744484Y+5105305D02*
X+12744484Y+5196745D01*
X+12839734Y+5105305D01*
X+12839734Y+5196745D01*
X+12966734Y+5105305D02*
X+12871484Y+5105305D01*
X+12871484Y+5196745D01*
X+12966734Y+5196745D01*
X+12871484Y+5151025D02*
X+12934984Y+5151025D01*
X+12998484Y+5196745D02*
X+12998484Y+5120545D01*
X+13014359Y+5105305D01*
X+13077859Y+5105305D01*
X+13093734Y+5120545D01*
X+13093734Y+5196745D01*
X+13125484Y+5196745D02*
X+13220734Y+5196745D01*
X+13173109Y+5196745D02*
X+13173109Y+5105305D01*
X+13252484Y+5105305D02*
X+13252484Y+5196745D01*
X+13331859Y+5196745D01*
X+13347734Y+5181505D01*
X+13347734Y+5166265D01*
X+13331859Y+5151025D01*
X+13252484Y+5151025D01*
X+13331859Y+5151025D02*
X+13347734Y+5135785D01*
X+13347734Y+5105305D01*
X+13379484Y+5166265D02*
X+13411234Y+5196745D01*
X+13442984Y+5196745D01*
X+13474734Y+5166265D01*
X+13474734Y+5135785D01*
X+13442984Y+5105305D01*
X+13411234Y+5105305D01*
X+13379484Y+5135785D01*
X+13379484Y+5166265D01*
X+12933851Y+2250268D02*
X+12933851Y+2174068D01*
X+12949726Y+2158828D01*
X+13013226Y+2158828D01*
X+13029101Y+2174068D01*
X+13029101Y+2250268D01*
X+13060851Y+2250268D02*
X+13060851Y+2204548D01*
X+13108476Y+2158828D01*
X+13156101Y+2204548D01*
X+13156101Y+2250268D01*
X+12773851Y+3900268D02*
X+12773851Y+3808828D01*
X+12869101Y+3808828D01*
X+12900851Y+3900268D02*
X+12900851Y+3824068D01*
X+12916726Y+3808828D01*
X+12980226Y+3808828D01*
X+12996101Y+3824068D01*
X+12996101Y+3900268D01*
X+13027851Y+3900268D02*
X+13123101Y+3900268D01*
X+13027851Y+3808828D01*
X+13123101Y+3808828D01*
X+12653851Y+3628828D02*
X+12653851Y+3720268D01*
X+12733226Y+3720268D01*
X+12749101Y+3705028D01*
X+12749101Y+3689788D01*
X+12733226Y+3674548D01*
X+12749101Y+3659308D01*
X+12749101Y+3644068D01*
X+12733226Y+3628828D01*
X+12653851Y+3628828D01*
X+12653851Y+3674548D02*
X+12733226Y+3674548D01*
X+12780851Y+3720268D02*
X+12780851Y+3628828D01*
X+12876101Y+3628828D01*
X+12907851Y+3628828D02*
X+12907851Y+3689788D01*
X+12939601Y+3720268D01*
X+12971351Y+3720268D01*
X+13003101Y+3689788D01*
X+13003101Y+3628828D01*
X+12907851Y+3659308D02*
X+13003101Y+3659308D01*
X+13034851Y+3628828D02*
X+13034851Y+3720268D01*
X+13130101Y+3628828D01*
X+13130101Y+3720268D01*
X+13257101Y+3644068D02*
X+13241226Y+3628828D01*
X+13193601Y+3628828D01*
X+13161851Y+3659308D01*
X+13161851Y+3689788D01*
X+13193601Y+3720268D01*
X+13241226Y+3720268D01*
X+13257101Y+3705028D01*
X+13288851Y+3628828D02*
X+13288851Y+3689788D01*
X+13320601Y+3720268D01*
X+13352351Y+3720268D01*
X+13384101Y+3689788D01*
X+13384101Y+3628828D01*
X+13288851Y+3659308D02*
X+13384101Y+3659308D01*
X+2181649Y+3138464D02*
X+2074969Y+3138464D01*
X+2074969Y+3233714D01*
X+2092749Y+3252764D01*
X+2110529Y+3252764D01*
X+2128309Y+3233714D01*
X+2146089Y+3252764D01*
X+2163869Y+3252764D01*
X+2181649Y+3233714D01*
X+2181649Y+3138464D01*
X+2128309Y+3138464D02*
X+2128309Y+3233714D01*
X+2128309Y+3290864D02*
X+2110529Y+3309914D01*
X+2110529Y+3386114D01*
X+2128309Y+3405164D01*
X+2163869Y+3405164D01*
X+2181649Y+3386114D01*
X+2181649Y+3309914D01*
X+2163869Y+3290864D01*
X+2128309Y+3290864D01*
X+2128309Y+3557564D02*
X+2110529Y+3538514D01*
X+2110529Y+3462314D01*
X+2128309Y+3443264D01*
X+2146089Y+3443264D01*
X+2163869Y+3462314D01*
X+2163869Y+3538514D01*
X+2146089Y+3557564D01*
X+2110529Y+3557564D02*
X+2181649Y+3557564D01*
X+2199429Y+3538514D01*
X+2199429Y+3443264D01*
X+2128309Y+3595664D02*
X+2110529Y+3614714D01*
X+2110529Y+3690914D01*
X+2128309Y+3709964D01*
X+2163869Y+3709964D01*
X+2181649Y+3690914D01*
X+2181649Y+3614714D01*
X+2163869Y+3595664D01*
X+2128309Y+3595664D01*
X+2074969Y+3767114D02*
X+2163869Y+3767114D01*
X+2181649Y+3786164D01*
X+2181649Y+3843314D01*
X+2163869Y+3862364D01*
X+2110529Y+3748064D02*
X+2110529Y+3843314D01*
X+2110529Y+3919514D02*
X+2110529Y+3995714D01*
X+2128309Y+4014764D01*
X+2181649Y+4014764D01*
X+2181649Y+3919514D01*
X+2163869Y+3900464D01*
X+2146089Y+3919514D01*
X+2146089Y+4014764D01*
X+2128309Y+4071914D02*
X+2128309Y+4167164D01*
X+2163869Y+4319564D02*
X+2181649Y+4300514D01*
X+2181649Y+4243364D01*
X+2146089Y+4205264D01*
X+2110529Y+4205264D01*
X+2074969Y+4243364D01*
X+2074969Y+4300514D01*
X+2092749Y+4319564D01*
X+2128309Y+4357664D02*
X+2110529Y+4376714D01*
X+2110529Y+4452914D01*
X+2128309Y+4471964D01*
X+2163869Y+4471964D01*
X+2181649Y+4452914D01*
X+2181649Y+4376714D01*
X+2163869Y+4357664D01*
X+2128309Y+4357664D01*
X+2074969Y+4567214D02*
X+2181649Y+4567214D01*
X+2128309Y+4662464D02*
X+2110529Y+4681514D01*
X+2110529Y+4757714D01*
X+2128309Y+4776764D01*
X+2163869Y+4776764D01*
X+2181649Y+4757714D01*
X+2181649Y+4681514D01*
X+2163869Y+4662464D01*
X+2128309Y+4662464D01*
X+2181649Y+4814864D02*
X+2110529Y+4814864D01*
X+2128309Y+4814864D02*
X+2110529Y+4833914D01*
X+2146089Y+4872014D01*
X+2110529Y+4910114D01*
X+2128309Y+4929164D01*
X+2181649Y+4929164D01*
X+2128309Y+4967264D02*
X+2110529Y+4986314D01*
X+2110529Y+5062514D01*
X+2128309Y+5081564D01*
X+2163869Y+5081564D01*
X+2181649Y+5062514D01*
X+2181649Y+4986314D01*
X+2163869Y+4967264D01*
X+2181649Y+4967264D02*
X+2074969Y+4967264D01*
X+2110529Y+5176814D02*
X+2181649Y+5176814D01*
X+2074969Y+5176814D02*
X+2074969Y+5176814D01*
X+2110529Y+5291114D02*
X+2110529Y+5367314D01*
X+2128309Y+5386364D01*
X+2181649Y+5386364D01*
X+2181649Y+5291114D01*
X+2163869Y+5272064D01*
X+2146089Y+5291114D01*
X+2146089Y+5386364D01*
X+1840529Y+2898464D02*
X+1893869Y+2898464D01*
X+1911649Y+2917514D01*
X+1876089Y+2955614D01*
X+1911649Y+2993714D01*
X+1893869Y+3012764D01*
X+1840529Y+3012764D01*
X+1840529Y+3050864D02*
X+1893869Y+3050864D01*
X+1911649Y+3069914D01*
X+1876089Y+3108014D01*
X+1911649Y+3146114D01*
X+1893869Y+3165164D01*
X+1840529Y+3165164D01*
X+1840529Y+3203264D02*
X+1893869Y+3203264D01*
X+1911649Y+3222314D01*
X+1876089Y+3260414D01*
X+1911649Y+3298514D01*
X+1893869Y+3317564D01*
X+1840529Y+3317564D01*
X+1893869Y+3412814D02*
X+1893869Y+3431864D01*
X+1911649Y+3431864D01*
X+1911649Y+3412814D01*
X+1893869Y+3412814D01*
X+1911649Y+3508064D02*
X+1929429Y+3527114D01*
X+1929429Y+3584264D01*
X+1911649Y+3603314D01*
X+1840529Y+3603314D01*
X+1804969Y+3603314D02*
X+1804969Y+3603314D01*
X+1929429Y+3660464D02*
X+1840529Y+3660464D01*
X+1858309Y+3660464D02*
X+1840529Y+3679514D01*
X+1840529Y+3755714D01*
X+1858309Y+3774764D01*
X+1876089Y+3774764D01*
X+1893869Y+3755714D01*
X+1893869Y+3679514D01*
X+1876089Y+3660464D01*
X+1840529Y+3870014D02*
X+1911649Y+3870014D01*
X+1804969Y+3870014D02*
X+1804969Y+3870014D01*
X+1911649Y+3965264D02*
X+1840529Y+3965264D01*
X+1858309Y+3965264D02*
X+1840529Y+3984314D01*
X+1840529Y+4060514D01*
X+1858309Y+4079564D01*
X+1911649Y+4079564D01*
X+1858309Y+4231964D02*
X+1840529Y+4212914D01*
X+1840529Y+4136714D01*
X+1858309Y+4117664D01*
X+1876089Y+4117664D01*
X+1893869Y+4136714D01*
X+1893869Y+4212914D01*
X+1876089Y+4231964D01*
X+1840529Y+4231964D02*
X+1911649Y+4231964D01*
X+1929429Y+4212914D01*
X+1929429Y+4117664D01*
X+1804969Y+4327214D02*
X+1911649Y+4327214D01*
X+1858309Y+4422464D02*
X+1840529Y+4441514D01*
X+1840529Y+4517714D01*
X+1858309Y+4536764D01*
X+1893869Y+4536764D01*
X+1911649Y+4517714D01*
X+1911649Y+4441514D01*
X+1893869Y+4422464D01*
X+1858309Y+4422464D01*
X+1858309Y+4574864D02*
X+1840529Y+4593914D01*
X+1840529Y+4670114D01*
X+1858309Y+4689164D01*
X+1893869Y+4689164D01*
X+1911649Y+4670114D01*
X+1911649Y+4593914D01*
X+1893869Y+4574864D01*
X+1911649Y+4574864D02*
X+1804969Y+4574864D01*
X+1840529Y+4746314D02*
X+1840529Y+4822514D01*
X+1858309Y+4841564D01*
X+1911649Y+4841564D01*
X+1911649Y+4746314D01*
X+1893869Y+4727264D01*
X+1876089Y+4746314D01*
X+1876089Y+4841564D01*
X+1804969Y+4936814D02*
X+1911649Y+4936814D01*
X+1893869Y+5089214D02*
X+1893869Y+5108264D01*
X+1911649Y+5108264D01*
X+1911649Y+5089214D01*
X+1893869Y+5089214D01*
X+1858309Y+5298764D02*
X+1840529Y+5279714D01*
X+1840529Y+5203514D01*
X+1858309Y+5184464D01*
X+1893869Y+5184464D01*
X+1911649Y+5203514D01*
X+1911649Y+5279714D01*
X+1893869Y+5298764D01*
X+1858309Y+5336864D02*
X+1840529Y+5355914D01*
X+1840529Y+5432114D01*
X+1858309Y+5451164D01*
X+1893869Y+5451164D01*
X+1911649Y+5432114D01*
X+1911649Y+5355914D01*
X+1893869Y+5336864D01*
X+1858309Y+5336864D01*
X+1911649Y+5489264D02*
X+1840529Y+5489264D01*
X+1858309Y+5489264D02*
X+1840529Y+5508314D01*
X+1876089Y+5546414D01*
X+1840529Y+5584514D01*
X+1858309Y+5603564D01*
X+1911649Y+5603564D01*
X+1444969Y+3797514D02*
X+1444969Y+3873714D01*
X+1444969Y+3835614D02*
X+1551649Y+3835614D01*
X+1551649Y+3797514D02*
X+1551649Y+3873714D01*
X+1551649Y+3930864D02*
X+1444969Y+3930864D01*
X+1444969Y+4026114D01*
X+1462749Y+4045164D01*
X+1480529Y+4045164D01*
X+1498309Y+4026114D01*
X+1498309Y+3930864D01*
X+1498309Y+4026114D02*
X+1516089Y+4045164D01*
X+1551649Y+4045164D01*
X+1551649Y+4083264D02*
X+1444969Y+4083264D01*
X+1498309Y+4140414D01*
X+1444969Y+4197564D01*
X+1551649Y+4197564D01*
X+1498309Y+4254714D02*
X+1498309Y+4349964D01*
X+1462749Y+4407114D02*
X+1444969Y+4426164D01*
X+1444969Y+4483314D01*
X+1462749Y+4502364D01*
X+1480529Y+4502364D01*
X+1498309Y+4483314D01*
X+1498309Y+4426164D01*
X+1516089Y+4407114D01*
X+1551649Y+4407114D01*
X+1551649Y+4502364D01*
X+1533869Y+4540464D02*
X+1462749Y+4540464D01*
X+1444969Y+4559514D01*
X+1444969Y+4635714D01*
X+1462749Y+4654764D01*
X+1533869Y+4654764D01*
X+1551649Y+4635714D01*
X+1551649Y+4559514D01*
X+1533869Y+4540464D01*
X+1551649Y+4540464D02*
X+1444969Y+4654764D01*
X+1498309Y+4711914D02*
X+1498309Y+4807164D01*
X+1444969Y+4959564D02*
X+1444969Y+4864314D01*
X+1480529Y+4864314D01*
X+1480529Y+4940514D01*
X+1498309Y+4959564D01*
X+1533869Y+4959564D01*
X+1551649Y+4940514D01*
X+1551649Y+4883364D01*
X+1533869Y+4864314D01*
X+12433851Y+2774068D02*
X+12433851Y+2835028D01*
X+12449726Y+2850268D01*
X+12513226Y+2850268D01*
X+12529101Y+2835028D01*
X+12529101Y+2774068D01*
X+12513226Y+2758828D01*
X+12449726Y+2758828D01*
X+12433851Y+2774068D01*
X+12433851Y+2758828D02*
X+12529101Y+2850268D01*
X+12608476Y+2774068D02*
X+12624351Y+2774068D01*
X+12624351Y+2758828D01*
X+12608476Y+2758828D01*
X+12608476Y+2774068D01*
X+12783101Y+2850268D02*
X+12703726Y+2850268D01*
X+12703726Y+2819788D01*
X+12767226Y+2819788D01*
X+12783101Y+2804548D01*
X+12783101Y+2774068D01*
X+12767226Y+2758828D01*
X+12719601Y+2758828D01*
X+12703726Y+2774068D01*
X+12814851Y+2758828D02*
X+12814851Y+2819788D01*
X+12846601Y+2850268D01*
X+12878351Y+2850268D01*
X+12910101Y+2819788D01*
X+12910101Y+2758828D01*
X+12814851Y+2789308D02*
X+12910101Y+2789308D01*
X+12533851Y+5824068D02*
X+12533851Y+5885028D01*
X+12549726Y+5900268D01*
X+12613226Y+5900268D01*
X+12629101Y+5885028D01*
X+12629101Y+5824068D01*
X+12613226Y+5808828D01*
X+12549726Y+5808828D01*
X+12533851Y+5824068D01*
X+12533851Y+5808828D02*
X+12629101Y+5900268D01*
X+12708476Y+5824068D02*
X+12724351Y+5824068D01*
X+12724351Y+5808828D01*
X+12708476Y+5808828D01*
X+12708476Y+5824068D01*
X+12883101Y+5900268D02*
X+12803726Y+5900268D01*
X+12803726Y+5869788D01*
X+12867226Y+5869788D01*
X+12883101Y+5854548D01*
X+12883101Y+5824068D01*
X+12867226Y+5808828D01*
X+12819601Y+5808828D01*
X+12803726Y+5824068D01*
X+12914851Y+5808828D02*
X+12914851Y+5869788D01*
X+12946601Y+5900268D01*
X+12978351Y+5900268D01*
X+13010101Y+5869788D01*
X+13010101Y+5808828D01*
X+12914851Y+5839308D02*
X+13010101Y+5839308D01*
M02*
