G04 PROTEUS GERBER X2 FILE*
%TF.GenerationSoftware,Labcenter,Proteus,8.7-SP3-Build25561*%
%TF.CreationDate,2018-09-19T21:32:30+00:00*%
%TF.FileFunction,Legend,Bot*%
%TF.FilePolarity,Positive*%
%TF.Part,Single*%
%TF.SameCoordinates,{e3305a46-ce47-47b3-9e58-762d23285141}*%
%FSLAX45Y45*%
%MOMM*%
G01*
%TA.AperFunction,Profile*%
%ADD23C,0.203200*%
%TA.AperFunction,Material*%
%ADD27C,0.203200*%
%TD.AperFunction*%
D23*
X+0Y-20000D02*
X+13561600Y-20000D01*
X+13561600Y+10438000D01*
X+0Y+10438000D01*
X+0Y-20000D01*
D27*
X+1280000Y+140000D02*
X+2480000Y+140000D01*
X+2480000Y+1340000D01*
X+1280000Y+1340000D01*
X+1280000Y+140000D01*
X+2030000Y-260000D02*
X+2130000Y-260000D01*
X+2130000Y+140000D01*
X+2030000Y+140000D01*
X+2030000Y-260000D01*
X+1630000Y-260000D02*
X+1730000Y-260000D01*
X+1730000Y+140000D01*
X+1630000Y+140000D01*
X+1630000Y-260000D01*
X+1184040Y+156560D02*
X+1168165Y+141320D01*
X+1104665Y+141320D01*
X+1088790Y+156560D01*
X+1088790Y+171800D01*
X+1104665Y+187040D01*
X+1168165Y+187040D01*
X+1184040Y+202280D01*
X+1184040Y+217520D01*
X+1168165Y+232760D01*
X+1104665Y+232760D01*
X+1088790Y+217520D01*
X+1057040Y+141320D02*
X+1057040Y+232760D01*
X+977665Y+232760D01*
X+961790Y+217520D01*
X+961790Y+202280D01*
X+977665Y+187040D01*
X+1057040Y+187040D01*
X+898290Y+202280D02*
X+866540Y+232760D01*
X+866540Y+141320D01*
X+6781800Y+3417500D02*
X+6685280Y+3417500D01*
X+6781800Y+3135560D02*
X+6682740Y+3135560D01*
X+6578600Y+3455600D02*
X+6578600Y+3506400D01*
X+6604000Y+3481000D02*
X+6553200Y+3481000D01*
X+7164070Y+3272720D02*
X+7179945Y+3257480D01*
X+7227570Y+3257480D01*
X+7259320Y+3287960D01*
X+7259320Y+3318440D01*
X+7227570Y+3348920D01*
X+7179945Y+3348920D01*
X+7164070Y+3333680D01*
X+7037070Y+3287960D02*
X+7132320Y+3287960D01*
X+7068820Y+3348920D01*
X+7068820Y+3257480D01*
X+6334760Y+4166800D02*
X+6238240Y+4166800D01*
X+6334760Y+3884860D02*
X+6235700Y+3884860D01*
X+6131560Y+4204900D02*
X+6131560Y+4255700D01*
X+6156960Y+4230300D02*
X+6106160Y+4230300D01*
X+6724650Y+4077900D02*
X+6740525Y+4062660D01*
X+6788150Y+4062660D01*
X+6819900Y+4093140D01*
X+6819900Y+4123620D01*
X+6788150Y+4154100D01*
X+6740525Y+4154100D01*
X+6724650Y+4138860D01*
X+6597650Y+4154100D02*
X+6677025Y+4154100D01*
X+6677025Y+4123620D01*
X+6613525Y+4123620D01*
X+6597650Y+4108380D01*
X+6597650Y+4077900D01*
X+6613525Y+4062660D01*
X+6661150Y+4062660D01*
X+6677025Y+4077900D01*
M02*
