M48
INCH
T01C0.0300
T02C0.0400
T03C0.0600
T04C0.1181
T05C0.0700
%
T01
X+016102Y+009133
X+017102Y+009133
X+018102Y+009133
X+019102Y+009133
X+020102Y+009133
X+021102Y+009133
X+022102Y+009133
X+023102Y+009133
X+024102Y+009133
X+025102Y+009133
X+026102Y+009133
X+027102Y+009133
X+028102Y+009133
X+029102Y+009133
X+030102Y+009133
X+031102Y+009133
X+032102Y+009133
X+033102Y+009133
X+034102Y+009133
X+035102Y+009133
X+035102Y+015133
X+034102Y+015133
X+033102Y+015133
X+032102Y+015133
X+031102Y+015133
X+030102Y+015133
X+029102Y+015133
X+028102Y+015133
X+027102Y+015133
X+026102Y+015133
X+025102Y+015133
X+024102Y+015133
X+023102Y+015133
X+022102Y+015133
X+021102Y+015133
X+020102Y+015133
X+019102Y+015133
X+018102Y+015133
X+017102Y+015133
X+016102Y+015133
X+021314Y+004685
X+021314Y+000685
X+022456Y+004685
X+022456Y+000685
X+023677Y+004685
X+023677Y+000685
X+024818Y+004685
X+024818Y+000685
X+019543Y+004094
X+019543Y+008094
X+014940Y+011125
X+014940Y+007125
X+035400Y+006178
X+035400Y+008178
X+029645Y+016902
X+031645Y+016902
X+030645Y+019106
X+028252Y+011179
X+030252Y+011179
X+030282Y+007696
X+030282Y+005696
X+031387Y+007696
X+031387Y+005696
X+035471Y+020392
X+035471Y+016392
X+034451Y+020392
X+034451Y+016392
X+022414Y+026809
X+026414Y+026809
X+033391Y+020392
X+033391Y+016392
X+030404Y+023075
X+031404Y+023075
X+032404Y+023075
X+032404Y+026075
X+031404Y+026075
X+030404Y+026075
X+023414Y+023075
X+024414Y+023075
X+025414Y+023075
X+025414Y+026075
X+024414Y+026075
X+023414Y+026075
X+016984Y+023075
X+017984Y+023075
X+018984Y+023075
X+018984Y+026075
X+017984Y+026075
X+016984Y+026075
X+029404Y+026819
X+033404Y+026819
X+015984Y+026819
X+019984Y+026819
X+013670Y+013130
X+012670Y+013130
X+014810Y+015270
X+012810Y+015270
X+034890Y+005010
X+034890Y+004210
X+034890Y+003410
X+033640Y+008390
X+033640Y+004390
X+012150Y+007055
X+012150Y+011055
T02
X+021314Y+006732
X+022314Y+006732
X+023314Y+006732
X+024314Y+006732
X+025314Y+006732
X+026314Y+006732
X+027314Y+006732
X+028314Y+006732
X+027847Y+018928
X+026847Y+018928
X+025847Y+018928
X+024847Y+018928
X+023847Y+018928
X+022847Y+018928
X+021847Y+018928
X+020847Y+018928
X+019847Y+018928
X+018847Y+018928
X+017847Y+018928
X+016847Y+018928
X+015847Y+018928
X+014847Y+018928
X+013847Y+018928
X+012847Y+018928
X+032404Y+029874
X+031404Y+029874
X+030404Y+029874
X+025414Y+029844
X+024414Y+029844
X+023414Y+029844
X+018984Y+029874
X+017984Y+029874
X+016984Y+029874
X+029050Y+002560
X+032081Y+002560
X+013070Y+009720
X+014070Y+009720
T03
X+013740Y+002716
X+015740Y+002716
X+011167Y+032912
X+013167Y+032912
X+030433Y+032946
X+032433Y+032946
X+023743Y+032946
X+025743Y+032946
X+017293Y+032946
X+019293Y+032946
X+001940Y+024840
X+010128Y+024840
X+001940Y+007084
X+005089Y+007084
T04
X+001732Y+001574
X+034645Y+001535
X+001614Y+034212
X+035000Y+034370
T05
X+003360Y+028364
X+012454Y+028364
M30
