  0
SECTION
  2
HEADER
  9
$ACADVER
  1
AC2.10
  0
ENDSEC
  0
SECTION
  2
TABLES
  0
TABLE
  2
LAYER
 70
     8
  0
LAYER
  2
0
 62
     7
 70
0
  6
CONTINUOUS
  0
LAYER
  2
1
 62
     1
 70
0
  6
CONTINUOUS
  0
LAYER
  2
2
 62
     2
 70
0
  6
CONTINUOUS
  0
LAYER
  2
3
 62
     3
 70
0
  6
CONTINUOUS
  0
LAYER
  2
4
 62
     4
 70
0
  6
CONTINUOUS
  0
LAYER
  2
5
 62
     5
 70
0
  6
CONTINUOUS
  0
LAYER
  2
6
 62
     6
 70
0
  6
CONTINUOUS
  0
LAYER
  2
7
 62
     7
 70
0
  6
CONTINUOUS
  0
ENDTAB
  0
TABLE
  2
STYLE
 70
     1
  0
STYLE
 70
     0
  2
STANDARD
  3
TXT
 40
0.00
 41
1.00
 42
1.00
 50
0.00
 71
     0
  0
ENDTAB
  0
ENDSEC
  0
SECTION
  2
BLOCKS
  0
BLOCK
  8
0
  2
EPAD
 70
0
 10
0.0
 20
0.0
  0
POLYLINE
  8
0
 66
1
 70
1
 40
0.5
 41
0.5
  0
VERTEX
  8
0
 10
-0.25
 20
0.0
 42
1.0
  0
VERTEX
  8
0
 10
0.25
 20
0.0
 42
1.0
  0
SEQEND
  8
0
  0
ENDBLK
  8
0
  0
BLOCK
  8
0
  2
RPAD
 70
0
 10
0.0
 20
0.0
  0
TRACE
  8
0
 10
-0.5
 20
-0.5
 11
-0.5
 21
0.5
 12
0.5
 22
-0.5
 13
0.5
 23
0.5
  0
ENDBLK
  8
0
  0
ENDSEC
0
SECTION
2
ENTITIES
0
INSERT
8
0
2
RPAD
10
-0.217000
20
-0.818000
41
0.050000
42
0.050000
50
0.000000
0
CIRCLE
8
0
10
-0.217000
20
-0.818000
40
0.030000
0
INSERT
8
0
2
EPAD
10
-0.117000
20
-0.818000
41
0.050000
42
0.050000
0
CIRCLE
8
0
10
-0.117000
20
-0.818000
40
0.030000
0
INSERT
8
0
2
EPAD
10
-0.017000
20
-0.818000
41
0.050000
42
0.050000
0
CIRCLE
8
0
10
-0.017000
20
-0.818000
40
0.030000
0
INSERT
8
0
2
EPAD
10
0.082000
20
-0.818000
41
0.050000
42
0.050000
0
CIRCLE
8
0
10
0.082000
20
-0.818000
40
0.030000
0
INSERT
8
0
2
EPAD
10
0.182000
20
-0.818000
41
0.050000
42
0.050000
0
CIRCLE
8
0
10
0.182000
20
-0.818000
40
0.030000
0
INSERT
8
0
2
EPAD
10
0.282000
20
-0.818000
41
0.050000
42
0.050000
0
CIRCLE
8
0
10
0.282000
20
-0.818000
40
0.030000
0
INSERT
8
0
2
EPAD
10
0.382000
20
-0.818000
41
0.050000
42
0.050000
0
CIRCLE
8
0
10
0.382000
20
-0.818000
40
0.030000
0
INSERT
8
0
2
EPAD
10
0.482000
20
-0.818000
41
0.050000
42
0.050000
0
CIRCLE
8
0
10
0.482000
20
-0.818000
40
0.030000
0
INSERT
8
0
2
EPAD
10
0.582000
20
-0.818000
41
0.050000
42
0.050000
0
CIRCLE
8
0
10
0.582000
20
-0.818000
40
0.030000
0
INSERT
8
0
2
EPAD
10
0.682000
20
-0.818000
41
0.050000
42
0.050000
0
CIRCLE
8
0
10
0.682000
20
-0.818000
40
0.030000
0
INSERT
8
0
2
EPAD
10
0.782000
20
-0.818000
41
0.050000
42
0.050000
0
CIRCLE
8
0
10
0.782000
20
-0.818000
40
0.030000
0
INSERT
8
0
2
EPAD
10
0.882000
20
-0.818000
41
0.050000
42
0.050000
0
CIRCLE
8
0
10
0.882000
20
-0.818000
40
0.030000
0
INSERT
8
0
2
EPAD
10
0.982000
20
-0.818000
41
0.050000
42
0.050000
0
CIRCLE
8
0
10
0.982000
20
-0.818000
40
0.030000
0
INSERT
8
0
2
EPAD
10
1.082000
20
-0.818000
41
0.050000
42
0.050000
0
CIRCLE
8
0
10
1.082000
20
-0.818000
40
0.030000
0
INSERT
8
0
2
EPAD
10
1.182000
20
-0.818000
41
0.050000
42
0.050000
0
CIRCLE
8
0
10
1.182000
20
-0.818000
40
0.030000
0
INSERT
8
0
2
EPAD
10
1.282000
20
-0.818000
41
0.050000
42
0.050000
0
CIRCLE
8
0
10
1.282000
20
-0.818000
40
0.030000
0
INSERT
8
0
2
EPAD
10
1.382000
20
-0.818000
41
0.050000
42
0.050000
0
CIRCLE
8
0
10
1.382000
20
-0.818000
40
0.030000
0
INSERT
8
0
2
EPAD
10
1.482000
20
-0.818000
41
0.050000
42
0.050000
0
CIRCLE
8
0
10
1.482000
20
-0.818000
40
0.030000
0
INSERT
8
0
2
EPAD
10
1.582000
20
-0.818000
41
0.050000
42
0.050000
0
CIRCLE
8
0
10
1.582000
20
-0.818000
40
0.030000
0
INSERT
8
0
2
EPAD
10
1.682000
20
-0.818000
41
0.050000
42
0.050000
0
CIRCLE
8
0
10
1.682000
20
-0.818000
40
0.030000
0
INSERT
8
0
2
EPAD
10
1.682000
20
-0.218000
41
0.050000
42
0.050000
0
CIRCLE
8
0
10
1.682000
20
-0.218000
40
0.030000
0
INSERT
8
0
2
EPAD
10
1.582000
20
-0.218000
41
0.050000
42
0.050000
0
CIRCLE
8
0
10
1.582000
20
-0.218000
40
0.030000
0
INSERT
8
0
2
EPAD
10
1.482000
20
-0.218000
41
0.050000
42
0.050000
0
CIRCLE
8
0
10
1.482000
20
-0.218000
40
0.030000
0
INSERT
8
0
2
EPAD
10
1.382000
20
-0.218000
41
0.050000
42
0.050000
0
CIRCLE
8
0
10
1.382000
20
-0.218000
40
0.030000
0
INSERT
8
0
2
EPAD
10
1.282000
20
-0.218000
41
0.050000
42
0.050000
0
CIRCLE
8
0
10
1.282000
20
-0.218000
40
0.030000
0
INSERT
8
0
2
EPAD
10
1.182000
20
-0.218000
41
0.050000
42
0.050000
0
CIRCLE
8
0
10
1.182000
20
-0.218000
40
0.030000
0
INSERT
8
0
2
EPAD
10
1.082000
20
-0.218000
41
0.050000
42
0.050000
0
CIRCLE
8
0
10
1.082000
20
-0.218000
40
0.030000
0
INSERT
8
0
2
EPAD
10
0.982000
20
-0.218000
41
0.050000
42
0.050000
0
CIRCLE
8
0
10
0.982000
20
-0.218000
40
0.030000
0
INSERT
8
0
2
EPAD
10
0.882000
20
-0.218000
41
0.050000
42
0.050000
0
CIRCLE
8
0
10
0.882000
20
-0.218000
40
0.030000
0
INSERT
8
0
2
EPAD
10
0.782000
20
-0.218000
41
0.050000
42
0.050000
0
CIRCLE
8
0
10
0.782000
20
-0.218000
40
0.030000
0
INSERT
8
0
2
EPAD
10
0.682000
20
-0.218000
41
0.050000
42
0.050000
0
CIRCLE
8
0
10
0.682000
20
-0.218000
40
0.030000
0
INSERT
8
0
2
EPAD
10
0.582000
20
-0.218000
41
0.050000
42
0.050000
0
CIRCLE
8
0
10
0.582000
20
-0.218000
40
0.030000
0
INSERT
8
0
2
EPAD
10
0.482000
20
-0.218000
41
0.050000
42
0.050000
0
CIRCLE
8
0
10
0.482000
20
-0.218000
40
0.030000
0
INSERT
8
0
2
EPAD
10
0.382000
20
-0.218000
41
0.050000
42
0.050000
0
CIRCLE
8
0
10
0.382000
20
-0.218000
40
0.030000
0
INSERT
8
0
2
EPAD
10
0.282000
20
-0.218000
41
0.050000
42
0.050000
0
CIRCLE
8
0
10
0.282000
20
-0.218000
40
0.030000
0
INSERT
8
0
2
EPAD
10
0.182000
20
-0.218000
41
0.050000
42
0.050000
0
CIRCLE
8
0
10
0.182000
20
-0.218000
40
0.030000
0
INSERT
8
0
2
EPAD
10
0.082000
20
-0.218000
41
0.050000
42
0.050000
0
CIRCLE
8
0
10
0.082000
20
-0.218000
40
0.030000
0
INSERT
8
0
2
EPAD
10
-0.017000
20
-0.218000
41
0.050000
42
0.050000
0
CIRCLE
8
0
10
-0.017000
20
-0.218000
40
0.030000
0
INSERT
8
0
2
EPAD
10
-0.117000
20
-0.218000
41
0.050000
42
0.050000
0
CIRCLE
8
0
10
-0.117000
20
-0.218000
40
0.030000
0
INSERT
8
0
2
EPAD
10
-0.217000
20
-0.218000
41
0.050000
42
0.050000
0
CIRCLE
8
0
10
-0.217000
20
-0.218000
40
0.030000
0
INSERT
8
0
2
EPAD
10
0.303000
20
-1.059000
41
0.080000
42
0.080000
0
CIRCLE
8
0
10
0.303000
20
-1.059000
40
0.010000
0
INSERT
8
0
2
EPAD
10
0.403000
20
-1.059000
41
0.080000
42
0.080000
0
CIRCLE
8
0
10
0.403000
20
-1.059000
40
0.010000
0
INSERT
8
0
2
EPAD
10
0.503000
20
-1.059000
41
0.080000
42
0.080000
0
CIRCLE
8
0
10
0.503000
20
-1.059000
40
0.010000
0
INSERT
8
0
2
EPAD
10
0.603000
20
-1.059000
41
0.080000
42
0.080000
0
CIRCLE
8
0
10
0.603000
20
-1.059000
40
0.010000
0
INSERT
8
0
2
EPAD
10
0.703000
20
-1.059000
41
0.080000
42
0.080000
0
CIRCLE
8
0
10
0.703000
20
-1.059000
40
0.010000
0
INSERT
8
0
2
EPAD
10
0.803000
20
-1.059000
41
0.080000
42
0.080000
0
CIRCLE
8
0
10
0.803000
20
-1.059000
40
0.010000
0
INSERT
8
0
2
EPAD
10
0.903000
20
-1.059000
41
0.080000
42
0.080000
0
CIRCLE
8
0
10
0.903000
20
-1.059000
40
0.010000
0
INSERT
8
0
2
EPAD
10
1.003000
20
-1.059000
41
0.080000
42
0.080000
0
CIRCLE
8
0
10
1.003000
20
-1.059000
40
0.010000
0
INSERT
8
0
2
EPAD
10
0.303000
20
-1.263000
41
0.070000
42
0.070000
0
CIRCLE
8
0
10
0.303000
20
-1.263000
40
0.025000
0
INSERT
8
0
2
EPAD
10
0.303000
20
-1.663000
41
0.070000
42
0.070000
0
CIRCLE
8
0
10
0.303000
20
-1.663000
40
0.025000
0
INSERT
8
0
2
EPAD
10
0.417000
20
-1.263000
41
0.070000
42
0.070000
0
CIRCLE
8
0
10
0.417000
20
-1.263000
40
0.025000
0
INSERT
8
0
2
EPAD
10
0.417000
20
-1.663000
41
0.070000
42
0.070000
0
CIRCLE
8
0
10
0.417000
20
-1.663000
40
0.025000
0
INSERT
8
0
2
EPAD
10
0.539000
20
-1.263000
41
0.070000
42
0.070000
0
CIRCLE
8
0
10
0.539000
20
-1.263000
40
0.025000
0
INSERT
8
0
2
EPAD
10
0.539000
20
-1.663000
41
0.070000
42
0.070000
0
CIRCLE
8
0
10
0.539000
20
-1.663000
40
0.025000
0
INSERT
8
0
2
EPAD
10
0.653000
20
-1.263000
41
0.070000
42
0.070000
0
CIRCLE
8
0
10
0.653000
20
-1.263000
40
0.025000
0
INSERT
8
0
2
EPAD
10
0.653000
20
-1.663000
41
0.070000
42
0.070000
0
CIRCLE
8
0
10
0.653000
20
-1.663000
40
0.025000
0
INSERT
8
0
2
EPAD
10
0.126000
20
-1.322000
41
0.070000
42
0.070000
0
CIRCLE
8
0
10
0.126000
20
-1.322000
40
0.025000
0
INSERT
8
0
2
EPAD
10
0.126000
20
-0.922000
41
0.070000
42
0.070000
0
CIRCLE
8
0
10
0.126000
20
-0.922000
40
0.025000
0
INSERT
8
0
2
EPAD
10
-0.453000
20
-1.460000
41
0.120000
42
0.120000
0
CIRCLE
8
0
10
-0.453000
20
-1.460000
40
0.030000
0
INSERT
8
0
2
EPAD
10
-0.253000
20
-1.460000
41
0.120000
42
0.120000
0
CIRCLE
8
0
10
-0.253000
20
-1.460000
40
0.030000
0
INSERT
8
0
2
EPAD
10
-0.333000
20
-0.619000
41
0.070000
42
0.070000
0
CIRCLE
8
0
10
-0.333000
20
-0.619000
40
0.025000
0
INSERT
8
0
2
EPAD
10
-0.333000
20
-1.019000
41
0.070000
42
0.070000
0
CIRCLE
8
0
10
-0.333000
20
-1.019000
40
0.025000
0
INSERT
8
0
2
EPAD
10
1.712000
20
-1.114000
41
0.070000
42
0.070000
0
CIRCLE
8
0
10
1.712000
20
-1.114000
40
0.025000
0
INSERT
8
0
2
EPAD
10
1.712000
20
-0.914000
41
0.070000
42
0.070000
0
CIRCLE
8
0
10
1.712000
20
-0.914000
40
0.025000
0
INSERT
8
0
2
RPAD
10
0.956000
20
0.160000
41
0.080000
42
0.080000
50
180.000000
0
CIRCLE
8
0
10
0.956000
20
0.160000
40
0.025000
0
INSERT
8
0
2
RPAD
10
0.856000
20
0.160000
41
0.080000
42
0.080000
50
180.000000
0
CIRCLE
8
0
10
0.856000
20
0.160000
40
0.025000
0
INSERT
8
0
2
RPAD
10
0.756000
20
0.160000
41
0.080000
42
0.080000
50
180.000000
0
CIRCLE
8
0
10
0.756000
20
0.160000
40
0.025000
0
INSERT
8
0
2
RPAD
10
0.656000
20
0.160000
41
0.080000
42
0.080000
50
180.000000
0
CIRCLE
8
0
10
0.656000
20
0.160000
40
0.025000
0
INSERT
8
0
2
RPAD
10
0.556000
20
0.160000
41
0.080000
42
0.080000
50
180.000000
0
CIRCLE
8
0
10
0.556000
20
0.160000
40
0.025000
0
INSERT
8
0
2
RPAD
10
0.456000
20
0.160000
41
0.080000
42
0.080000
50
180.000000
0
CIRCLE
8
0
10
0.456000
20
0.160000
40
0.025000
0
INSERT
8
0
2
RPAD
10
0.356000
20
0.160000
41
0.080000
42
0.080000
50
180.000000
0
CIRCLE
8
0
10
0.356000
20
0.160000
40
0.025000
0
INSERT
8
0
2
RPAD
10
0.256000
20
0.160000
41
0.080000
42
0.080000
50
180.000000
0
CIRCLE
8
0
10
0.256000
20
0.160000
40
0.025000
0
INSERT
8
0
2
RPAD
10
0.156000
20
0.160000
41
0.080000
42
0.080000
50
180.000000
0
CIRCLE
8
0
10
0.156000
20
0.160000
40
0.025000
0
INSERT
8
0
2
RPAD
10
0.056000
20
0.160000
41
0.080000
42
0.080000
50
180.000000
0
CIRCLE
8
0
10
0.056000
20
0.160000
40
0.025000
0
INSERT
8
0
2
RPAD
10
-0.043000
20
0.160000
41
0.080000
42
0.080000
50
180.000000
0
CIRCLE
8
0
10
-0.043000
20
0.160000
40
0.025000
0
INSERT
8
0
2
RPAD
10
-0.143000
20
0.160000
41
0.080000
42
0.080000
50
180.000000
0
CIRCLE
8
0
10
-0.143000
20
0.160000
40
0.025000
0
INSERT
8
0
2
RPAD
10
-0.243000
20
0.160000
41
0.080000
42
0.080000
50
180.000000
0
CIRCLE
8
0
10
-0.243000
20
0.160000
40
0.025000
0
INSERT
8
0
2
RPAD
10
-0.343000
20
0.160000
41
0.080000
42
0.080000
50
180.000000
0
CIRCLE
8
0
10
-0.343000
20
0.160000
40
0.025000
0
INSERT
8
0
2
RPAD
10
-0.443000
20
0.160000
41
0.080000
42
0.080000
50
180.000000
0
CIRCLE
8
0
10
-0.443000
20
0.160000
40
0.025000
0
INSERT
8
0
2
RPAD
10
-0.543000
20
0.160000
41
0.080000
42
0.080000
50
180.000000
0
CIRCLE
8
0
10
-0.543000
20
0.160000
40
0.025000
0
INSERT
8
0
2
EPAD
10
1.136000
20
-0.042000
41
0.080000
42
0.080000
0
CIRCLE
8
0
10
1.136000
20
-0.042000
40
0.025000
0
INSERT
8
0
2
EPAD
10
1.336000
20
-0.042000
41
0.080000
42
0.080000
0
CIRCLE
8
0
10
1.336000
20
-0.042000
40
0.025000
0
INSERT
8
0
2
EPAD
10
1.236000
20
0.178000
41
0.080000
42
0.080000
0
CIRCLE
8
0
10
1.236000
20
0.178000
40
0.025000
0
INSERT
8
0
2
EPAD
10
0.997000
20
-0.614000
41
0.080000
42
0.080000
0
CIRCLE
8
0
10
0.997000
20
-0.614000
40
0.025000
0
INSERT
8
0
2
EPAD
10
1.197000
20
-0.614000
41
0.080000
42
0.080000
0
CIRCLE
8
0
10
1.197000
20
-0.614000
40
0.025000
0
INSERT
8
0
2
EPAD
10
1.200000
20
-0.962000
41
0.070000
42
0.070000
0
CIRCLE
8
0
10
1.200000
20
-0.962000
40
0.025000
0
INSERT
8
0
2
EPAD
10
1.200000
20
-1.162000
41
0.070000
42
0.070000
0
CIRCLE
8
0
10
1.200000
20
-1.162000
40
0.025000
0
INSERT
8
0
2
EPAD
10
1.310000
20
-0.962000
41
0.070000
42
0.070000
0
CIRCLE
8
0
10
1.310000
20
-0.962000
40
0.025000
0
INSERT
8
0
2
EPAD
10
1.310000
20
-1.162000
41
0.070000
42
0.070000
0
CIRCLE
8
0
10
1.310000
20
-1.162000
40
0.025000
0
INSERT
8
0
2
EPAD
10
-0.711000
20
1.558000
41
0.120000
42
0.120000
0
CIRCLE
8
0
10
-0.711000
20
1.558000
40
0.030000
0
INSERT
8
0
2
EPAD
10
-0.511000
20
1.558000
41
0.120000
42
0.120000
0
CIRCLE
8
0
10
-0.511000
20
1.558000
40
0.030000
0
INSERT
8
0
2
EPAD
10
1.719000
20
0.306000
41
0.070000
42
0.070000
0
CIRCLE
8
0
10
1.719000
20
0.306000
40
0.025000
0
INSERT
8
0
2
EPAD
10
1.719000
20
-0.093000
41
0.070000
42
0.070000
0
CIRCLE
8
0
10
1.719000
20
-0.093000
40
0.025000
0
INSERT
8
0
2
EPAD
10
1.617000
20
0.306000
41
0.070000
42
0.070000
0
CIRCLE
8
0
10
1.617000
20
0.306000
40
0.025000
0
INSERT
8
0
2
EPAD
10
1.617000
20
-0.093000
41
0.070000
42
0.070000
0
CIRCLE
8
0
10
1.617000
20
-0.093000
40
0.025000
0
INSERT
8
0
2
EPAD
10
0.413000
20
0.948000
41
0.070000
42
0.070000
0
CIRCLE
8
0
10
0.413000
20
0.948000
40
0.025000
0
INSERT
8
0
2
EPAD
10
0.813000
20
0.948000
41
0.070000
42
0.070000
0
CIRCLE
8
0
10
0.813000
20
0.948000
40
0.025000
0
INSERT
8
0
2
EPAD
10
1.511000
20
0.306000
41
0.070000
42
0.070000
0
CIRCLE
8
0
10
1.511000
20
0.306000
40
0.025000
0
INSERT
8
0
2
EPAD
10
1.511000
20
-0.093000
41
0.070000
42
0.070000
0
CIRCLE
8
0
10
1.511000
20
-0.093000
40
0.025000
0
INSERT
8
0
2
RPAD
10
1.212000
20
0.575000
41
0.050000
42
0.050000
50
0.000000
0
CIRCLE
8
0
10
1.212000
20
0.575000
40
0.030000
0
INSERT
8
0
2
EPAD
10
1.312000
20
0.575000
41
0.050000
42
0.050000
0
CIRCLE
8
0
10
1.312000
20
0.575000
40
0.030000
0
INSERT
8
0
2
EPAD
10
1.412000
20
0.575000
41
0.050000
42
0.050000
0
CIRCLE
8
0
10
1.412000
20
0.575000
40
0.030000
0
INSERT
8
0
2
EPAD
10
1.412000
20
0.875000
41
0.050000
42
0.050000
0
CIRCLE
8
0
10
1.412000
20
0.875000
40
0.030000
0
INSERT
8
0
2
EPAD
10
1.312000
20
0.875000
41
0.050000
42
0.050000
0
CIRCLE
8
0
10
1.312000
20
0.875000
40
0.030000
0
INSERT
8
0
2
EPAD
10
1.212000
20
0.875000
41
0.050000
42
0.050000
0
CIRCLE
8
0
10
1.212000
20
0.875000
40
0.030000
0
INSERT
8
0
2
RPAD
10
0.513000
20
0.575000
41
0.050000
42
0.050000
50
0.000000
0
CIRCLE
8
0
10
0.513000
20
0.575000
40
0.030000
0
INSERT
8
0
2
EPAD
10
0.613000
20
0.575000
41
0.050000
42
0.050000
0
CIRCLE
8
0
10
0.613000
20
0.575000
40
0.030000
0
INSERT
8
0
2
EPAD
10
0.713000
20
0.575000
41
0.050000
42
0.050000
0
CIRCLE
8
0
10
0.713000
20
0.575000
40
0.030000
0
INSERT
8
0
2
EPAD
10
0.713000
20
0.875000
41
0.050000
42
0.050000
0
CIRCLE
8
0
10
0.713000
20
0.875000
40
0.030000
0
INSERT
8
0
2
EPAD
10
0.613000
20
0.875000
41
0.050000
42
0.050000
0
CIRCLE
8
0
10
0.613000
20
0.875000
40
0.030000
0
INSERT
8
0
2
EPAD
10
0.513000
20
0.875000
41
0.050000
42
0.050000
0
CIRCLE
8
0
10
0.513000
20
0.875000
40
0.030000
0
INSERT
8
0
2
RPAD
10
-0.129000
20
0.575000
41
0.050000
42
0.050000
50
0.000000
0
CIRCLE
8
0
10
-0.129000
20
0.575000
40
0.030000
0
INSERT
8
0
2
EPAD
10
-0.029000
20
0.575000
41
0.050000
42
0.050000
0
CIRCLE
8
0
10
-0.029000
20
0.575000
40
0.030000
0
INSERT
8
0
2
EPAD
10
0.070000
20
0.575000
41
0.050000
42
0.050000
0
CIRCLE
8
0
10
0.070000
20
0.575000
40
0.030000
0
INSERT
8
0
2
EPAD
10
0.070000
20
0.875000
41
0.050000
42
0.050000
0
CIRCLE
8
0
10
0.070000
20
0.875000
40
0.030000
0
INSERT
8
0
2
EPAD
10
-0.029000
20
0.875000
41
0.050000
42
0.050000
0
CIRCLE
8
0
10
-0.029000
20
0.875000
40
0.030000
0
INSERT
8
0
2
EPAD
10
-0.129000
20
0.875000
41
0.050000
42
0.050000
0
CIRCLE
8
0
10
-0.129000
20
0.875000
40
0.030000
0
INSERT
8
0
2
EPAD
10
1.112000
20
0.949000
41
0.070000
42
0.070000
0
CIRCLE
8
0
10
1.112000
20
0.949000
40
0.025000
0
INSERT
8
0
2
EPAD
10
1.512000
20
0.949000
41
0.070000
42
0.070000
0
CIRCLE
8
0
10
1.512000
20
0.949000
40
0.025000
0
INSERT
8
0
2
EPAD
10
-0.229000
20
0.949000
41
0.070000
42
0.070000
0
CIRCLE
8
0
10
-0.229000
20
0.949000
40
0.025000
0
INSERT
8
0
2
EPAD
10
0.170000
20
0.949000
41
0.070000
42
0.070000
0
CIRCLE
8
0
10
0.170000
20
0.949000
40
0.025000
0
INSERT
8
0
2
RPAD
10
1.412000
20
1.255000
41
0.080000
42
0.080000
50
180.000000
0
CIRCLE
8
0
10
1.412000
20
1.255000
40
0.025000
0
INSERT
8
0
2
RPAD
10
1.312000
20
1.255000
41
0.080000
42
0.080000
50
180.000000
0
CIRCLE
8
0
10
1.312000
20
1.255000
40
0.025000
0
INSERT
8
0
2
RPAD
10
1.212000
20
1.255000
41
0.080000
42
0.080000
50
180.000000
0
CIRCLE
8
0
10
1.212000
20
1.255000
40
0.025000
0
INSERT
8
0
2
RPAD
10
0.713000
20
1.252000
41
0.080000
42
0.080000
50
180.000000
0
CIRCLE
8
0
10
0.713000
20
1.252000
40
0.025000
0
INSERT
8
0
2
RPAD
10
0.613000
20
1.252000
41
0.080000
42
0.080000
50
180.000000
0
CIRCLE
8
0
10
0.613000
20
1.252000
40
0.025000
0
INSERT
8
0
2
RPAD
10
0.513000
20
1.252000
41
0.080000
42
0.080000
50
180.000000
0
CIRCLE
8
0
10
0.513000
20
1.252000
40
0.025000
0
INSERT
8
0
2
RPAD
10
0.070000
20
1.255000
41
0.080000
42
0.080000
50
180.000000
0
CIRCLE
8
0
10
0.070000
20
1.255000
40
0.025000
0
INSERT
8
0
2
RPAD
10
-0.029000
20
1.255000
41
0.080000
42
0.080000
50
180.000000
0
CIRCLE
8
0
10
-0.029000
20
1.255000
40
0.025000
0
INSERT
8
0
2
RPAD
10
-0.129000
20
1.255000
41
0.080000
42
0.080000
50
180.000000
0
CIRCLE
8
0
10
-0.129000
20
1.255000
40
0.025000
0
INSERT
8
0
2
EPAD
10
1.215000
20
1.562000
41
0.120000
42
0.120000
0
CIRCLE
8
0
10
1.215000
20
1.562000
40
0.030000
0
INSERT
8
0
2
EPAD
10
1.415000
20
1.562000
41
0.120000
42
0.120000
0
CIRCLE
8
0
10
1.415000
20
1.562000
40
0.030000
0
INSERT
8
0
2
EPAD
10
0.546000
20
1.562000
41
0.120000
42
0.120000
0
CIRCLE
8
0
10
0.546000
20
1.562000
40
0.030000
0
INSERT
8
0
2
EPAD
10
0.746000
20
1.562000
41
0.120000
42
0.120000
0
CIRCLE
8
0
10
0.746000
20
1.562000
40
0.030000
0
INSERT
8
0
2
EPAD
10
-0.098000
20
1.562000
41
0.120000
42
0.120000
0
CIRCLE
8
0
10
-0.098000
20
1.562000
40
0.030000
0
INSERT
8
0
2
EPAD
10
0.101000
20
1.562000
41
0.120000
42
0.120000
0
CIRCLE
8
0
10
0.101000
20
1.562000
40
0.030000
0
INSERT
8
0
2
EPAD
10
-1.654000
20
-1.574000
41
0.250000
42
0.250000
0
CIRCLE
8
0
10
-1.654000
20
-1.574000
40
0.030000
0
INSERT
8
0
2
EPAD
10
1.636000
20
-1.578000
41
0.250000
42
0.250000
0
CIRCLE
8
0
10
1.636000
20
-1.578000
40
0.030000
0
INSERT
8
0
2
EPAD
10
-1.666000
20
1.688000
41
0.250000
42
0.250000
0
CIRCLE
8
0
10
-1.666000
20
1.688000
40
0.030000
0
INSERT
8
0
2
EPAD
10
1.672000
20
1.704000
41
0.250000
42
0.250000
0
CIRCLE
8
0
10
1.672000
20
1.704000
40
0.030000
0
INSERT
8
0
2
RPAD
10
-1.491000
20
1.104000
41
0.180000
42
0.180000
50
0.000000
0
CIRCLE
8
0
10
-1.491000
20
1.104000
40
0.020000
0
INSERT
8
0
2
RPAD
10
-0.582000
20
1.104000
41
0.180000
42
0.180000
50
0.000000
0
CIRCLE
8
0
10
-0.582000
20
1.104000
40
0.020000
0
INSERT
8
0
2
EPAD
10
-0.460000
20
-0.419000
41
0.080000
42
0.080000
0
CIRCLE
8
0
10
-0.460000
20
-0.419000
40
0.025000
0
INSERT
8
0
2
EPAD
10
-0.560000
20
-0.419000
41
0.080000
42
0.080000
0
CIRCLE
8
0
10
-0.560000
20
-0.419000
40
0.025000
0
INSERT
8
0
2
EPAD
10
-1.633000
20
0.751000
41
0.100000
42
0.100000
0
CIRCLE
8
0
10
-1.633000
20
0.751000
40
0.030000
0
INSERT
8
0
2
EPAD
10
-0.815000
20
0.751000
41
0.100000
42
0.100000
0
CIRCLE
8
0
10
-0.815000
20
0.751000
40
0.030000
0
INSERT
8
0
2
EPAD
10
-1.633000
20
-1.023000
41
0.100000
42
0.100000
0
CIRCLE
8
0
10
-1.633000
20
-1.023000
40
0.030000
0
INSERT
8
0
2
EPAD
10
-1.319000
20
-1.023000
41
0.100000
42
0.100000
0
CIRCLE
8
0
10
-1.319000
20
-1.023000
40
0.030000
0
INSERT
8
0
2
EPAD
10
-0.346000
20
-0.205000
41
0.080000
42
0.080000
0
CIRCLE
8
0
10
-0.346000
20
-0.205000
40
0.025000
0
INSERT
8
0
2
EPAD
10
-0.546000
20
-0.205000
41
0.080000
42
0.080000
0
CIRCLE
8
0
10
-0.546000
20
-0.205000
40
0.025000
0
INSERT
8
0
2
EPAD
10
1.077000
20
-1.476000
41
0.080000
42
0.080000
0
CIRCLE
8
0
10
1.077000
20
-1.476000
40
0.010000
0
INSERT
8
0
2
EPAD
10
1.380000
20
-1.476000
41
0.080000
42
0.080000
0
CIRCLE
8
0
10
1.380000
20
-1.476000
40
0.010000
0
INSERT
8
0
2
EPAD
10
1.661000
20
-1.231000
41
0.060000
42
0.060000
0
CIRCLE
8
0
10
1.661000
20
-1.231000
40
0.025000
0
INSERT
8
0
2
EPAD
10
1.661000
20
-1.311000
41
0.060000
42
0.060000
0
CIRCLE
8
0
10
1.661000
20
-1.311000
40
0.025000
0
INSERT
8
0
2
EPAD
10
1.661000
20
-1.391000
41
0.060000
42
0.060000
0
CIRCLE
8
0
10
1.661000
20
-1.391000
40
0.025000
0
INSERT
8
0
2
EPAD
10
1.536000
20
-0.893000
41
0.070000
42
0.070000
0
CIRCLE
8
0
10
1.536000
20
-0.893000
40
0.025000
0
INSERT
8
0
2
EPAD
10
1.536000
20
-1.293000
41
0.070000
42
0.070000
0
CIRCLE
8
0
10
1.536000
20
-1.293000
40
0.025000
0
INSERT
8
0
2
RPAD
10
-0.520000
20
-0.760000
41
0.080000
42
0.080000
50
0.000000
0
CIRCLE
8
0
10
-0.520000
20
-0.760000
40
0.025000
0
INSERT
8
0
2
RPAD
10
-0.420000
20
-0.760000
41
0.080000
42
0.080000
50
0.000000
0
CIRCLE
8
0
10
-0.420000
20
-0.760000
40
0.025000
0
INSERT
8
0
2
EPAD
10
-0.612000
20
-1.026000
41
0.070000
42
0.070000
0
CIRCLE
8
0
10
-0.612000
20
-1.026000
40
0.025000
0
INSERT
8
0
2
EPAD
10
-0.612000
20
-0.626000
41
0.070000
42
0.070000
0
CIRCLE
8
0
10
-0.612000
20
-0.626000
40
0.025000
0
POLYLINE
8
0
66
1
40
0.008000
41
0.008000
0
VERTEX
8
0
10
-1.827000
20
-1.732000
0
VERTEX
8
0
10
1.827000
20
-1.732000
0
VERTEX
8
0
10
1.827000
20
1.850000
0
VERTEX
8
0
10
-1.827000
20
1.850000
0
VERTEX
8
0
10
-1.827000
20
-1.732000
0
SEQEND
8
0
0
POLYLINE
8
0
66
1
40
0.008000
41
0.008000
0
VERTEX
8
0
10
-0.167000
20
-0.518000
0
VERTEX
8
0
10
-0.169000
20
-0.498000
0
VERTEX
8
0
10
-0.175000
20
-0.479000
0
VERTEX
8
0
10
-0.184000
20
-0.462000
0
VERTEX
8
0
10
-0.196000
20
-0.447000
0
VERTEX
8
0
10
-0.211000
20
-0.435000
0
VERTEX
8
0
10
-0.228000
20
-0.426000
0
VERTEX
8
0
10
-0.247000
20
-0.420000
0
VERTEX
8
0
10
-0.267000
20
-0.418000
0
SEQEND
8
0
0
POLYLINE
8
0
66
1
40
0.008000
41
0.008000
0
VERTEX
8
0
10
-0.167000
20
-0.518000
0
VERTEX
8
0
10
-0.169000
20
-0.539000
0
VERTEX
8
0
10
-0.175000
20
-0.558000
0
VERTEX
8
0
10
-0.184000
20
-0.575000
0
VERTEX
8
0
10
-0.196000
20
-0.589000
0
VERTEX
8
0
10
-0.211000
20
-0.601000
0
VERTEX
8
0
10
-0.228000
20
-0.610000
0
VERTEX
8
0
10
-0.247000
20
-0.616000
0
VERTEX
8
0
10
-0.267000
20
-0.618000
0
SEQEND
8
0
0
POLYLINE
8
0
66
1
40
0.008000
41
0.008000
0
VERTEX
8
0
10
-0.267000
20
-0.418000
0
VERTEX
8
0
10
-0.267000
20
-0.268000
0
SEQEND
8
0
0
POLYLINE
8
0
66
1
40
0.008000
41
0.008000
0
VERTEX
8
0
10
1.732000
20
-0.268000
0
VERTEX
8
0
10
1.732000
20
-0.768000
0
SEQEND
8
0
0
POLYLINE
8
0
66
1
40
0.008000
41
0.008000
0
VERTEX
8
0
10
-0.267000
20
-0.768000
0
VERTEX
8
0
10
-0.267000
20
-0.618000
0
SEQEND
8
0
0
POLYLINE
8
0
66
1
40
0.008000
41
0.008000
0
VERTEX
8
0
10
-0.267000
20
-0.268000
0
VERTEX
8
0
10
1.732000
20
-0.268000
0
SEQEND
8
0
0
POLYLINE
8
0
66
1
40
0.008000
41
0.008000
0
VERTEX
8
0
10
-0.267000
20
-0.768000
0
VERTEX
8
0
10
1.732000
20
-0.768000
0
SEQEND
8
0
0
TEXT
8
12632256
10
-0.277000
20
-0.568000
40
0.048000
41
1.041667
50
90.000000
1
U1
0
POLYLINE
8
0
66
1
40
0.008000
41
0.008000
0
VERTEX
8
0
10
0.203000
20
-1.159000
0
VERTEX
8
0
10
1.103000
20
-1.159000
0
VERTEX
8
0
10
1.103000
20
-0.909000
0
VERTEX
8
0
10
0.203000
20
-0.909000
0
VERTEX
8
0
10
0.203000
20
-1.159000
0
SEQEND
8
0
0
POLYLINE
8
0
66
1
40
0.008000
41
0.008000
0
VERTEX
8
0
10
0.203000
20
-0.959000
0
VERTEX
8
0
10
1.103000
20
-0.959000
0
SEQEND
8
0
0
TEXT
8
12632256
10
0.781000
20
-1.304000
40
0.048000
41
1.041667
1
J7
0
POLYLINE
8
0
66
1
40
0.008000
41
0.008000
0
VERTEX
8
0
10
0.303000
20
-1.313000
0
VERTEX
8
0
10
0.303000
20
-1.363000
0
SEQEND
8
0
0
POLYLINE
8
0
66
1
40
0.008000
41
0.008000
0
VERTEX
8
0
10
0.278000
20
-1.563000
0
VERTEX
8
0
10
0.328000
20
-1.563000
0
VERTEX
8
0
10
0.328000
20
-1.363000
0
VERTEX
8
0
10
0.278000
20
-1.363000
0
VERTEX
8
0
10
0.278000
20
-1.563000
0
SEQEND
8
0
0
POLYLINE
8
0
66
1
40
0.008000
41
0.008000
0
VERTEX
8
0
10
0.303000
20
-1.563000
0
VERTEX
8
0
10
0.303000
20
-1.613000
0
SEQEND
8
0
0
TEXT
8
12632256
10
0.386000
20
-1.538000
40
0.048000
41
1.041667
50
90.000000
1
R12
0
POLYLINE
8
0
66
1
40
0.008000
41
0.008000
0
VERTEX
8
0
10
0.417000
20
-1.313000
0
VERTEX
8
0
10
0.417000
20
-1.363000
0
SEQEND
8
0
0
POLYLINE
8
0
66
1
40
0.008000
41
0.008000
0
VERTEX
8
0
10
0.392000
20
-1.563000
0
VERTEX
8
0
10
0.442000
20
-1.563000
0
VERTEX
8
0
10
0.442000
20
-1.363000
0
VERTEX
8
0
10
0.392000
20
-1.363000
0
VERTEX
8
0
10
0.392000
20
-1.563000
0
SEQEND
8
0
0
POLYLINE
8
0
66
1
40
0.008000
41
0.008000
0
VERTEX
8
0
10
0.417000
20
-1.563000
0
VERTEX
8
0
10
0.417000
20
-1.613000
0
SEQEND
8
0
0
TEXT
8
12632256
10
0.500000
20
-1.538000
40
0.048000
41
1.041667
50
90.000000
1
R13
0
POLYLINE
8
0
66
1
40
0.008000
41
0.008000
0
VERTEX
8
0
10
0.539000
20
-1.313000
0
VERTEX
8
0
10
0.539000
20
-1.363000
0
SEQEND
8
0
0
POLYLINE
8
0
66
1
40
0.008000
41
0.008000
0
VERTEX
8
0
10
0.514000
20
-1.563000
0
VERTEX
8
0
10
0.564000
20
-1.563000
0
VERTEX
8
0
10
0.564000
20
-1.363000
0
VERTEX
8
0
10
0.514000
20
-1.363000
0
VERTEX
8
0
10
0.514000
20
-1.563000
0
SEQEND
8
0
0
POLYLINE
8
0
66
1
40
0.008000
41
0.008000
0
VERTEX
8
0
10
0.539000
20
-1.563000
0
VERTEX
8
0
10
0.539000
20
-1.613000
0
SEQEND
8
0
0
TEXT
8
12632256
10
0.622000
20
-1.538000
40
0.048000
41
1.041667
50
90.000000
1
R14
0
POLYLINE
8
0
66
1
40
0.008000
41
0.008000
0
VERTEX
8
0
10
0.653000
20
-1.313000
0
VERTEX
8
0
10
0.653000
20
-1.363000
0
SEQEND
8
0
0
POLYLINE
8
0
66
1
40
0.008000
41
0.008000
0
VERTEX
8
0
10
0.628000
20
-1.563000
0
VERTEX
8
0
10
0.678000
20
-1.563000
0
VERTEX
8
0
10
0.678000
20
-1.363000
0
VERTEX
8
0
10
0.628000
20
-1.363000
0
VERTEX
8
0
10
0.628000
20
-1.563000
0
SEQEND
8
0
0
POLYLINE
8
0
66
1
40
0.008000
41
0.008000
0
VERTEX
8
0
10
0.653000
20
-1.563000
0
VERTEX
8
0
10
0.653000
20
-1.613000
0
SEQEND
8
0
0
TEXT
8
12632256
10
0.736000
20
-1.538000
40
0.048000
41
1.041667
50
90.000000
1
R15
0
POLYLINE
8
0
66
1
40
0.008000
41
0.008000
0
VERTEX
8
0
10
0.126000
20
-1.272000
0
VERTEX
8
0
10
0.126000
20
-1.222000
0
SEQEND
8
0
0
POLYLINE
8
0
66
1
40
0.008000
41
0.008000
0
VERTEX
8
0
10
0.101000
20
-1.222000
0
VERTEX
8
0
10
0.151000
20
-1.222000
0
VERTEX
8
0
10
0.151000
20
-1.022000
0
VERTEX
8
0
10
0.101000
20
-1.022000
0
VERTEX
8
0
10
0.101000
20
-1.222000
0
SEQEND
8
0
0
POLYLINE
8
0
66
1
40
0.008000
41
0.008000
0
VERTEX
8
0
10
0.126000
20
-1.022000
0
VERTEX
8
0
10
0.126000
20
-0.972000
0
SEQEND
8
0
0
TEXT
8
12632256
10
0.091000
20
-1.172000
40
0.048000
41
1.041667
50
90.000000
1
R6
0
POLYLINE
8
0
66
1
40
0.008000
41
0.008000
0
VERTEX
8
0
10
-0.553000
20
-1.260000
0
VERTEX
8
0
10
-0.553000
20
-1.660000
0
SEQEND
8
0
0
POLYLINE
8
0
66
1
40
0.008000
41
0.008000
0
VERTEX
8
0
10
-0.153000
20
-1.260000
0
VERTEX
8
0
10
-0.153000
20
-1.660000
0
SEQEND
8
0
0
POLYLINE
8
0
66
1
40
0.008000
41
0.008000
0
VERTEX
8
0
10
-0.553000
20
-1.660000
0
VERTEX
8
0
10
-0.153000
20
-1.660000
0
SEQEND
8
0
0
POLYLINE
8
0
66
1
40
0.008000
41
0.008000
0
VERTEX
8
0
10
-0.553000
20
-1.260000
0
VERTEX
8
0
10
-0.153000
20
-1.260000
0
SEQEND
8
0
0
TEXT
8
12632256
10
-0.414000
20
-1.724000
40
0.048000
41
1.041667
1
J5
0
POLYLINE
8
0
66
1
40
0.008000
41
0.008000
0
VERTEX
8
0
10
-0.333000
20
-0.669000
0
VERTEX
8
0
10
-0.333000
20
-0.719000
0
SEQEND
8
0
0
POLYLINE
8
0
66
1
40
0.008000
41
0.008000
0
VERTEX
8
0
10
-0.358000
20
-0.919000
0
VERTEX
8
0
10
-0.308000
20
-0.919000
0
VERTEX
8
0
10
-0.308000
20
-0.719000
0
VERTEX
8
0
10
-0.358000
20
-0.719000
0
VERTEX
8
0
10
-0.358000
20
-0.919000
0
SEQEND
8
0
0
POLYLINE
8
0
66
1
40
0.008000
41
0.008000
0
VERTEX
8
0
10
-0.333000
20
-0.919000
0
VERTEX
8
0
10
-0.333000
20
-0.969000
0
SEQEND
8
0
0
TEXT
8
12632256
10
-0.390000
20
-0.992000
40
0.048000
41
1.041667
50
90.000000
1
R1
0
POLYLINE
8
0
66
1
40
0.008000
41
0.008000
0
VERTEX
8
0
10
1.712000
20
-1.164000
0
VERTEX
8
0
10
1.702000
20
-1.161000
0
VERTEX
8
0
10
1.692000
20
-1.153000
0
VERTEX
8
0
10
1.684000
20
-1.139000
0
VERTEX
8
0
10
1.676000
20
-1.121000
0
VERTEX
8
0
10
1.670000
20
-1.099000
0
VERTEX
8
0
10
1.666000
20
-1.073000
0
VERTEX
8
0
10
1.663000
20
-1.045000
0
VERTEX
8
0
10
1.662000
20
-1.014000
0
SEQEND
8
0
0
POLYLINE
8
0
66
1
40
0.008000
41
0.008000
0
VERTEX
8
0
10
1.712000
20
-0.864000
0
VERTEX
8
0
10
1.707000
20
-0.865000
0
VERTEX
8
0
10
1.702000
20
-0.867000
0
VERTEX
8
0
10
1.692000
20
-0.876000
0
VERTEX
8
0
10
1.684000
20
-0.889000
0
VERTEX
8
0
10
1.676000
20
-0.908000
0
VERTEX
8
0
10
1.670000
20
-0.930000
0
VERTEX
8
0
10
1.666000
20
-0.955000
0
VERTEX
8
0
10
1.663000
20
-0.983000
0
VERTEX
8
0
10
1.662000
20
-1.014000
0
SEQEND
8
0
0
POLYLINE
8
0
66
1
40
0.008000
41
0.008000
0
VERTEX
8
0
10
1.712000
20
-0.864000
0
VERTEX
8
0
10
1.717000
20
-0.865000
0
VERTEX
8
0
10
1.722000
20
-0.867000
0
VERTEX
8
0
10
1.732000
20
-0.876000
0
VERTEX
8
0
10
1.740000
20
-0.889000
0
VERTEX
8
0
10
1.748000
20
-0.908000
0
VERTEX
8
0
10
1.754000
20
-0.930000
0
VERTEX
8
0
10
1.758000
20
-0.955000
0
VERTEX
8
0
10
1.761000
20
-0.983000
0
VERTEX
8
0
10
1.762000
20
-1.014000
0
SEQEND
8
0
0
POLYLINE
8
0
66
1
40
0.008000
41
0.008000
0
VERTEX
8
0
10
1.712000
20
-1.164000
0
VERTEX
8
0
10
1.722000
20
-1.161000
0
VERTEX
8
0
10
1.732000
20
-1.153000
0
VERTEX
8
0
10
1.740000
20
-1.139000
0
VERTEX
8
0
10
1.748000
20
-1.121000
0
VERTEX
8
0
10
1.754000
20
-1.099000
0
VERTEX
8
0
10
1.758000
20
-1.073000
0
VERTEX
8
0
10
1.761000
20
-1.045000
0
VERTEX
8
0
10
1.762000
20
-1.014000
0
SEQEND
8
0
0
TEXT
8
12632256
10
1.652000
20
-1.064000
40
0.048000
41
1.041667
50
90.000000
1
C1
0
POLYLINE
8
0
66
1
40
0.008000
41
0.008000
0
VERTEX
8
0
10
-0.597000
20
0.039000
0
VERTEX
8
0
10
1.006000
20
0.039000
0
VERTEX
8
0
10
1.006000
20
0.249000
0
VERTEX
8
0
10
-0.597000
20
0.249000
0
VERTEX
8
0
10
-0.597000
20
0.039000
0
SEQEND
8
0
0
POLYLINE
8
0
66
1
40
0.008000
41
0.008000
0
VERTEX
8
0
10
0.906000
20
0.043000
0
VERTEX
8
0
10
0.906000
20
0.245000
0
SEQEND
8
0
0
POLYLINE
8
0
66
1
40
0.008000
41
0.008000
0
VERTEX
8
0
10
1.004000
20
0.206000
0
VERTEX
8
0
10
-0.594000
20
0.206000
0
SEQEND
8
0
0
TEXT
8
12632256
10
0.220000
20
0.239000
40
0.024000
41
1.250000
50
180.000000
1
BACK
0
TEXT
8
12632256
10
0.104000
20
-0.018000
40
0.048000
41
1.041667
1
LCD1
0
POLYLINE
8
0
66
1
40
0.008000
41
0.008000
0
VERTEX
8
0
10
1.086000
20
-0.117000
0
VERTEX
8
0
10
1.386000
20
-0.117000
0
VERTEX
8
0
10
1.386000
20
0.032000
0
VERTEX
8
0
10
1.086000
20
0.032000
0
VERTEX
8
0
10
1.086000
20
-0.117000
0
SEQEND
8
0
0
POLYLINE
8
0
66
1
40
0.008000
41
0.008000
0
VERTEX
8
0
10
1.186000
20
0.182000
0
VERTEX
8
0
10
1.286000
20
0.182000
0
SEQEND
8
0
0
POLYLINE
8
0
66
1
40
0.008000
41
0.008000
0
VERTEX
8
0
10
1.138000
20
0.032000
0
VERTEX
8
0
10
1.331000
20
0.032000
0
VERTEX
8
0
10
1.331000
20
0.253000
0
VERTEX
8
0
10
1.138000
20
0.253000
0
VERTEX
8
0
10
1.138000
20
0.032000
0
SEQEND
8
0
0
TEXT
8
12632256
10
1.161000
20
0.263000
40
0.048000
41
1.041667
1
RV1
0
POLYLINE
8
0
66
1
40
0.008000
41
0.008000
0
VERTEX
8
0
10
0.947000
20
-0.514000
0
VERTEX
8
0
10
1.247000
20
-0.514000
0
VERTEX
8
0
10
1.297000
20
-0.564000
0
VERTEX
8
0
10
1.297000
20
-0.664000
0
VERTEX
8
0
10
1.247000
20
-0.714000
0
VERTEX
8
0
10
0.947000
20
-0.714000
0
VERTEX
8
0
10
0.897000
20
-0.664000
0
VERTEX
8
0
10
0.897000
20
-0.564000
0
VERTEX
8
0
10
0.947000
20
-0.514000
0
SEQEND
8
0
0
TEXT
8
12632256
10
1.047000
20
-0.504000
40
0.048000
41
1.041667
1
X1
0
POLYLINE
8
0
66
1
40
0.008000
41
0.008000
0
VERTEX
8
0
10
1.200000
20
-0.912000
0
VERTEX
8
0
10
1.210000
20
-0.915000
0
VERTEX
8
0
10
1.220000
20
-0.923000
0
VERTEX
8
0
10
1.228000
20
-0.937000
0
VERTEX
8
0
10
1.236000
20
-0.955000
0
VERTEX
8
0
10
1.242000
20
-0.977000
0
VERTEX
8
0
10
1.246000
20
-1.003000
0
VERTEX
8
0
10
1.249000
20
-1.031000
0
VERTEX
8
0
10
1.250000
20
-1.062000
0
SEQEND
8
0
0
POLYLINE
8
0
66
1
40
0.008000
41
0.008000
0
VERTEX
8
0
10
1.200000
20
-1.212000
0
VERTEX
8
0
10
1.205000
20
-1.211000
0
VERTEX
8
0
10
1.210000
20
-1.209000
0
VERTEX
8
0
10
1.220000
20
-1.200000
0
VERTEX
8
0
10
1.228000
20
-1.187000
0
VERTEX
8
0
10
1.236000
20
-1.168000
0
VERTEX
8
0
10
1.242000
20
-1.146000
0
VERTEX
8
0
10
1.246000
20
-1.121000
0
VERTEX
8
0
10
1.249000
20
-1.093000
0
VERTEX
8
0
10
1.250000
20
-1.062000
0
SEQEND
8
0
0
POLYLINE
8
0
66
1
40
0.008000
41
0.008000
0
VERTEX
8
0
10
1.200000
20
-1.212000
0
VERTEX
8
0
10
1.195000
20
-1.211000
0
VERTEX
8
0
10
1.190000
20
-1.209000
0
VERTEX
8
0
10
1.180000
20
-1.200000
0
VERTEX
8
0
10
1.172000
20
-1.187000
0
VERTEX
8
0
10
1.164000
20
-1.168000
0
VERTEX
8
0
10
1.158000
20
-1.146000
0
VERTEX
8
0
10
1.154000
20
-1.121000
0
VERTEX
8
0
10
1.151000
20
-1.093000
0
VERTEX
8
0
10
1.150000
20
-1.062000
0
SEQEND
8
0
0
POLYLINE
8
0
66
1
40
0.008000
41
0.008000
0
VERTEX
8
0
10
1.200000
20
-0.912000
0
VERTEX
8
0
10
1.190000
20
-0.915000
0
VERTEX
8
0
10
1.180000
20
-0.923000
0
VERTEX
8
0
10
1.172000
20
-0.937000
0
VERTEX
8
0
10
1.164000
20
-0.955000
0
VERTEX
8
0
10
1.158000
20
-0.977000
0
VERTEX
8
0
10
1.154000
20
-1.003000
0
VERTEX
8
0
10
1.151000
20
-1.031000
0
VERTEX
8
0
10
1.150000
20
-1.062000
0
SEQEND
8
0
0
TEXT
8
12632256
10
1.147000
20
-1.110000
40
0.048000
41
1.041667
50
90.000000
1
C2
0
POLYLINE
8
0
66
1
40
0.008000
41
0.008000
0
VERTEX
8
0
10
1.310000
20
-0.912000
0
VERTEX
8
0
10
1.320000
20
-0.915000
0
VERTEX
8
0
10
1.330000
20
-0.923000
0
VERTEX
8
0
10
1.338000
20
-0.937000
0
VERTEX
8
0
10
1.346000
20
-0.955000
0
VERTEX
8
0
10
1.352000
20
-0.977000
0
VERTEX
8
0
10
1.356000
20
-1.003000
0
VERTEX
8
0
10
1.359000
20
-1.031000
0
VERTEX
8
0
10
1.360000
20
-1.062000
0
SEQEND
8
0
0
POLYLINE
8
0
66
1
40
0.008000
41
0.008000
0
VERTEX
8
0
10
1.310000
20
-1.212000
0
VERTEX
8
0
10
1.315000
20
-1.211000
0
VERTEX
8
0
10
1.320000
20
-1.209000
0
VERTEX
8
0
10
1.330000
20
-1.200000
0
VERTEX
8
0
10
1.338000
20
-1.187000
0
VERTEX
8
0
10
1.346000
20
-1.168000
0
VERTEX
8
0
10
1.352000
20
-1.146000
0
VERTEX
8
0
10
1.356000
20
-1.121000
0
VERTEX
8
0
10
1.359000
20
-1.093000
0
VERTEX
8
0
10
1.360000
20
-1.062000
0
SEQEND
8
0
0
POLYLINE
8
0
66
1
40
0.008000
41
0.008000
0
VERTEX
8
0
10
1.310000
20
-1.212000
0
VERTEX
8
0
10
1.305000
20
-1.211000
0
VERTEX
8
0
10
1.300000
20
-1.209000
0
VERTEX
8
0
10
1.290000
20
-1.200000
0
VERTEX
8
0
10
1.282000
20
-1.187000
0
VERTEX
8
0
10
1.274000
20
-1.168000
0
VERTEX
8
0
10
1.268000
20
-1.146000
0
VERTEX
8
0
10
1.264000
20
-1.121000
0
VERTEX
8
0
10
1.261000
20
-1.093000
0
VERTEX
8
0
10
1.260000
20
-1.062000
0
SEQEND
8
0
0
POLYLINE
8
0
66
1
40
0.008000
41
0.008000
0
VERTEX
8
0
10
1.310000
20
-0.912000
0
VERTEX
8
0
10
1.300000
20
-0.915000
0
VERTEX
8
0
10
1.290000
20
-0.923000
0
VERTEX
8
0
10
1.282000
20
-0.937000
0
VERTEX
8
0
10
1.274000
20
-0.955000
0
VERTEX
8
0
10
1.268000
20
-0.977000
0
VERTEX
8
0
10
1.264000
20
-1.003000
0
VERTEX
8
0
10
1.261000
20
-1.031000
0
VERTEX
8
0
10
1.260000
20
-1.062000
0
SEQEND
8
0
0
TEXT
8
12632256
10
1.418000
20
-1.112000
40
0.048000
41
1.041667
50
90.000000
1
C3
0
POLYLINE
8
0
66
1
40
0.008000
41
0.008000
0
VERTEX
8
0
10
-0.811000
20
1.758000
0
VERTEX
8
0
10
-0.811000
20
1.358000
0
SEQEND
8
0
0
POLYLINE
8
0
66
1
40
0.008000
41
0.008000
0
VERTEX
8
0
10
-0.411000
20
1.758000
0
VERTEX
8
0
10
-0.411000
20
1.358000
0
SEQEND
8
0
0
POLYLINE
8
0
66
1
40
0.008000
41
0.008000
0
VERTEX
8
0
10
-0.811000
20
1.358000
0
VERTEX
8
0
10
-0.411000
20
1.358000
0
SEQEND
8
0
0
POLYLINE
8
0
66
1
40
0.008000
41
0.008000
0
VERTEX
8
0
10
-0.811000
20
1.758000
0
VERTEX
8
0
10
-0.411000
20
1.758000
0
SEQEND
8
0
0
TEXT
8
12632256
10
-0.661000
20
1.768000
40
0.048000
41
1.041667
1
J4
0
POLYLINE
8
0
66
1
40
0.008000
41
0.008000
0
VERTEX
8
0
10
1.719000
20
0.256000
0
VERTEX
8
0
10
1.719000
20
0.206000
0
SEQEND
8
0
0
POLYLINE
8
0
66
1
40
0.008000
41
0.008000
0
VERTEX
8
0
10
1.694000
20
0.006000
0
VERTEX
8
0
10
1.744000
20
0.006000
0
VERTEX
8
0
10
1.744000
20
0.206000
0
VERTEX
8
0
10
1.694000
20
0.206000
0
VERTEX
8
0
10
1.694000
20
0.006000
0
SEQEND
8
0
0
POLYLINE
8
0
66
1
40
0.008000
41
0.008000
0
VERTEX
8
0
10
1.719000
20
0.006000
0
VERTEX
8
0
10
1.719000
20
-0.043000
0
SEQEND
8
0
0
TEXT
8
12632256
10
1.802000
20
0.056000
40
0.048000
41
1.041667
50
90.000000
1
R7
0
POLYLINE
8
0
66
1
40
0.008000
41
0.008000
0
VERTEX
8
0
10
1.617000
20
0.256000
0
VERTEX
8
0
10
1.617000
20
0.206000
0
SEQEND
8
0
0
POLYLINE
8
0
66
1
40
0.008000
41
0.008000
0
VERTEX
8
0
10
1.592000
20
0.006000
0
VERTEX
8
0
10
1.642000
20
0.006000
0
VERTEX
8
0
10
1.642000
20
0.206000
0
VERTEX
8
0
10
1.592000
20
0.206000
0
VERTEX
8
0
10
1.592000
20
0.006000
0
SEQEND
8
0
0
POLYLINE
8
0
66
1
40
0.008000
41
0.008000
0
VERTEX
8
0
10
1.617000
20
0.006000
0
VERTEX
8
0
10
1.617000
20
-0.043000
0
SEQEND
8
0
0
TEXT
8
12632256
10
1.700000
20
0.056000
40
0.048000
41
1.041667
50
90.000000
1
R2
0
POLYLINE
8
0
66
1
40
0.008000
41
0.008000
0
VERTEX
8
0
10
0.463000
20
0.948000
0
VERTEX
8
0
10
0.513000
20
0.948000
0
SEQEND
8
0
0
POLYLINE
8
0
66
1
40
0.008000
41
0.008000
0
VERTEX
8
0
10
0.513000
20
0.923000
0
VERTEX
8
0
10
0.713000
20
0.923000
0
VERTEX
8
0
10
0.713000
20
0.973000
0
VERTEX
8
0
10
0.513000
20
0.973000
0
VERTEX
8
0
10
0.513000
20
0.923000
0
SEQEND
8
0
0
POLYLINE
8
0
66
1
40
0.008000
41
0.008000
0
VERTEX
8
0
10
0.713000
20
0.948000
0
VERTEX
8
0
10
0.763000
20
0.948000
0
SEQEND
8
0
0
TEXT
8
12632256
10
0.563000
20
0.983000
40
0.048000
41
1.041667
1
R3
0
POLYLINE
8
0
66
1
40
0.008000
41
0.008000
0
VERTEX
8
0
10
1.511000
20
0.256000
0
VERTEX
8
0
10
1.511000
20
0.206000
0
SEQEND
8
0
0
POLYLINE
8
0
66
1
40
0.008000
41
0.008000
0
VERTEX
8
0
10
1.486000
20
0.006000
0
VERTEX
8
0
10
1.536000
20
0.006000
0
VERTEX
8
0
10
1.536000
20
0.206000
0
VERTEX
8
0
10
1.486000
20
0.206000
0
VERTEX
8
0
10
1.486000
20
0.006000
0
SEQEND
8
0
0
POLYLINE
8
0
66
1
40
0.008000
41
0.008000
0
VERTEX
8
0
10
1.511000
20
0.006000
0
VERTEX
8
0
10
1.511000
20
-0.043000
0
SEQEND
8
0
0
TEXT
8
12632256
10
1.594000
20
0.056000
40
0.048000
41
1.041667
50
90.000000
1
R4
0
POLYLINE
8
0
66
1
40
0.008000
41
0.008000
0
VERTEX
8
0
10
1.162000
20
0.625000
0
VERTEX
8
0
10
1.162000
20
0.675000
0
SEQEND
8
0
0
POLYLINE
8
0
66
1
40
0.008000
41
0.008000
0
VERTEX
8
0
10
1.212000
20
0.725000
0
VERTEX
8
0
10
1.211000
20
0.735000
0
VERTEX
8
0
10
1.208000
20
0.745000
0
VERTEX
8
0
10
1.204000
20
0.753000
0
VERTEX
8
0
10
1.198000
20
0.760000
0
VERTEX
8
0
10
1.191000
20
0.767000
0
VERTEX
8
0
10
1.182000
20
0.771000
0
VERTEX
8
0
10
1.172000
20
0.774000
0
VERTEX
8
0
10
1.162000
20
0.775000
0
SEQEND
8
0
0
POLYLINE
8
0
66
1
40
0.008000
41
0.008000
0
VERTEX
8
0
10
1.212000
20
0.725000
0
VERTEX
8
0
10
1.211000
20
0.715000
0
VERTEX
8
0
10
1.208000
20
0.705000
0
VERTEX
8
0
10
1.204000
20
0.696000
0
VERTEX
8
0
10
1.198000
20
0.689000
0
VERTEX
8
0
10
1.191000
20
0.683000
0
VERTEX
8
0
10
1.182000
20
0.679000
0
VERTEX
8
0
10
1.172000
20
0.676000
0
VERTEX
8
0
10
1.162000
20
0.675000
0
SEQEND
8
0
0
POLYLINE
8
0
66
1
40
0.008000
41
0.008000
0
VERTEX
8
0
10
1.162000
20
0.775000
0
VERTEX
8
0
10
1.162000
20
0.825000
0
SEQEND
8
0
0
POLYLINE
8
0
66
1
40
0.008000
41
0.008000
0
VERTEX
8
0
10
1.462000
20
0.625000
0
VERTEX
8
0
10
1.462000
20
0.825000
0
SEQEND
8
0
0
POLYLINE
8
0
66
1
40
0.008000
41
0.008000
0
VERTEX
8
0
10
1.162000
20
0.625000
0
VERTEX
8
0
10
1.462000
20
0.625000
0
SEQEND
8
0
0
POLYLINE
8
0
66
1
40
0.008000
41
0.008000
0
VERTEX
8
0
10
1.162000
20
0.825000
0
VERTEX
8
0
10
1.462000
20
0.825000
0
SEQEND
8
0
0
TEXT
8
12632256
10
1.152000
20
0.675000
40
0.048000
41
1.041667
50
90.000000
1
U2
0
POLYLINE
8
0
66
1
40
0.008000
41
0.008000
0
VERTEX
8
0
10
0.463000
20
0.625000
0
VERTEX
8
0
10
0.463000
20
0.675000
0
SEQEND
8
0
0
POLYLINE
8
0
66
1
40
0.008000
41
0.008000
0
VERTEX
8
0
10
0.513000
20
0.725000
0
VERTEX
8
0
10
0.512000
20
0.735000
0
VERTEX
8
0
10
0.509000
20
0.745000
0
VERTEX
8
0
10
0.505000
20
0.753000
0
VERTEX
8
0
10
0.499000
20
0.760000
0
VERTEX
8
0
10
0.492000
20
0.767000
0
VERTEX
8
0
10
0.483000
20
0.771000
0
VERTEX
8
0
10
0.473000
20
0.774000
0
VERTEX
8
0
10
0.463000
20
0.775000
0
SEQEND
8
0
0
POLYLINE
8
0
66
1
40
0.008000
41
0.008000
0
VERTEX
8
0
10
0.513000
20
0.725000
0
VERTEX
8
0
10
0.512000
20
0.715000
0
VERTEX
8
0
10
0.509000
20
0.705000
0
VERTEX
8
0
10
0.505000
20
0.696000
0
VERTEX
8
0
10
0.499000
20
0.689000
0
VERTEX
8
0
10
0.492000
20
0.683000
0
VERTEX
8
0
10
0.483000
20
0.679000
0
VERTEX
8
0
10
0.473000
20
0.676000
0
VERTEX
8
0
10
0.463000
20
0.675000
0
SEQEND
8
0
0
POLYLINE
8
0
66
1
40
0.008000
41
0.008000
0
VERTEX
8
0
10
0.463000
20
0.775000
0
VERTEX
8
0
10
0.463000
20
0.825000
0
SEQEND
8
0
0
POLYLINE
8
0
66
1
40
0.008000
41
0.008000
0
VERTEX
8
0
10
0.763000
20
0.625000
0
VERTEX
8
0
10
0.763000
20
0.825000
0
SEQEND
8
0
0
POLYLINE
8
0
66
1
40
0.008000
41
0.008000
0
VERTEX
8
0
10
0.463000
20
0.625000
0
VERTEX
8
0
10
0.763000
20
0.625000
0
SEQEND
8
0
0
POLYLINE
8
0
66
1
40
0.008000
41
0.008000
0
VERTEX
8
0
10
0.463000
20
0.825000
0
VERTEX
8
0
10
0.763000
20
0.825000
0
SEQEND
8
0
0
TEXT
8
12632256
10
0.453000
20
0.675000
40
0.048000
41
1.041667
50
90.000000
1
U3
0
POLYLINE
8
0
66
1
40
0.008000
41
0.008000
0
VERTEX
8
0
10
-0.179000
20
0.625000
0
VERTEX
8
0
10
-0.179000
20
0.675000
0
SEQEND
8
0
0
POLYLINE
8
0
66
1
40
0.008000
41
0.008000
0
VERTEX
8
0
10
-0.129000
20
0.725000
0
VERTEX
8
0
10
-0.130000
20
0.735000
0
VERTEX
8
0
10
-0.133000
20
0.745000
0
VERTEX
8
0
10
-0.137000
20
0.753000
0
VERTEX
8
0
10
-0.143000
20
0.760000
0
VERTEX
8
0
10
-0.150000
20
0.767000
0
VERTEX
8
0
10
-0.159000
20
0.771000
0
VERTEX
8
0
10
-0.169000
20
0.774000
0
VERTEX
8
0
10
-0.179000
20
0.775000
0
SEQEND
8
0
0
POLYLINE
8
0
66
1
40
0.008000
41
0.008000
0
VERTEX
8
0
10
-0.129000
20
0.725000
0
VERTEX
8
0
10
-0.130000
20
0.715000
0
VERTEX
8
0
10
-0.133000
20
0.705000
0
VERTEX
8
0
10
-0.137000
20
0.696000
0
VERTEX
8
0
10
-0.143000
20
0.689000
0
VERTEX
8
0
10
-0.150000
20
0.683000
0
VERTEX
8
0
10
-0.159000
20
0.679000
0
VERTEX
8
0
10
-0.169000
20
0.676000
0
VERTEX
8
0
10
-0.179000
20
0.675000
0
SEQEND
8
0
0
POLYLINE
8
0
66
1
40
0.008000
41
0.008000
0
VERTEX
8
0
10
-0.179000
20
0.775000
0
VERTEX
8
0
10
-0.179000
20
0.825000
0
SEQEND
8
0
0
POLYLINE
8
0
66
1
40
0.008000
41
0.008000
0
VERTEX
8
0
10
0.120000
20
0.625000
0
VERTEX
8
0
10
0.120000
20
0.825000
0
SEQEND
8
0
0
POLYLINE
8
0
66
1
40
0.008000
41
0.008000
0
VERTEX
8
0
10
-0.179000
20
0.625000
0
VERTEX
8
0
10
0.120000
20
0.625000
0
SEQEND
8
0
0
POLYLINE
8
0
66
1
40
0.008000
41
0.008000
0
VERTEX
8
0
10
-0.179000
20
0.825000
0
VERTEX
8
0
10
0.120000
20
0.825000
0
SEQEND
8
0
0
TEXT
8
12632256
10
-0.189000
20
0.675000
40
0.048000
41
1.041667
50
90.000000
1
U6
0
POLYLINE
8
0
66
1
40
0.008000
41
0.008000
0
VERTEX
8
0
10
1.162000
20
0.949000
0
VERTEX
8
0
10
1.212000
20
0.949000
0
SEQEND
8
0
0
POLYLINE
8
0
66
1
40
0.008000
41
0.008000
0
VERTEX
8
0
10
1.212000
20
0.924000
0
VERTEX
8
0
10
1.412000
20
0.924000
0
VERTEX
8
0
10
1.412000
20
0.974000
0
VERTEX
8
0
10
1.212000
20
0.974000
0
VERTEX
8
0
10
1.212000
20
0.924000
0
SEQEND
8
0
0
POLYLINE
8
0
66
1
40
0.008000
41
0.008000
0
VERTEX
8
0
10
1.412000
20
0.949000
0
VERTEX
8
0
10
1.462000
20
0.949000
0
SEQEND
8
0
0
TEXT
8
12632256
10
1.262000
20
0.984000
40
0.048000
41
1.041667
1
R8
0
POLYLINE
8
0
66
1
40
0.008000
41
0.008000
0
VERTEX
8
0
10
-0.179000
20
0.949000
0
VERTEX
8
0
10
-0.129000
20
0.949000
0
SEQEND
8
0
0
POLYLINE
8
0
66
1
40
0.008000
41
0.008000
0
VERTEX
8
0
10
-0.129000
20
0.924000
0
VERTEX
8
0
10
0.070000
20
0.924000
0
VERTEX
8
0
10
0.070000
20
0.974000
0
VERTEX
8
0
10
-0.129000
20
0.974000
0
VERTEX
8
0
10
-0.129000
20
0.924000
0
SEQEND
8
0
0
POLYLINE
8
0
66
1
40
0.008000
41
0.008000
0
VERTEX
8
0
10
0.070000
20
0.949000
0
VERTEX
8
0
10
0.120000
20
0.949000
0
SEQEND
8
0
0
TEXT
8
12632256
10
-0.079000
20
0.984000
40
0.048000
41
1.041667
1
R5
0
POLYLINE
8
0
66
1
40
0.008000
41
0.008000
0
VERTEX
8
0
10
1.162000
20
1.205000
0
VERTEX
8
0
10
1.462000
20
1.205000
0
VERTEX
8
0
10
1.462000
20
1.305000
0
VERTEX
8
0
10
1.162000
20
1.305000
0
VERTEX
8
0
10
1.162000
20
1.205000
0
SEQEND
8
0
0
POLYLINE
8
0
66
1
40
0.008000
41
0.008000
0
VERTEX
8
0
10
1.462000
20
1.205000
0
VERTEX
8
0
10
1.462000
20
1.155000
0
VERTEX
8
0
10
1.162000
20
1.155000
0
VERTEX
8
0
10
1.162000
20
1.205000
0
SEQEND
8
0
0
POLYLINE
8
0
66
1
40
0.008000
41
0.008000
0
VERTEX
8
0
10
1.462000
20
1.205000
0
VERTEX
8
0
10
1.412000
20
1.155000
0
SEQEND
8
0
0
POLYLINE
8
0
66
1
40
0.008000
41
0.008000
0
VERTEX
8
0
10
1.412000
20
1.205000
0
VERTEX
8
0
10
1.362000
20
1.155000
0
SEQEND
8
0
0
POLYLINE
8
0
66
1
40
0.008000
41
0.008000
0
VERTEX
8
0
10
1.362000
20
1.205000
0
VERTEX
8
0
10
1.312000
20
1.155000
0
SEQEND
8
0
0
POLYLINE
8
0
66
1
40
0.008000
41
0.008000
0
VERTEX
8
0
10
1.312000
20
1.205000
0
VERTEX
8
0
10
1.262000
20
1.155000
0
SEQEND
8
0
0
POLYLINE
8
0
66
1
40
0.008000
41
0.008000
0
VERTEX
8
0
10
1.262000
20
1.205000
0
VERTEX
8
0
10
1.212000
20
1.155000
0
SEQEND
8
0
0
POLYLINE
8
0
66
1
40
0.008000
41
0.008000
0
VERTEX
8
0
10
1.212000
20
1.205000
0
VERTEX
8
0
10
1.162000
20
1.155000
0
SEQEND
8
0
0
TEXT
8
12632256
10
1.262000
20
1.097000
40
0.048000
41
1.041667
1
U4
0
POLYLINE
8
0
66
1
40
0.008000
41
0.008000
0
VERTEX
8
0
10
0.463000
20
1.202000
0
VERTEX
8
0
10
0.763000
20
1.202000
0
VERTEX
8
0
10
0.763000
20
1.302000
0
VERTEX
8
0
10
0.463000
20
1.302000
0
VERTEX
8
0
10
0.463000
20
1.202000
0
SEQEND
8
0
0
POLYLINE
8
0
66
1
40
0.008000
41
0.008000
0
VERTEX
8
0
10
0.763000
20
1.202000
0
VERTEX
8
0
10
0.763000
20
1.152000
0
VERTEX
8
0
10
0.463000
20
1.152000
0
VERTEX
8
0
10
0.463000
20
1.202000
0
SEQEND
8
0
0
POLYLINE
8
0
66
1
40
0.008000
41
0.008000
0
VERTEX
8
0
10
0.763000
20
1.202000
0
VERTEX
8
0
10
0.713000
20
1.152000
0
SEQEND
8
0
0
POLYLINE
8
0
66
1
40
0.008000
41
0.008000
0
VERTEX
8
0
10
0.713000
20
1.202000
0
VERTEX
8
0
10
0.663000
20
1.152000
0
SEQEND
8
0
0
POLYLINE
8
0
66
1
40
0.008000
41
0.008000
0
VERTEX
8
0
10
0.663000
20
1.202000
0
VERTEX
8
0
10
0.613000
20
1.152000
0
SEQEND
8
0
0
POLYLINE
8
0
66
1
40
0.008000
41
0.008000
0
VERTEX
8
0
10
0.613000
20
1.202000
0
VERTEX
8
0
10
0.563000
20
1.152000
0
SEQEND
8
0
0
POLYLINE
8
0
66
1
40
0.008000
41
0.008000
0
VERTEX
8
0
10
0.563000
20
1.202000
0
VERTEX
8
0
10
0.513000
20
1.152000
0
SEQEND
8
0
0
POLYLINE
8
0
66
1
40
0.008000
41
0.008000
0
VERTEX
8
0
10
0.513000
20
1.202000
0
VERTEX
8
0
10
0.463000
20
1.152000
0
SEQEND
8
0
0
TEXT
8
12632256
10
0.563000
20
1.094000
40
0.048000
41
1.041667
1
U5
0
POLYLINE
8
0
66
1
40
0.008000
41
0.008000
0
VERTEX
8
0
10
-0.179000
20
1.205000
0
VERTEX
8
0
10
0.120000
20
1.205000
0
VERTEX
8
0
10
0.120000
20
1.305000
0
VERTEX
8
0
10
-0.179000
20
1.305000
0
VERTEX
8
0
10
-0.179000
20
1.205000
0
SEQEND
8
0
0
POLYLINE
8
0
66
1
40
0.008000
41
0.008000
0
VERTEX
8
0
10
0.120000
20
1.205000
0
VERTEX
8
0
10
0.120000
20
1.155000
0
VERTEX
8
0
10
-0.179000
20
1.155000
0
VERTEX
8
0
10
-0.179000
20
1.205000
0
SEQEND
8
0
0
POLYLINE
8
0
66
1
40
0.008000
41
0.008000
0
VERTEX
8
0
10
0.120000
20
1.205000
0
VERTEX
8
0
10
0.070000
20
1.155000
0
SEQEND
8
0
0
POLYLINE
8
0
66
1
40
0.008000
41
0.008000
0
VERTEX
8
0
10
0.070000
20
1.205000
0
VERTEX
8
0
10
0.020000
20
1.155000
0
SEQEND
8
0
0
POLYLINE
8
0
66
1
40
0.008000
41
0.008000
0
VERTEX
8
0
10
0.020000
20
1.205000
0
VERTEX
8
0
10
-0.029000
20
1.155000
0
SEQEND
8
0
0
POLYLINE
8
0
66
1
40
0.008000
41
0.008000
0
VERTEX
8
0
10
-0.029000
20
1.205000
0
VERTEX
8
0
10
-0.079000
20
1.155000
0
SEQEND
8
0
0
POLYLINE
8
0
66
1
40
0.008000
41
0.008000
0
VERTEX
8
0
10
-0.079000
20
1.205000
0
VERTEX
8
0
10
-0.129000
20
1.155000
0
SEQEND
8
0
0
POLYLINE
8
0
66
1
40
0.008000
41
0.008000
0
VERTEX
8
0
10
-0.129000
20
1.205000
0
VERTEX
8
0
10
-0.179000
20
1.155000
0
SEQEND
8
0
0
TEXT
8
12632256
10
-0.079000
20
1.097000
40
0.048000
41
1.041667
1
U7
0
POLYLINE
8
0
66
1
40
0.008000
41
0.008000
0
VERTEX
8
0
10
1.115000
20
1.762000
0
VERTEX
8
0
10
1.115000
20
1.362000
0
SEQEND
8
0
0
POLYLINE
8
0
66
1
40
0.008000
41
0.008000
0
VERTEX
8
0
10
1.515000
20
1.762000
0
VERTEX
8
0
10
1.515000
20
1.362000
0
SEQEND
8
0
0
POLYLINE
8
0
66
1
40
0.008000
41
0.008000
0
VERTEX
8
0
10
1.115000
20
1.362000
0
VERTEX
8
0
10
1.515000
20
1.362000
0
SEQEND
8
0
0
POLYLINE
8
0
66
1
40
0.008000
41
0.008000
0
VERTEX
8
0
10
1.115000
20
1.762000
0
VERTEX
8
0
10
1.515000
20
1.762000
0
SEQEND
8
0
0
TEXT
8
12632256
10
1.265000
20
1.772000
40
0.048000
41
1.041667
1
J1
0
POLYLINE
8
0
66
1
40
0.008000
41
0.008000
0
VERTEX
8
0
10
0.446000
20
1.762000
0
VERTEX
8
0
10
0.446000
20
1.362000
0
SEQEND
8
0
0
POLYLINE
8
0
66
1
40
0.008000
41
0.008000
0
VERTEX
8
0
10
0.846000
20
1.762000
0
VERTEX
8
0
10
0.846000
20
1.362000
0
SEQEND
8
0
0
POLYLINE
8
0
66
1
40
0.008000
41
0.008000
0
VERTEX
8
0
10
0.446000
20
1.362000
0
VERTEX
8
0
10
0.846000
20
1.362000
0
SEQEND
8
0
0
POLYLINE
8
0
66
1
40
0.008000
41
0.008000
0
VERTEX
8
0
10
0.446000
20
1.762000
0
VERTEX
8
0
10
0.846000
20
1.762000
0
SEQEND
8
0
0
TEXT
8
12632256
10
0.596000
20
1.772000
40
0.048000
41
1.041667
1
J2
0
POLYLINE
8
0
66
1
40
0.008000
41
0.008000
0
VERTEX
8
0
10
-0.198000
20
1.762000
0
VERTEX
8
0
10
-0.198000
20
1.362000
0
SEQEND
8
0
0
POLYLINE
8
0
66
1
40
0.008000
41
0.008000
0
VERTEX
8
0
10
0.201000
20
1.762000
0
VERTEX
8
0
10
0.201000
20
1.362000
0
SEQEND
8
0
0
POLYLINE
8
0
66
1
40
0.008000
41
0.008000
0
VERTEX
8
0
10
-0.198000
20
1.362000
0
VERTEX
8
0
10
0.201000
20
1.362000
0
SEQEND
8
0
0
POLYLINE
8
0
66
1
40
0.008000
41
0.008000
0
VERTEX
8
0
10
-0.198000
20
1.762000
0
VERTEX
8
0
10
0.201000
20
1.762000
0
SEQEND
8
0
0
TEXT
8
12632256
10
-0.048000
20
1.772000
40
0.048000
41
1.041667
1
J3
0
POLYLINE
8
0
66
1
40
0.008000
41
0.008000
0
VERTEX
8
0
10
-1.614000
20
0.907000
0
VERTEX
8
0
10
-0.460000
20
0.907000
0
VERTEX
8
0
10
-0.460000
20
1.289000
0
VERTEX
8
0
10
-1.614000
20
1.289000
0
VERTEX
8
0
10
-1.614000
20
0.907000
0
SEQEND
8
0
0
POLYLINE
8
0
66
1
40
0.008000
41
0.008000
0
VERTEX
8
0
10
-1.578000
20
0.985000
0
VERTEX
8
0
10
-0.491000
20
0.985000
0
VERTEX
8
0
10
-0.491000
20
1.222000
0
VERTEX
8
0
10
-1.578000
20
1.222000
0
VERTEX
8
0
10
-1.578000
20
0.985000
0
SEQEND
8
0
0
POLYLINE
8
0
66
1
40
0.008000
41
0.008000
0
VERTEX
8
0
10
-1.330000
20
1.013000
0
VERTEX
8
0
10
-0.704000
20
1.013000
0
VERTEX
8
0
10
-0.704000
20
1.190000
0
VERTEX
8
0
10
-1.330000
20
1.190000
0
VERTEX
8
0
10
-1.330000
20
1.013000
0
SEQEND
8
0
0
POLYLINE
8
0
66
1
40
0.008000
41
0.008000
0
VERTEX
8
0
10
-0.700000
20
1.017000
0
VERTEX
8
0
10
-0.507000
20
1.017000
0
VERTEX
8
0
10
-0.507000
20
1.186000
0
VERTEX
8
0
10
-0.700000
20
1.186000
0
VERTEX
8
0
10
-0.700000
20
1.017000
0
SEQEND
8
0
0
POLYLINE
8
0
66
1
40
0.008000
41
0.008000
0
VERTEX
8
0
10
-1.562000
20
1.017000
0
VERTEX
8
0
10
-1.330000
20
1.017000
0
VERTEX
8
0
10
-1.330000
20
1.186000
0
VERTEX
8
0
10
-1.562000
20
1.186000
0
VERTEX
8
0
10
-1.562000
20
1.017000
0
SEQEND
8
0
0
TEXT
8
12632256
10
-1.766000
20
1.041000
40
0.048000
41
1.041667
1
F1
0
POLYLINE
8
0
66
1
40
0.000000
41
0.000000
0
VERTEX
8
0
10
-0.602000
20
0.284000
0
VERTEX
8
0
10
1.107000
20
0.284000
0
VERTEX
8
0
10
1.107000
20
0.488000
0
VERTEX
8
0
10
-0.602000
20
0.488000
0
VERTEX
8
0
10
-0.602000
20
0.284000
0
SEQEND
8
0
0
POLYLINE
8
0
66
1
40
0.030000
41
0.030000
0
VERTEX
8
0
10
-1.499000
20
1.401000
0
VERTEX
8
0
10
-0.933000
20
1.401000
0
VERTEX
8
0
10
-0.933000
20
1.812000
0
VERTEX
8
0
10
-1.499000
20
1.812000
0
VERTEX
8
0
10
-1.499000
20
1.401000
0
SEQEND
8
0
0
TEXT
8
12632256
10
-1.382000
20
1.711000
40
0.056000
41
1.071429
1
CABINA
0
TEXT
8
12632256
10
-1.302000
20
1.585000
40
0.056000
41
1.071429
1
PCR
0
TEXT
8
12632256
10
-1.343000
20
1.456000
40
0.064000
41
1.093750
1
2017
0
CIRCLE
8
12632256
10
-0.510000
20
-0.419000
40
0.100000
0
POLYLINE
8
0
66
1
40
0.008000
41
0.008000
0
VERTEX
8
0
10
-0.435000
20
-0.469000
0
VERTEX
8
0
10
-0.485000
20
-0.469000
0
SEQEND
8
0
0
POLYLINE
8
0
66
1
40
0.008000
41
0.008000
0
VERTEX
8
0
10
-0.460000
20
-0.494000
0
VERTEX
8
0
10
-0.460000
20
-0.444000
0
SEQEND
8
0
0
TEXT
8
12632256
10
-0.560000
20
-0.577000
40
0.048000
41
1.041667
1
C6
0
TEXT
8
12632256
10
-1.611000
20
0.675000
40
0.048000
41
1.041667
50
-270.000000
71
2
1
AC
0
TEXT
8
12632256
10
-0.788000
20
0.675000
40
0.048000
41
1.041667
50
-270.000000
71
2
1
AC
0
TEXT
8
12632256
10
-1.296000
20
-0.816000
40
0.048000
41
1.041667
50
-270.000000
71
2
1
Vo+
0
TEXT
8
12632256
10
-1.623000
20
-0.820000
40
0.048000
41
1.041667
50
-270.000000
71
2
1
Vo-
0
POLYLINE
8
0
66
1
40
0.008000
41
0.008000
0
VERTEX
8
0
10
-1.759000
20
-1.181000
0
VERTEX
8
0
10
-0.689000
20
-1.181000
0
VERTEX
8
0
10
-0.689000
20
0.881000
0
VERTEX
8
0
10
-1.759000
20
0.881000
0
VERTEX
8
0
10
-1.759000
20
-1.181000
0
SEQEND
8
0
0
TEXT
8
12632256
10
-1.787000
20
1.171000
40
0.048000
41
1.041667
1
PW2
0
POLYLINE
8
0
66
1
40
0.008000
41
0.008000
0
VERTEX
8
0
10
-0.496000
20
-0.215000
0
VERTEX
8
0
10
-0.396000
20
-0.215000
0
VERTEX
8
0
10
-0.396000
20
-0.195000
0
VERTEX
8
0
10
-0.496000
20
-0.195000
0
VERTEX
8
0
10
-0.496000
20
-0.215000
0
SEQEND
8
0
0
TEXT
8
12632256
10
-0.140000
20
-0.536000
40
0.048000
41
1.041667
1
PCR CONTROLLER
0
TEXT
8
12632256
10
0.482000
20
-1.221000
40
0.048000
41
1.041667
1
BOTONES
0
TEXT
8
12632256
10
0.285000
20
-0.897000
40
0.048000
41
1.041667
1
U D R L + + + +
0
TEXT
8
12632256
10
-0.442000
20
-1.120000
40
0.048000
41
1.041667
1
SENSOR
0
TEXT
8
12632256
10
-0.558000
20
-1.176000
40
0.048000
41
1.041667
1
MAGNETICO
0
TEXT
8
12632256
10
-0.510000
20
-1.237000
40
0.048000
41
1.041667
1
IN
0
TEXT
8
12632256
10
-0.318000
20
-1.234000
40
0.048000
41
1.041667
1
GND
0
TEXT
8
12632256
10
-1.255000
20
-1.419000
40
0.048000
41
1.041667
1
PRESION
0
TEXT
8
12632256
10
-1.231000
20
-1.534000
40
0.048000
41
1.041667
1
FILTRO
0
TEXT
8
12632256
10
0.927000
20
-0.071000
40
0.048000
41
1.041667
1
1
0
TEXT
8
12632256
10
-0.562000
20
-0.071000
40
0.048000
41
1.041667
1
16
0
TEXT
8
12632256
10
1.032000
20
0.382000
40
0.048000
41
1.041667
1
CONTRASTE
0
TEXT
8
12632256
10
-1.251000
20
1.324000
40
0.048000
41
1.041667
1
FUSIBLE
0
TEXT
8
12632256
10
-0.733000
20
1.301000
40
0.048000
41
1.041667
1
L   N
0
TEXT
8
12632256
10
-0.202000
20
1.313000
40
0.048000
41
1.041667
1
MOTOR  N
0
TEXT
8
12632256
10
1.148000
20
1.313000
40
0.048000
41
1.041667
1
UV    N
0
TEXT
8
12632256
10
0.467000
20
1.313000
40
0.048000
41
1.041667
1
LUZ   N
0
CIRCLE
8
12632256
10
1.226000
20
-1.476000
40
0.242000
0
CIRCLE
8
12632256
10
1.226000
20
-1.476000
40
0.050000
0
TEXT
8
12632256
10
1.061000
20
-1.371000
40
0.080000
41
1.125000
1
+
0
TEXT
8
12632256
10
0.769000
20
-1.621000
40
0.048000
41
1.041667
1
BUZ1
0
POLYLINE
8
0
66
1
40
0.008000
41
0.008000
0
VERTEX
8
0
10
1.596000
20
-1.211000
0
VERTEX
8
0
10
1.596000
20
-1.411000
0
SEQEND
8
0
0
POLYLINE
8
0
66
1
40
0.008000
41
0.008000
0
VERTEX
8
0
10
1.661000
20
-1.181000
0
VERTEX
8
0
10
1.646000
20
-1.183000
0
VERTEX
8
0
10
1.630000
20
-1.188000
0
VERTEX
8
0
10
1.614000
20
-1.198000
0
VERTEX
8
0
10
1.596000
20
-1.211000
0
SEQEND
8
0
0
POLYLINE
8
0
66
1
40
0.008000
41
0.008000
0
VERTEX
8
0
10
1.661000
20
-1.181000
0
VERTEX
8
0
10
1.686000
20
-1.182000
0
VERTEX
8
0
10
1.698000
20
-1.185000
0
VERTEX
8
0
10
1.710000
20
-1.189000
0
VERTEX
8
0
10
1.721000
20
-1.194000
0
VERTEX
8
0
10
1.731000
20
-1.200000
0
VERTEX
8
0
10
1.741000
20
-1.207000
0
VERTEX
8
0
10
1.750000
20
-1.216000
0
VERTEX
8
0
10
1.765000
20
-1.235000
0
VERTEX
8
0
10
1.776000
20
-1.258000
0
VERTEX
8
0
10
1.780000
20
-1.270000
0
VERTEX
8
0
10
1.783000
20
-1.283000
0
VERTEX
8
0
10
1.785000
20
-1.297000
0
VERTEX
8
0
10
1.786000
20
-1.311000
0
SEQEND
8
0
0
POLYLINE
8
0
66
1
40
0.008000
41
0.008000
0
VERTEX
8
0
10
1.661000
20
-1.441000
0
VERTEX
8
0
10
1.646000
20
-1.439000
0
VERTEX
8
0
10
1.630000
20
-1.434000
0
VERTEX
8
0
10
1.614000
20
-1.424000
0
VERTEX
8
0
10
1.596000
20
-1.411000
0
SEQEND
8
0
0
POLYLINE
8
0
66
1
40
0.008000
41
0.008000
0
VERTEX
8
0
10
1.661000
20
-1.441000
0
VERTEX
8
0
10
1.686000
20
-1.440000
0
VERTEX
8
0
10
1.698000
20
-1.437000
0
VERTEX
8
0
10
1.710000
20
-1.433000
0
VERTEX
8
0
10
1.721000
20
-1.428000
0
VERTEX
8
0
10
1.731000
20
-1.422000
0
VERTEX
8
0
10
1.741000
20
-1.415000
0
VERTEX
8
0
10
1.750000
20
-1.406000
0
VERTEX
8
0
10
1.765000
20
-1.387000
0
VERTEX
8
0
10
1.776000
20
-1.364000
0
VERTEX
8
0
10
1.780000
20
-1.352000
0
VERTEX
8
0
10
1.783000
20
-1.339000
0
VERTEX
8
0
10
1.785000
20
-1.325000
0
VERTEX
8
0
10
1.786000
20
-1.311000
0
SEQEND
8
0
0
TEXT
8
12632256
10
1.573000
20
-1.452000
40
0.048000
41
1.041667
50
90.000000
1
Q1
0
POLYLINE
8
0
66
1
40
0.008000
41
0.008000
0
VERTEX
8
0
10
1.536000
20
-0.943000
0
VERTEX
8
0
10
1.536000
20
-0.993000
0
SEQEND
8
0
0
POLYLINE
8
0
66
1
40
0.008000
41
0.008000
0
VERTEX
8
0
10
1.511000
20
-1.193000
0
VERTEX
8
0
10
1.561000
20
-1.193000
0
VERTEX
8
0
10
1.561000
20
-0.993000
0
VERTEX
8
0
10
1.511000
20
-0.993000
0
VERTEX
8
0
10
1.511000
20
-1.193000
0
SEQEND
8
0
0
POLYLINE
8
0
66
1
40
0.008000
41
0.008000
0
VERTEX
8
0
10
1.536000
20
-1.193000
0
VERTEX
8
0
10
1.536000
20
-1.243000
0
SEQEND
8
0
0
TEXT
8
12632256
10
1.495000
20
-1.138000
40
0.048000
41
1.041667
50
90.000000
1
R9
0
CIRCLE
8
12632256
10
-0.470000
20
-0.760000
40
0.000000
0
CIRCLE
8
12632256
10
-0.470000
20
-0.760000
40
0.100000
0
POLYLINE
8
0
66
1
40
0.008000
41
0.008000
0
VERTEX
8
0
10
-0.595000
20
-0.660000
0
VERTEX
8
0
10
-0.545000
20
-0.660000
0
SEQEND
8
0
0
POLYLINE
8
0
66
1
40
0.008000
41
0.008000
0
VERTEX
8
0
10
-0.570000
20
-0.635000
0
VERTEX
8
0
10
-0.570000
20
-0.685000
0
SEQEND
8
0
0
TEXT
8
12632256
10
-0.510000
20
-0.639000
40
0.048000
41
1.041667
1
D1
0
POLYLINE
8
0
66
1
40
0.008000
41
0.008000
0
VERTEX
8
0
10
-0.612000
20
-0.976000
0
VERTEX
8
0
10
-0.612000
20
-0.926000
0
SEQEND
8
0
0
POLYLINE
8
0
66
1
40
0.008000
41
0.008000
0
VERTEX
8
0
10
-0.637000
20
-0.926000
0
VERTEX
8
0
10
-0.587000
20
-0.926000
0
VERTEX
8
0
10
-0.587000
20
-0.726000
0
VERTEX
8
0
10
-0.637000
20
-0.726000
0
VERTEX
8
0
10
-0.637000
20
-0.926000
0
SEQEND
8
0
0
POLYLINE
8
0
66
1
40
0.008000
41
0.008000
0
VERTEX
8
0
10
-0.612000
20
-0.726000
0
VERTEX
8
0
10
-0.612000
20
-0.676000
0
SEQEND
8
0
0
TEXT
8
12632256
10
-0.647000
20
-0.901000
40
0.048000
41
1.041667
50
90.000000
1
R10
0
ENDSEC
0
EOF

