G04 PROTEUS GERBER X2 FILE*
%TF.GenerationSoftware,Labcenter,Proteus,8.7-SP3-Build25561*%
%TF.CreationDate,2018-09-19T21:32:30+00:00*%
%TF.FileFunction,AssemblyDrawing,Bot*%
%TF.FilePolarity,Positive*%
%TF.Part,Single*%
%TF.SameCoordinates,{e3305a46-ce47-47b3-9e58-762d23285141}*%
%FSLAX45Y45*%
%MOMM*%
G01*
%TA.AperFunction,Profile*%
%ADD23C,0.203200*%
%TA.AperFunction,Material*%
%ADD27C,0.203200*%
%ADD62C,0.488500*%
%ADD63C,0.154940*%
%TD.AperFunction*%
D23*
X+0Y-20000D02*
X+13561600Y-20000D01*
X+13561600Y+10438000D01*
X+0Y+10438000D01*
X+0Y-20000D01*
D27*
X+903000Y-270160D02*
X+2857000Y-270160D01*
X+2857000Y+1350160D01*
X+903000Y+1350160D01*
X+903000Y-270160D01*
D62*
X+2466200Y+442300D02*
X+2417350Y+393450D01*
X+2221950Y+393450D01*
X+2173100Y+442300D01*
X+2173100Y+491150D01*
X+2221950Y+540000D01*
X+2417350Y+540000D01*
X+2466200Y+588850D01*
X+2466200Y+637700D01*
X+2417350Y+686550D01*
X+2221950Y+686550D01*
X+2173100Y+637700D01*
X+2075400Y+393450D02*
X+2075400Y+686550D01*
X+1831150Y+686550D01*
X+1782300Y+637700D01*
X+1782300Y+588850D01*
X+1831150Y+540000D01*
X+2075400Y+540000D01*
X+1586900Y+588850D02*
X+1489200Y+686550D01*
X+1489200Y+393450D01*
D27*
X+6501130Y+3125400D02*
X+6965950Y+3125400D01*
X+6965950Y+3516560D01*
X+6501130Y+3516560D01*
X+6501130Y+3125400D01*
D63*
X+6764528Y+3289992D02*
X+6780022Y+3274498D01*
X+6826504Y+3274498D01*
X+6857492Y+3305486D01*
X+6857492Y+3336474D01*
X+6826504Y+3367462D01*
X+6780022Y+3367462D01*
X+6764528Y+3351968D01*
X+6640576Y+3305486D02*
X+6733540Y+3305486D01*
X+6671564Y+3367462D01*
X+6671564Y+3274498D01*
D27*
X+6054090Y+3874700D02*
X+6518910Y+3874700D01*
X+6518910Y+4265860D01*
X+6054090Y+4265860D01*
X+6054090Y+3874700D01*
D63*
X+6317488Y+4039292D02*
X+6332982Y+4023798D01*
X+6379464Y+4023798D01*
X+6410452Y+4054786D01*
X+6410452Y+4085774D01*
X+6379464Y+4116762D01*
X+6332982Y+4116762D01*
X+6317488Y+4101268D01*
X+6193536Y+4116762D02*
X+6271006Y+4116762D01*
X+6271006Y+4085774D01*
X+6209030Y+4085774D01*
X+6193536Y+4070280D01*
X+6193536Y+4039292D01*
X+6209030Y+4023798D01*
X+6255512Y+4023798D01*
X+6271006Y+4039292D01*
M02*
