G04 PROTEUS GERBER X2 FILE*
%TF.GenerationSoftware,Labcenter,Proteus,8.7-SP3-Build25561*%
%TF.CreationDate,2018-09-19T21:32:30+00:00*%
%TF.FileFunction,Copper,L2,Bot*%
%TF.FilePolarity,Positive*%
%TF.Part,Single*%
%TF.SameCoordinates,{e3305a46-ce47-47b3-9e58-762d23285141}*%
%FSLAX45Y45*%
%MOMM*%
G01*
%TA.AperFunction,Conductor*%
%ADD10C,0.635000*%
%ADD24C,1.016000*%
%ADD12C,1.778000*%
%ADD11C,1.270000*%
%TA.AperFunction,ViaPad*%
%ADD13C,1.778000*%
%ADD14C,2.032000*%
%TA.AperFunction,ComponentPad*%
%ADD15R,1.778000X1.778000*%
%ADD16C,1.778000*%
%TA.AperFunction,ComponentPad*%
%ADD17C,2.032000*%
%TA.AperFunction,SMDPad,CuDef*%
%ADD25R,2.540000X1.524000*%
%TA.AperFunction,ComponentPad*%
%ADD18R,2.032000X2.032000*%
%TA.AperFunction,ComponentPad*%
%ADD19C,3.048000*%
%TA.AperFunction,OtherPad,Unknown*%
%ADD70C,6.350000*%
%TA.AperFunction,SMDPad,CuDef*%
%ADD26R,1.651000X3.048000*%
%TA.AperFunction,ComponentPad*%
%ADD71C,2.540000*%
%TA.AperFunction,ComponentPad*%
%ADD20C,1.524000*%
%TA.AperFunction,ComponentPad*%
%ADD21R,4.572000X4.572000*%
%ADD22C,3.810000*%
%TA.AperFunction,Profile*%
%ADD23C,0.203200*%
%TD.AperFunction*%
D10*
X+5704000Y+474920D02*
X+5733171Y+474920D01*
X+5942655Y+474920D01*
X+5979985Y+512250D01*
X+6014000Y+474920D01*
X+5414000Y+474920D02*
X+5733171Y+474920D01*
X+5761772Y+503521D01*
X+5704000Y+474920D01*
X+6014000Y+474920D02*
X+6304000Y+474920D01*
X+7227560Y+2074420D02*
X+7004503Y+2074420D01*
X+6958225Y+2120698D01*
X+6973560Y+2074420D01*
X+6719560Y+2074420D02*
X+6871960Y+2074420D01*
X+6973560Y+2074420D01*
X+6719560Y+2074420D02*
X+6465560Y+2074420D01*
X+7138000Y+2880000D02*
X+7138000Y+3361360D01*
X+7176140Y+3399500D01*
X+7392000Y+2880000D02*
X+7392000Y+3032020D01*
X+7684140Y+3324160D01*
X+7684140Y+3399500D01*
X+6630000Y+2880000D02*
X+6630000Y+3217415D01*
X+6542769Y+3304646D01*
X+6583680Y+3277800D01*
X+6884000Y+2880000D02*
X+6884000Y+3269580D01*
X+6852920Y+3300660D01*
X+6883400Y+3277800D01*
X+6583680Y+3277800D02*
X+6103620Y+3757860D01*
X+6103620Y+3874700D01*
X+6136640Y+4027100D01*
X+6111596Y+4340500D02*
X+6122000Y+4404000D01*
X+6436360Y+4027100D02*
X+6436360Y+4292999D01*
X+6388859Y+4340500D01*
X+6376000Y+4404000D01*
X+6436360Y+4027100D02*
X+6436360Y+3752780D01*
X+6637549Y+3551591D01*
X+6805391Y+3551591D01*
X+6884000Y+3472982D01*
X+6884000Y+3430200D01*
X+6883400Y+3277800D01*
X+4090000Y+4404000D02*
X+3771300Y+4722700D01*
X+3771300Y+5367940D01*
X+4344000Y+4404000D02*
X+4025300Y+4722700D01*
X+4025300Y+5367940D01*
X+4598000Y+4404000D02*
X+4279300Y+4722700D01*
X+4279300Y+5367940D01*
X+4852000Y+4404000D02*
X+4533300Y+4722700D01*
X+4533300Y+5367940D01*
X+5106000Y+4404000D02*
X+5758818Y+5056818D01*
X+5758818Y+5266340D01*
X+5803300Y+5367940D01*
X+5360000Y+4404000D02*
X+6057300Y+5101300D01*
X+6057300Y+5367940D01*
X+5614000Y+4404000D02*
X+6323262Y+5113262D01*
X+6323262Y+5266340D01*
X+6311300Y+5367940D01*
X+6376000Y+4404000D02*
X+6376000Y+4565649D01*
X+6720136Y+4909785D01*
X+6870067Y+4909785D01*
X+6966251Y+5005969D01*
X+617326Y+2232360D02*
X+492760Y+2359360D01*
X+7972520Y+2007000D02*
X+8687600Y+2007000D01*
X+8862060Y+1832540D01*
X+651329Y+1901120D02*
X+651329Y+2071300D01*
X+651329Y+2129720D01*
D24*
X+2540138Y+6996360D02*
X+2572760Y+6869360D01*
X+492760Y+6869360D02*
X+492760Y+7490689D01*
X+1036540Y+8034469D01*
D12*
X+1036540Y+9549680D02*
X+1036540Y+8034469D01*
D10*
X+1030000Y+890000D02*
X+851724Y+890000D01*
X+651329Y+1090395D01*
X+651329Y+1901120D01*
X+7691760Y+1970651D02*
X+7691760Y+2007000D01*
X+7691760Y+1970651D02*
X+7728108Y+1970652D01*
X+7691760Y+2007000D01*
X+7950000Y+1570000D02*
X+7950000Y+1984480D01*
X+7972520Y+2007000D01*
X+7691760Y+2515000D02*
X+7606760Y+2600000D01*
X+7187820Y+2600000D01*
X+7118039Y+2669781D01*
X+7118039Y+2816500D01*
X+7138000Y+2880000D01*
X+7972520Y+2515000D02*
X+7972520Y+2553717D01*
X+7806237Y+2720000D01*
X+7448409Y+2720000D01*
X+7387877Y+2780532D01*
X+7387877Y+2875877D01*
X+7392000Y+2880000D01*
X+5704000Y+1490920D02*
X+5739560Y+1490920D01*
X+5739560Y+2038420D01*
X+5703560Y+2074420D01*
X+5414000Y+1490920D02*
X+5449560Y+1490920D01*
X+5449560Y+2074420D01*
X+7430660Y+1302820D02*
X+7638420Y+1510580D01*
X+7638420Y+1970651D01*
X+7691760Y+1970651D01*
X+7227560Y+2074420D02*
X+7624340Y+2074420D01*
X+7665202Y+2074420D01*
X+7732622Y+2007000D01*
X+7691760Y+2007000D01*
X+7732622Y+2007000D02*
X+7972520Y+2007000D01*
X+7691760Y+2007000D02*
X+7624340Y+2074420D01*
X+7470140Y+2228620D01*
X+7470140Y+2322760D01*
X+7288073Y+2504827D01*
X+7012450Y+2504827D01*
X+6883397Y+2633880D01*
X+6883397Y+2879397D01*
X+6884000Y+2880000D01*
X+6014000Y+1490920D02*
X+6014000Y+2017980D01*
X+5957560Y+2074420D01*
X+6304000Y+474920D02*
X+7541200Y+474920D01*
X+7711440Y+645160D01*
X+5449560Y+2074420D02*
X+5449560Y+2400762D01*
X+5615955Y+2567157D01*
X+5615955Y+2878045D01*
X+5614000Y+2880000D01*
X+5703560Y+2074420D02*
X+5703560Y+2280008D01*
X+5872731Y+2449179D01*
X+5872731Y+2875269D01*
X+5868000Y+2880000D01*
X+5957560Y+2074420D02*
X+5957560Y+2200894D01*
X+6136447Y+2379781D01*
X+6136447Y+2865553D01*
X+6122000Y+2880000D01*
X+6211560Y+2074420D02*
X+6211560Y+2103410D01*
X+6211560Y+2156479D01*
X+6386283Y+2331202D01*
X+6386283Y+2869717D01*
X+6376000Y+2880000D01*
X+6304000Y+1490920D02*
X+6304000Y+1719496D01*
X+6219726Y+1803770D01*
X+6219726Y+2095244D01*
X+6211560Y+2103410D01*
X+6198906Y+2116064D01*
X+6211560Y+2074420D01*
X+4079460Y+2534900D02*
X+4079460Y+2560400D01*
X+4079460Y+2869460D01*
X+4090000Y+2880000D01*
X+4079460Y+1518900D02*
X+4603580Y+1518900D01*
X+4603580Y+2534900D02*
X+4603580Y+2913580D01*
X+4610000Y+2920000D01*
X+4598000Y+2880000D01*
X+4292600Y+599440D02*
X+4557362Y+599440D01*
X+4977485Y+1019563D01*
X+4977485Y+2160995D01*
X+4603580Y+2534900D01*
X+1030000Y+1140000D02*
X+2141529Y+1140000D01*
X+2548524Y+1546995D01*
X+2951037Y+1949508D01*
X+4075299Y+1949508D01*
X+4345955Y+2220164D01*
X+4345955Y+2310382D01*
X+4345955Y+2878045D01*
X+4344000Y+2880000D01*
X+651329Y+2129720D02*
X+651329Y+2198357D01*
X+617326Y+2232360D01*
X+7176660Y+1302820D02*
X+7176660Y+1179940D01*
X+7711440Y+645160D01*
X+1292760Y+2359360D02*
X+1292760Y+2580682D01*
X+1256721Y+2616721D01*
X+3593780Y+2418880D02*
X+3593780Y+2189737D01*
X+3513168Y+2109125D01*
X+2673441Y+2109125D01*
X+2277868Y+1713552D01*
X+1136134Y+1713552D01*
X+651329Y+2198357D01*
X+3268180Y+4325020D02*
X+3268180Y+5363060D01*
X+3263300Y+5367940D01*
X+6136640Y+4027100D02*
X+6111596Y+4052144D01*
X+6111596Y+4090000D01*
X+6111596Y+4340500D01*
X+3339780Y+2418880D02*
X+3124000Y+2634660D01*
X+3124000Y+3220000D01*
X+4140000Y+3220000D02*
X+3757200Y+3602800D01*
X+3757200Y+4090000D01*
X+6111596Y+4090000D02*
X+3757200Y+4090000D01*
X+3522180Y+4325020D01*
X+1030000Y+890000D02*
X+1850000Y+890000D01*
X+2040000Y+700000D01*
X+2040000Y+529999D01*
X+2359999Y+210000D01*
X+3720000Y+210000D01*
X+3800000Y+290000D01*
X+3800000Y+584040D01*
X+3784600Y+599440D01*
X+1030000Y+640000D02*
X+1483133Y+640000D01*
X+2038817Y+84316D01*
X+5023396Y+84316D01*
X+5414000Y+474920D01*
X+3522180Y+5363060D02*
X+3517300Y+5367940D01*
X+1256721Y+2616721D02*
X+1077268Y+2796174D01*
X+383279Y+2796174D01*
X+182022Y+2594917D01*
X+182022Y+1276338D01*
X+827431Y+630929D01*
X+1020929Y+630929D01*
X+1030000Y+640000D01*
X+3522180Y+4325020D02*
X+3522180Y+5363060D01*
X+8544560Y+2508060D02*
X+8544560Y+2579560D01*
X+8662000Y+2697000D01*
X+8662000Y+2880000D01*
X+8544560Y+1492060D02*
X+8681840Y+1629340D01*
X+8862060Y+1629340D01*
X+9111700Y+2314720D02*
X+9111700Y+2064401D01*
X+8938260Y+1890961D01*
X+8862060Y+1832540D01*
X+8857700Y+2314720D02*
X+8755976Y+2212996D01*
X+8480553Y+2212996D01*
X+8273549Y+2420000D01*
X+8260000Y+2420000D01*
X+8260000Y+2590000D01*
X+8410000Y+2740000D01*
X+8410000Y+2878000D01*
X+8408000Y+2880000D01*
X+8481440Y+645160D02*
X+8862060Y+1025780D01*
X+8862060Y+1426140D01*
X+7711440Y+645160D02*
X+7918140Y+851860D01*
X+8204000Y+1137720D01*
X+8204000Y+1570000D01*
X+8125175Y+5841420D02*
X+8125175Y+6099175D01*
X+8310000Y+6284000D01*
X+8662000Y+4404000D02*
X+8662000Y+5648941D01*
X+8555512Y+5755429D01*
X+8555512Y+6275512D01*
X+8564000Y+6284000D01*
X+8916000Y+4404000D02*
X+8988000Y+4476000D01*
X+9810000Y+4476000D01*
X+9854280Y+4476000D01*
X+7918140Y+851860D02*
X+8177059Y+592941D01*
X+8177059Y+354688D01*
X+8289118Y+242629D01*
X+8962629Y+242629D01*
X+9470000Y+750000D01*
X+9470000Y+773520D01*
X+9468000Y+775520D01*
X+9854280Y+1544320D02*
X+9607080Y+1791520D01*
X+9468000Y+1791520D01*
X+9854280Y+1290320D02*
X+9550108Y+1290320D01*
X+9203704Y+1636724D01*
X+9203704Y+1861054D01*
X+9362906Y+2020256D01*
X+9362906Y+2577464D01*
X+9066211Y+2874159D01*
X+8921841Y+2874159D01*
X+8916000Y+2880000D01*
D11*
X+10616280Y+1036320D02*
X+10746320Y+1036320D01*
X+10830000Y+1120000D01*
X+10830000Y+1510000D01*
X+10890000Y+1570000D01*
X+11154789Y+1570000D01*
X+11159789Y+1575000D01*
X+11183480Y+1582260D01*
X+10743280Y+518160D02*
X+10616280Y+645160D01*
X+10616280Y+1036320D01*
X+11183480Y+1074260D02*
X+11183480Y+392334D01*
X+11373751Y+202063D01*
X+9727280Y+518160D02*
X+10043377Y+202063D01*
X+11373751Y+202063D01*
X+11961580Y+202063D01*
X+12115680Y+356163D01*
X+12115680Y+611820D01*
X+9727280Y+518160D02*
X+9991677Y+518160D01*
X+10234380Y+760863D01*
X+10234380Y+1682519D01*
X+10074723Y+1842176D01*
X+9847824Y+1842176D01*
X+9630000Y+2060000D01*
X+9630000Y+2754220D01*
X+9763760Y+2887980D01*
X+11618350Y+2013900D02*
X+11744450Y+2140000D01*
X+12014080Y+2140000D01*
X+12115680Y+2135820D01*
X+11531142Y+1328260D02*
X+11584208Y+1381326D01*
X+11584208Y+1704290D01*
X+11183480Y+1328260D02*
X+11531142Y+1328260D01*
X+11627920Y+1231482D01*
X+11627920Y+499470D01*
X+11618350Y+489900D01*
X+10616280Y+1544320D02*
X+10616280Y+1832191D01*
X+10822208Y+2038119D01*
X+10908969Y+2124880D01*
X+11210280Y+2124880D01*
X+13010000Y+1740000D02*
X+13010000Y+2012954D01*
X+12302360Y+2720594D01*
X+12073760Y+2887980D01*
X+11370000Y+2386462D02*
X+11533408Y+2549870D01*
X+11533408Y+3366174D01*
X+11533408Y+3611058D01*
X+11638350Y+3716000D01*
X+11584208Y+1704290D02*
X+11388265Y+1900233D01*
X+11388265Y+2001833D01*
X+11388265Y+2081661D01*
X+11475351Y+2168747D01*
X+11475351Y+2328405D01*
X+11417294Y+2386462D01*
X+11370000Y+2386462D01*
X+10201862Y+2386462D01*
X+9940280Y+2124880D01*
X+10743280Y+3750000D02*
X+10616280Y+3877000D01*
X+10616280Y+4222000D01*
X+9727280Y+3750000D02*
X+10031277Y+3446003D01*
X+11090723Y+3446003D01*
X+11199580Y+3554860D01*
X+11199580Y+4158400D01*
X+11193480Y+4260000D01*
X+10616280Y+4222000D02*
X+10792663Y+4222000D01*
X+10858494Y+4287831D01*
X+10858494Y+4679716D01*
X+10923809Y+4745031D01*
X+11170511Y+4745031D01*
X+11193480Y+4768000D01*
X+9727280Y+3750000D02*
X+10030378Y+3750000D01*
X+10256153Y+3975775D01*
X+10256153Y+4817602D01*
X+10089238Y+4984517D01*
X+9755410Y+4984517D01*
X+9573981Y+5165946D01*
X+9573981Y+5783981D01*
X+9770000Y+5980000D01*
D10*
X+10616280Y+4730000D02*
X+10616280Y+4796000D01*
X+11080280Y+5260000D01*
D11*
X+11638350Y+3716000D02*
X+11638350Y+4371650D01*
X+11520000Y+4490000D01*
X+11460000Y+4490000D01*
X+11217480Y+4490000D01*
X+11193480Y+4514000D01*
D10*
X+9854280Y+4730000D02*
X+9690000Y+4730000D01*
X+9430000Y+4990000D01*
D11*
X+11638350Y+5240000D02*
X+12099680Y+5240000D01*
X+12125680Y+5214000D01*
X+13000000Y+4250000D02*
X+12901609Y+4250000D01*
X+12626667Y+4524942D01*
X+12626667Y+4904482D01*
X+12867529Y+5145344D01*
X+12867529Y+5882471D01*
X+12750000Y+6000000D01*
X+12122356Y+6000000D01*
X+12079253Y+6043103D01*
X+12080000Y+5980000D01*
D12*
X+12080000Y+7040000D02*
X+12810000Y+7770000D01*
X+12810000Y+7884000D01*
X+9180000Y+7173000D02*
X+9637000Y+7173000D01*
X+9770000Y+7040000D01*
X+10044198Y+7314198D01*
X+10044198Y+8376900D01*
X+10004000Y+8478500D01*
X+10478298Y+8478500D01*
X+10903207Y+8903409D01*
X+10903207Y+9340318D01*
X+10627820Y+9615705D01*
X+10526220Y+9620000D01*
D11*
X+11460000Y+4490000D02*
X+11576952Y+4606952D01*
X+11576952Y+4788574D01*
X+11576952Y+4824860D01*
X+11402780Y+4999032D01*
X+11402780Y+5417220D01*
X+11270000Y+5550000D01*
X+10140000Y+5550000D01*
X+10100280Y+5550000D01*
X+9810280Y+5260000D01*
D12*
X+10526220Y+9120000D02*
X+10090469Y+9120000D01*
X+9180000Y+6157000D02*
X+9180000Y+6747987D01*
X+8906900Y+7021087D01*
X+8818000Y+7046000D01*
X+8818000Y+7518550D01*
X+9137315Y+7837865D01*
X+9496000Y+8196550D01*
X+9496000Y+8478500D01*
X+7790000Y+6030000D02*
X+7790000Y+6526000D01*
X+8310000Y+7046000D01*
X+10090469Y+9120000D02*
X+9792420Y+8821951D01*
D10*
X+9002220Y+9620000D02*
X+9002220Y+9120000D01*
D11*
X+12810000Y+8900000D02*
X+13021496Y+8900000D01*
X+13415210Y+8506286D01*
X+13415210Y+4862448D01*
X+13313896Y+4761134D01*
X+13010000Y+1232000D02*
X+13215410Y+1232000D01*
X+13445844Y+1462434D01*
X+13445844Y+4629186D01*
X+13313896Y+4761134D01*
X+13003134Y+4761134D01*
X+13000000Y+4758000D01*
D12*
X+1544540Y+9549680D02*
X+2540138Y+8554082D01*
D24*
X+2540138Y+6996360D01*
D12*
X+7790000Y+7300000D02*
X+8123543Y+7633543D01*
X+8123543Y+8450000D01*
X+5390000Y+7300000D02*
X+5644000Y+7046000D01*
X+6020000Y+7046000D01*
X+8123543Y+8450000D02*
X+7473543Y+9100000D01*
X+6964000Y+9100000D01*
X+6062579Y+8885058D02*
X+6160000Y+8787637D01*
X+6160000Y+8488500D01*
D10*
X+1077268Y+2796174D02*
X+2674578Y+4393484D01*
X+2674578Y+5519941D01*
X+2915983Y+5761346D01*
X+3377801Y+5761346D01*
X+3514248Y+5624899D01*
D12*
X+7060000Y+7173000D02*
X+7060000Y+7286056D01*
X+6886963Y+7459093D01*
X+6709093Y+7459093D01*
X+6630000Y+7380000D01*
X+6528000Y+7278000D01*
X+6528000Y+7205339D01*
X+6528000Y+7046000D02*
X+6528000Y+7205339D01*
X+5906615Y+7826724D01*
X+5906615Y+8487885D01*
X+5906000Y+8488500D01*
D10*
X+6719560Y+2074420D02*
X+6719560Y+1323171D01*
X+6663149Y+1266760D01*
X+3805649Y+2242778D02*
X+3625274Y+2423153D01*
X+3589507Y+2423153D01*
X+3593780Y+2418880D01*
X+3268180Y+4325020D02*
X+3268180Y+3686571D01*
X+3589507Y+3365244D01*
X+3589507Y+2423153D01*
X+5805175Y+5910000D02*
X+5805175Y+6079175D01*
X+6010000Y+6284000D01*
X+6020000Y+6284000D01*
X+6821175Y+5910000D02*
X+6761175Y+5850000D01*
X+6449999Y+5850000D01*
X+6236638Y+5636639D01*
X+5204772Y+5636639D01*
X+5104509Y+5736902D01*
X+3666251Y+5736902D01*
X+3514248Y+5584899D01*
X+3514248Y+5603908D01*
X+3514248Y+5624899D01*
X+3514248Y+5584899D02*
X+3514248Y+5370992D01*
X+3522180Y+5363060D01*
X+7535760Y+4929020D02*
X+7119060Y+4929020D01*
X+7004181Y+5043899D01*
X+6966251Y+5005969D02*
X+7004181Y+5043899D01*
X+7090553Y+5130271D01*
X+7090553Y+5350687D01*
X+7073300Y+5367940D01*
X+7789760Y+5489020D02*
X+7789760Y+5561318D01*
X+7611078Y+5740000D01*
X+6760000Y+5740000D01*
X+6548120Y+5528120D01*
X+6548120Y+5385120D01*
X+6565300Y+5367940D01*
X+6819300Y+5330000D02*
X+6819300Y+5367940D01*
X+6122000Y+4404000D02*
X+6122000Y+4637968D01*
X+6570312Y+5086280D01*
X+6728460Y+5086280D01*
X+6819300Y+5177120D01*
X+6819300Y+5330000D01*
X+8043760Y+4929020D02*
X+7761936Y+5210844D01*
X+7503823Y+5210844D01*
X+7320146Y+5394521D01*
X+7320146Y+5504729D01*
X+7209940Y+5614935D01*
X+6889815Y+5614935D01*
X+6819300Y+5544420D01*
X+6819300Y+5367940D01*
D11*
X+10140000Y+5550000D02*
X+10290000Y+5700000D01*
X+10290000Y+6483972D01*
X+11365384Y+7559356D01*
X+11365384Y+9341813D01*
X+10857197Y+9850000D01*
X+10146819Y+9850000D01*
X+9894859Y+9598040D01*
X+9894859Y+9315610D01*
X+10090469Y+9120000D01*
D12*
X+3580000Y+9070000D02*
X+4560000Y+10050000D01*
X+11340000Y+10050000D01*
X+12242638Y+9147362D01*
X+12242638Y+8625973D01*
X+12471944Y+8396667D01*
X+12805333Y+8396667D01*
X+12810000Y+8392000D01*
X+9792420Y+8821951D02*
X+9740000Y+8769531D01*
X+9740000Y+8488500D01*
X+9750000Y+8478500D01*
X+8123543Y+8450000D02*
X+8123543Y+8543544D01*
X+8439999Y+8860000D01*
X+9754371Y+8860000D01*
X+9792420Y+8821951D01*
X+7060000Y+6157000D02*
X+7400000Y+6497000D01*
X+7400000Y+7460000D01*
X+6414000Y+8446000D01*
X+6414000Y+8488500D01*
X+1036540Y+8034469D02*
X+1843783Y+7227226D01*
X+1843783Y+6727438D01*
X+1843783Y+6726217D01*
X+2470000Y+6100000D01*
X+4510246Y+6100000D01*
X+4915123Y+6504877D01*
X+5390000Y+6030000D02*
X+4915123Y+6504877D01*
X+4915123Y+7347689D01*
X+4915123Y+7425671D01*
X+5316176Y+7826724D01*
X+5440000Y+7950548D01*
X+5440000Y+8560000D01*
X+5765058Y+8885058D01*
X+6062579Y+8885058D01*
X+5440000Y+9100000D02*
X+5440000Y+9550000D01*
X+6414000Y+8488500D02*
X+6414000Y+9314000D01*
X+6640000Y+9540000D01*
X+6954000Y+9540000D01*
X+6964000Y+9550000D01*
X+6062579Y+8885058D02*
X+6062579Y+9553479D01*
X+6319100Y+9810000D01*
X+7421409Y+9810000D01*
X+7590000Y+9641409D01*
X+7590000Y+9216457D01*
X+7473543Y+9100000D01*
X+3580000Y+6760000D02*
X+3580000Y+8369999D01*
X+4669953Y+9459952D01*
X+4669953Y+9476027D01*
X+12810000Y+8900000D02*
X+12810000Y+9470000D01*
X+11990000Y+10290000D01*
X+3780000Y+10290000D01*
X+2887579Y+9397579D01*
X+2887579Y+8901523D01*
X+2540138Y+8554082D01*
D10*
X+6274000Y+6284000D02*
X+6274000Y+6070011D01*
X+6277400Y+6066611D01*
X+7888671Y+4605584D02*
X+7888671Y+4492900D01*
X+7900000Y+4404000D01*
D13*
X+6663149Y+1266760D03*
X+3805649Y+2242778D03*
D14*
X+4669953Y+9476027D03*
D13*
X+6277400Y+6066611D03*
X+7888671Y+4605584D03*
D15*
X+4090000Y+2880000D03*
D16*
X+4344000Y+2880000D03*
X+4598000Y+2880000D03*
X+4852000Y+2880000D03*
X+5106000Y+2880000D03*
X+5360000Y+2880000D03*
X+5614000Y+2880000D03*
X+5868000Y+2880000D03*
X+6122000Y+2880000D03*
X+6376000Y+2880000D03*
X+6630000Y+2880000D03*
X+6884000Y+2880000D03*
X+7138000Y+2880000D03*
X+7392000Y+2880000D03*
X+7646000Y+2880000D03*
X+7900000Y+2880000D03*
X+8154000Y+2880000D03*
X+8408000Y+2880000D03*
X+8662000Y+2880000D03*
X+8916000Y+2880000D03*
X+8916000Y+4404000D03*
X+8662000Y+4404000D03*
X+8408000Y+4404000D03*
X+8154000Y+4404000D03*
X+7900000Y+4404000D03*
X+7646000Y+4404000D03*
X+7392000Y+4404000D03*
X+7138000Y+4404000D03*
X+6884000Y+4404000D03*
X+6630000Y+4404000D03*
X+6376000Y+4404000D03*
X+6122000Y+4404000D03*
X+5868000Y+4404000D03*
X+5614000Y+4404000D03*
X+5360000Y+4404000D03*
X+5106000Y+4404000D03*
X+4852000Y+4404000D03*
X+4598000Y+4404000D03*
X+4344000Y+4404000D03*
X+4090000Y+4404000D03*
D17*
X+5449560Y+2074420D03*
X+5703560Y+2074420D03*
X+5957560Y+2074420D03*
X+6211560Y+2074420D03*
X+6465560Y+2074420D03*
X+6719560Y+2074420D03*
X+6973560Y+2074420D03*
X+7227560Y+2074420D03*
D16*
X+5414000Y+1490920D03*
X+5414000Y+474920D03*
X+5704000Y+1490920D03*
X+5704000Y+474920D03*
X+6014000Y+1490920D03*
X+6014000Y+474920D03*
X+6304000Y+1490920D03*
X+6304000Y+474920D03*
X+4603580Y+1518900D03*
X+4603580Y+2534900D03*
D25*
X+1030000Y+390000D03*
X+1030000Y+640000D03*
X+1030000Y+890000D03*
X+1030000Y+1140000D03*
X+2730000Y+1140000D03*
X+2730000Y+890000D03*
X+2730000Y+640000D03*
X+2730000Y+390000D03*
D16*
X+4079460Y+2534900D03*
X+4079460Y+1518900D03*
D17*
X+8857700Y+2314720D03*
X+9111700Y+2314720D03*
D18*
X+7073300Y+5367940D03*
X+6819300Y+5367940D03*
X+6565300Y+5367940D03*
X+6311300Y+5367940D03*
X+6057300Y+5367940D03*
X+5803300Y+5367940D03*
X+5549300Y+5367940D03*
X+5295300Y+5367940D03*
X+5041300Y+5367940D03*
X+4787300Y+5367940D03*
X+4533300Y+5367940D03*
X+4279300Y+5367940D03*
X+4025300Y+5367940D03*
X+3771300Y+5367940D03*
X+3517300Y+5367940D03*
X+3263300Y+5367940D03*
D17*
X+7535760Y+4929020D03*
X+8043760Y+4929020D03*
X+7789760Y+5489020D03*
X+7176140Y+3399500D03*
X+7684140Y+3399500D03*
D16*
X+7691760Y+2515000D03*
X+7691760Y+2007000D03*
X+7972520Y+2515000D03*
X+7972520Y+2007000D03*
D19*
X+1036540Y+9549680D03*
X+1544540Y+9549680D03*
D16*
X+8125175Y+5841420D03*
X+9141175Y+5841420D03*
D70*
X+390000Y+380000D03*
X+13140000Y+390000D03*
X+13160000Y+10060000D03*
D26*
X+6583680Y+3277800D03*
X+6883400Y+3277800D03*
X+6136640Y+4027100D03*
X+6436360Y+4027100D03*
D17*
X+3522180Y+4325020D03*
X+3268180Y+4325020D03*
D71*
X+492760Y+6869360D03*
X+2572760Y+6869360D03*
X+492760Y+2359360D03*
X+1292760Y+2359360D03*
D20*
X+8862060Y+1832540D03*
X+8862060Y+1629340D03*
X+8862060Y+1426140D03*
D16*
X+8544560Y+2508060D03*
X+8544560Y+1492060D03*
D18*
X+3339780Y+2418880D03*
X+3593780Y+2418880D03*
D16*
X+5805175Y+5910000D03*
X+6821175Y+5910000D03*
D19*
X+12810000Y+7884000D03*
X+12810000Y+8392000D03*
X+12810000Y+8900000D03*
D70*
X+370000Y+10050000D03*
D17*
X+7176660Y+1302820D03*
X+7430660Y+1302820D03*
X+8204000Y+1570000D03*
X+7950000Y+1570000D03*
D19*
X+4292600Y+599440D03*
X+3784600Y+599440D03*
D17*
X+7711440Y+645160D03*
X+8481440Y+645160D03*
D16*
X+9468000Y+1791520D03*
X+9468000Y+775520D03*
D15*
X+9854280Y+1544320D03*
D16*
X+9854280Y+1290320D03*
X+9854280Y+1036320D03*
X+10616280Y+1036320D03*
X+10616280Y+1290320D03*
X+10616280Y+1544320D03*
X+9940280Y+2124880D03*
X+11210280Y+2124880D03*
X+10743280Y+518160D03*
X+9727280Y+518160D03*
D18*
X+11183480Y+1074260D03*
X+11183480Y+1328260D03*
X+11183480Y+1582260D03*
D17*
X+11618350Y+2013900D03*
X+11618350Y+489900D03*
X+12115680Y+611820D03*
X+12115680Y+2135820D03*
D21*
X+9763760Y+2887980D03*
X+12073760Y+2887980D03*
D19*
X+13010000Y+1740000D03*
X+13010000Y+1232000D03*
D16*
X+9430000Y+4990000D03*
X+9430000Y+3974000D03*
D15*
X+9854280Y+4730000D03*
D16*
X+9854280Y+4476000D03*
X+9854280Y+4222000D03*
X+10616280Y+4222000D03*
X+10616280Y+4476000D03*
X+10616280Y+4730000D03*
X+9810280Y+5260000D03*
X+11080280Y+5260000D03*
X+10743280Y+3750000D03*
X+9727280Y+3750000D03*
D18*
X+11193480Y+4260000D03*
X+11193480Y+4514000D03*
X+11193480Y+4768000D03*
D17*
X+11638350Y+5240000D03*
X+11638350Y+3716000D03*
X+12125680Y+3690000D03*
X+12125680Y+5214000D03*
D21*
X+9770000Y+5980000D03*
X+12080000Y+5980000D03*
D19*
X+13000000Y+4250000D03*
X+13000000Y+4758000D03*
D15*
X+8310000Y+6284000D03*
D16*
X+8564000Y+6284000D03*
X+8818000Y+6284000D03*
X+8818000Y+7046000D03*
X+8564000Y+7046000D03*
X+8310000Y+7046000D03*
X+7790000Y+7300000D03*
X+7790000Y+6030000D03*
X+9180000Y+6157000D03*
X+9180000Y+7173000D03*
D18*
X+10004000Y+8478500D03*
X+9750000Y+8478500D03*
X+9496000Y+8478500D03*
D22*
X+11010000Y+8185000D03*
X+8510000Y+8185000D03*
D17*
X+9002220Y+9120000D03*
X+10526220Y+9120000D03*
X+10526220Y+9620000D03*
X+9002220Y+9620000D03*
D21*
X+9770000Y+7040000D03*
X+12080000Y+7040000D03*
D15*
X+6020000Y+6284000D03*
D16*
X+6274000Y+6284000D03*
X+6528000Y+6284000D03*
X+6528000Y+7046000D03*
X+6274000Y+7046000D03*
X+6020000Y+7046000D03*
X+5390000Y+6030000D03*
X+5390000Y+7300000D03*
X+7060000Y+7173000D03*
X+7060000Y+6157000D03*
D18*
X+6414000Y+8488500D03*
X+6160000Y+8488500D03*
X+5906000Y+8488500D03*
D22*
X+7410000Y+8185000D03*
X+4910000Y+8185000D03*
D17*
X+6964000Y+9550000D03*
X+5440000Y+9550000D03*
X+5440000Y+9100000D03*
X+6964000Y+9100000D03*
D21*
X+3580000Y+6760000D03*
X+3580000Y+9070000D03*
D16*
X+4140000Y+3220000D03*
X+3124000Y+3220000D03*
D23*
X+0Y-20000D02*
X+13561600Y-20000D01*
X+13561600Y+10438000D01*
X+0Y+10438000D01*
X+0Y-20000D01*
M02*
