G04 PROTEUS GERBER X2 FILE*
%TF.GenerationSoftware,Labcenter,Proteus,8.7-SP3-Build25561*%
%TF.CreationDate,2018-09-19T21:32:30+00:00*%
%TF.FileFunction,Plated,1,2,PTH*%
%TF.FilePolarity,Positive*%
%TF.Part,Single*%
%TF.SameCoordinates,{e3305a46-ce47-47b3-9e58-762d23285141}*%
%FSLAX45Y45*%
%MOMM*%
G01*
%TA.AperFunction,ViaDrill*%
%ADD64C,0.508000*%
%TA.AperFunction,ComponentDrill*%
%ADD65C,0.762000*%
%TA.AperFunction,ComponentDrill*%
%ADD66C,1.016000*%
%TA.AperFunction,ComponentDrill*%
%ADD67C,1.524000*%
%TA.AperFunction,OtherDrill,Unknown*%
%ADD68C,3.000000*%
%TA.AperFunction,ComponentDrill*%
%ADD69C,1.778000*%
%TD.AperFunction*%
D64*
X+6663149Y+1266760D03*
X+3805649Y+2242778D03*
X+4669953Y+9476027D03*
X+6277400Y+6066611D03*
X+7888671Y+4605584D03*
D65*
X+4090000Y+2880000D03*
X+4344000Y+2880000D03*
X+4598000Y+2880000D03*
X+4852000Y+2880000D03*
X+5106000Y+2880000D03*
X+5360000Y+2880000D03*
X+5614000Y+2880000D03*
X+5868000Y+2880000D03*
X+6122000Y+2880000D03*
X+6376000Y+2880000D03*
X+6630000Y+2880000D03*
X+6884000Y+2880000D03*
X+7138000Y+2880000D03*
X+7392000Y+2880000D03*
X+7646000Y+2880000D03*
X+7900000Y+2880000D03*
X+8154000Y+2880000D03*
X+8408000Y+2880000D03*
X+8662000Y+2880000D03*
X+8916000Y+2880000D03*
X+8916000Y+4404000D03*
X+8662000Y+4404000D03*
X+8408000Y+4404000D03*
X+8154000Y+4404000D03*
X+7900000Y+4404000D03*
X+7646000Y+4404000D03*
X+7392000Y+4404000D03*
X+7138000Y+4404000D03*
X+6884000Y+4404000D03*
X+6630000Y+4404000D03*
X+6376000Y+4404000D03*
X+6122000Y+4404000D03*
X+5868000Y+4404000D03*
X+5614000Y+4404000D03*
X+5360000Y+4404000D03*
X+5106000Y+4404000D03*
X+4852000Y+4404000D03*
X+4598000Y+4404000D03*
X+4344000Y+4404000D03*
X+4090000Y+4404000D03*
D66*
X+5449560Y+2074420D03*
X+5703560Y+2074420D03*
X+5957560Y+2074420D03*
X+6211560Y+2074420D03*
X+6465560Y+2074420D03*
X+6719560Y+2074420D03*
X+6973560Y+2074420D03*
X+7227560Y+2074420D03*
D65*
X+5414000Y+1490920D03*
X+5414000Y+474920D03*
X+5704000Y+1490920D03*
X+5704000Y+474920D03*
X+6014000Y+1490920D03*
X+6014000Y+474920D03*
X+6304000Y+1490920D03*
X+6304000Y+474920D03*
X+4603580Y+1518900D03*
X+4603580Y+2534900D03*
X+4079460Y+2534900D03*
X+4079460Y+1518900D03*
X+8857700Y+2314720D03*
X+9111700Y+2314720D03*
D66*
X+7073300Y+5367940D03*
X+6819300Y+5367940D03*
X+6565300Y+5367940D03*
X+6311300Y+5367940D03*
X+6057300Y+5367940D03*
X+5803300Y+5367940D03*
X+5549300Y+5367940D03*
X+5295300Y+5367940D03*
X+5041300Y+5367940D03*
X+4787300Y+5367940D03*
X+4533300Y+5367940D03*
X+4279300Y+5367940D03*
X+4025300Y+5367940D03*
X+3771300Y+5367940D03*
X+3517300Y+5367940D03*
X+3263300Y+5367940D03*
D65*
X+7535760Y+4929020D03*
X+8043760Y+4929020D03*
X+7789760Y+5489020D03*
X+7176140Y+3399500D03*
X+7684140Y+3399500D03*
X+7691760Y+2515000D03*
X+7691760Y+2007000D03*
X+7972520Y+2515000D03*
X+7972520Y+2007000D03*
D67*
X+1036540Y+9549680D03*
X+1544540Y+9549680D03*
D65*
X+8125175Y+5841420D03*
X+9141175Y+5841420D03*
D68*
X+390000Y+380000D03*
X+13140000Y+390000D03*
X+13160000Y+10060000D03*
D65*
X+3522180Y+4325020D03*
X+3268180Y+4325020D03*
D67*
X+492760Y+6869360D03*
X+2572760Y+6869360D03*
X+492760Y+2359360D03*
X+1292760Y+2359360D03*
D65*
X+8862060Y+1832540D03*
X+8862060Y+1629340D03*
X+8862060Y+1426140D03*
X+8544560Y+2508060D03*
X+8544560Y+1492060D03*
D66*
X+3339780Y+2418880D03*
X+3593780Y+2418880D03*
D65*
X+5805175Y+5910000D03*
X+6821175Y+5910000D03*
D67*
X+12810000Y+7884000D03*
X+12810000Y+8392000D03*
X+12810000Y+8900000D03*
D68*
X+370000Y+10050000D03*
D65*
X+7176660Y+1302820D03*
X+7430660Y+1302820D03*
X+8204000Y+1570000D03*
X+7950000Y+1570000D03*
D67*
X+4292600Y+599440D03*
X+3784600Y+599440D03*
D66*
X+7711440Y+645160D03*
X+8481440Y+645160D03*
D65*
X+9468000Y+1791520D03*
X+9468000Y+775520D03*
X+9854280Y+1544320D03*
X+9854280Y+1290320D03*
X+9854280Y+1036320D03*
X+10616280Y+1036320D03*
X+10616280Y+1290320D03*
X+10616280Y+1544320D03*
X+9940280Y+2124880D03*
X+11210280Y+2124880D03*
X+10743280Y+518160D03*
X+9727280Y+518160D03*
D66*
X+11183480Y+1074260D03*
X+11183480Y+1328260D03*
X+11183480Y+1582260D03*
D65*
X+11618350Y+2013900D03*
X+11618350Y+489900D03*
X+12115680Y+611820D03*
X+12115680Y+2135820D03*
D69*
X+9763760Y+2887980D03*
X+12073760Y+2887980D03*
D67*
X+13010000Y+1740000D03*
X+13010000Y+1232000D03*
D65*
X+9430000Y+4990000D03*
X+9430000Y+3974000D03*
X+9854280Y+4730000D03*
X+9854280Y+4476000D03*
X+9854280Y+4222000D03*
X+10616280Y+4222000D03*
X+10616280Y+4476000D03*
X+10616280Y+4730000D03*
X+9810280Y+5260000D03*
X+11080280Y+5260000D03*
X+10743280Y+3750000D03*
X+9727280Y+3750000D03*
D66*
X+11193480Y+4260000D03*
X+11193480Y+4514000D03*
X+11193480Y+4768000D03*
D65*
X+11638350Y+5240000D03*
X+11638350Y+3716000D03*
X+12125680Y+3690000D03*
X+12125680Y+5214000D03*
D69*
X+9770000Y+5980000D03*
X+12080000Y+5980000D03*
D67*
X+13000000Y+4250000D03*
X+13000000Y+4758000D03*
D65*
X+8310000Y+6284000D03*
X+8564000Y+6284000D03*
X+8818000Y+6284000D03*
X+8818000Y+7046000D03*
X+8564000Y+7046000D03*
X+8310000Y+7046000D03*
X+7790000Y+7300000D03*
X+7790000Y+6030000D03*
X+9180000Y+6157000D03*
X+9180000Y+7173000D03*
D66*
X+10004000Y+8478500D03*
X+9750000Y+8478500D03*
X+9496000Y+8478500D03*
D67*
X+11010000Y+8185000D03*
X+8510000Y+8185000D03*
D65*
X+9002220Y+9120000D03*
X+10526220Y+9120000D03*
X+10526220Y+9620000D03*
X+9002220Y+9620000D03*
D69*
X+9770000Y+7040000D03*
X+12080000Y+7040000D03*
D65*
X+6020000Y+6284000D03*
X+6274000Y+6284000D03*
X+6528000Y+6284000D03*
X+6528000Y+7046000D03*
X+6274000Y+7046000D03*
X+6020000Y+7046000D03*
X+5390000Y+6030000D03*
X+5390000Y+7300000D03*
X+7060000Y+7173000D03*
X+7060000Y+6157000D03*
D66*
X+6414000Y+8488500D03*
X+6160000Y+8488500D03*
X+5906000Y+8488500D03*
D67*
X+7410000Y+8185000D03*
X+4910000Y+8185000D03*
D65*
X+6964000Y+9550000D03*
X+5440000Y+9550000D03*
X+5440000Y+9100000D03*
X+6964000Y+9100000D03*
D69*
X+3580000Y+6760000D03*
X+3580000Y+9070000D03*
D65*
X+4140000Y+3220000D03*
X+3124000Y+3220000D03*
M02*
